<?xml version="1.0" encoding="utf-8" ?>
<svg xmlns="http://www.w3.org/2000/svg" xmlns:xlink="http://www.w3.org/1999/xlink" width="512" height="512">
	<path transform="scale(0.5 0.5)" d="M43.6853 1024C38.1114 1022.61 32.8359 1021.26 27.7087 1018.56C17.2937 1013.08 8.09779 1002.63 4.66347 991.293C3.79588 988.429 2.803 984.987 2.51999 982C1.57832 972.062 5.6854 960.33 10.4208 951.739L511.459 0.189954C515.015 5.10019 516.972 11.4911 519.707 16.9175C526.456 30.3062 533.377 43.5943 540.087 57C546.626 70.0654 553.383 83.1436 560.247 96.0433C564.19 103.454 568.517 110.712 572.044 118.33C574.194 122.971 576.948 127.284 579.384 131.765C585.247 142.549 590.935 153.546 596.618 164.436C616.303 202.159 635.748 239.962 655.44 277.687C658.429 283.412 661.817 288.937 664.793 294.679C672.676 309.886 680.171 325.293 688.049 340.5C724.205 410.291 760.668 479.959 797.477 549.407C840.384 630.363 884.576 710.688 926.71 792.071C937.443 812.803 948.23 833.639 959.331 854.175C964.682 864.074 970.431 873.753 975.75 883.683C981.077 893.628 986.135 903.721 991.501 913.645C996.572 923.023 1001.73 932.481 1007.08 941.705C1010.84 948.197 1015.58 954.063 1018.01 961.25C1019.17 964.708 1020.43 968.136 1021.02 971.75C1022.73 982.091 1020.06 991.152 1015.41 1000.34C1009.96 1011.12 999.739 1018.9 988.337 1022.44L983.857 1024L971.692 1024C957.677 1020.15 945.184 1012.35 932.5 1005.45C919.401 998.318 906.376 991.051 893.313 983.855C870.266 971.158 846.784 959.257 823.75 946.52C814.543 941.429 805.025 936.905 795.741 931.965C788.251 927.98 781.055 923.469 773.597 919.459C758.911 911.564 743.924 904.227 729.237 896.352C668.416 863.74 607.75 830.869 546.881 798.345C531.919 790.349 515.961 783.381 498.764 788.75C487.896 792.143 478.421 797.508 468.5 802.991C460.548 807.387 452.512 811.642 444.5 815.927C418.709 829.719 392.757 843.331 367.158 857.465C356.918 863.119 346.798 869.024 336.517 874.602C272.189 909.505 206.759 942.458 142.427 977.362C130.278 983.954 117.95 990.411 105.969 997.294C98.3993 1001.64 90.7559 1005.86 83.1871 1010.2C73.6117 1015.69 65.4798 1020.72 54.8233 1024L43.6853 1024Z"/>
</svg>
