<?xml version="1.0" encoding="utf-8" ?>
<svg xmlns="http://www.w3.org/2000/svg" xmlns:xlink="http://www.w3.org/1999/xlink" width="512" height="512">
	<path fill="#8338EC" transform="scale(0.5 0.5)" d="M279.58 911.265L279.849 910.307C278.527 909.545 277.355 908.544 276 907.862L272.807 906.036L270.833 904.667C269.964 904.046 270.29 904.208 269.576 903.83C267.501 902.73 265.554 901.487 263.667 900.083L257.245 895.75L255.75 894.755L249.497 890.167C248.285 889.38 247.183 888.445 245.997 887.667C245.116 887.089 244.255 886.731 243.437 886.031L239.509 883.058C238.112 881.784 236.514 881.075 235 880L233.248 878.583C231.668 877.378 230.111 875.492 228.308 874.702L227.75 874.5L227.43 873.7C226.603 871.527 227.062 868.149 228.149 866.068C228.503 865.39 228.923 865.005 229.023 864.2C229.367 861.442 231.02 859.574 232.33 857.167C235.199 851.9 238.499 846.756 241.321 841.541C243.36 837.772 244.841 833.639 246.932 829.945C247.736 828.525 249.202 827.699 250.108 826.361C252.044 823.5 253.208 820.043 254.999 817.059C256.199 815.059 257.961 813.296 259.423 811.471C260.347 811.194 261.144 810.991 261.972 810.487C263.344 809.651 264.679 809.803 265.933 808.663L266.593 808.045C270.066 805.698 279.173 812.884 282.712 814.456C284.682 815.33 287.449 816.22 289.554 816.659L291.753 817.239C292.743 817.531 293.443 817.721 294.487 817.735C299.796 817.805 305.474 818.943 310.74 817.93C310.208 817.389 308.499 817.315 307.709 817.168L317.486 817.078L318.642 816.989C353.119 816.989 387.596 816.977 422.07 816.98C439.034 816.982 455.969 817.355 472.935 817.068C482.289 816.91 491.65 817.006 501.006 817.08C504.923 817.111 509.474 817.643 513.316 817.113L513.117 839.784L512.99 974.208C493.789 974.05 474.592 973.516 455.491 971.383C410.513 966.361 367.294 953.81 326 935.444C310.259 928.443 293.852 920.972 279.58 911.265Z"/>
	<path fill="#FF006E" transform="scale(0.5 0.5)" d="M47.3827 508.537L255.506 509.437L255.807 494.798L255.865 494.241L256.451 685.5L256.028 695.82C256.253 708.937 256.127 722.104 255.857 735.22C255.651 745.197 255.345 755.176 255.408 765.157C255.456 772.842 255.523 781.023 257.66 788.461C259.26 794.03 262.514 798.503 266.642 802.477C273.632 809.206 282.818 814.678 292.448 816.375C297.446 817.256 302.647 817.124 307.709 817.168C308.499 817.315 310.208 817.389 310.74 817.93C305.474 818.943 299.796 817.805 294.487 817.735C293.443 817.721 292.743 817.531 291.753 817.239L289.554 816.659C287.449 816.22 284.682 815.33 282.712 814.456C279.173 812.884 270.066 805.698 266.593 808.045L265.933 808.663C264.679 809.803 263.344 809.651 261.972 810.487C261.144 810.991 260.347 811.194 259.423 811.471C257.961 813.296 256.199 815.059 254.999 817.059C253.208 820.043 252.044 823.5 250.108 826.361C249.202 827.699 247.736 828.525 246.932 829.945C244.841 833.639 243.36 837.772 241.321 841.541C238.499 846.756 235.199 851.9 232.33 857.167C231.02 859.574 229.367 861.442 229.023 864.2C228.923 865.005 228.503 865.39 228.149 866.068C227.062 868.149 226.603 871.527 227.43 873.7L227.75 874.5L228.308 874.702C230.111 875.492 231.668 877.378 233.248 878.583L235 880C236.514 881.075 238.112 881.784 239.509 883.058L243.437 886.031C244.255 886.731 245.116 887.089 245.997 887.667C247.183 888.445 248.285 889.38 249.497 890.167L255.75 894.755L257.245 895.75L263.667 900.083C265.554 901.487 267.501 902.73 269.576 903.83C270.29 904.208 269.964 904.046 270.833 904.667L272.807 906.036L276 907.862C277.355 908.544 278.527 909.545 279.849 910.307L279.58 911.265C269.491 905.84 259.848 899.012 250.5 892.419C240.639 885.464 230.897 878.495 221.576 870.812C202.578 855.152 185.331 837.93 168.638 819.862C161.316 811.938 153.483 803.919 147.18 795.152L146.309 794.228C135.716 782.343 126.81 768.375 118.244 754.995C80.3839 695.86 56.6266 630.392 49.4552 560.444C47.7088 543.41 46.6102 525.67 47.3827 508.537Z"/>
	<defs>
		<linearGradient id="gradient_0" gradientUnits="userSpaceOnUse" x1="232.25" y1="757.25" x2="282.62" y2="790.55402">
			<stop offset="0" stop-color="#E510A6"/>
			<stop offset="1" stop-color="#C529D8"/>
		</linearGradient>
	</defs>
	<path fill="url(#gradient_0)" transform="scale(0.5 0.5)" d="M147.18 795.152L147.707 794.784L149.038 795.584C149.461 796.901 150.545 797.584 151.375 798.625C152.513 800.052 154.086 801.394 155.038 802.892C158.237 807.926 163.586 812.023 167.375 816.625C172.058 822.312 177.347 827.38 182.47 832.687C184.054 834.329 185.417 836.209 187.125 837.875L189.126 837.139C189.109 831.568 191.583 830.336 194.306 826.204C195.801 823.935 196.852 821.381 198.309 819.085C199.272 817.566 200.769 816.204 201.407 814.528L201.715 813.586C202.332 811.892 203.119 809.8 204.755 809.111C205.202 807.967 205.63 806.468 206.456 805.551C207.674 804.196 207.712 803.154 208.657 801.757C211.469 797.601 213.95 793.786 215.424 788.914C216.456 785.504 218.55 782.317 220.152 779.132C224.853 769.791 229.881 758.025 237.342 750.575C242.329 745.595 245.702 744.543 252.645 744.684C253.143 745.65 253.647 746.088 254.5 746.75L254.5 742C255.759 740.112 254.982 693.694 254.981 687.347C254.98 684.37 254.979 681.393 254.981 678.415C254.982 676.998 254.767 675.34 255.286 674.002C255.284 678.804 255.286 683.606 255.32 688.408C255.334 690.422 255.064 693.064 255.711 694.961L256.028 695.82C256.253 708.937 256.127 722.104 255.857 735.22C255.651 745.197 255.345 755.176 255.408 765.157C255.456 772.842 255.523 781.023 257.66 788.461C259.26 794.03 262.514 798.503 266.642 802.477C273.632 809.206 282.818 814.678 292.448 816.375C297.446 817.256 302.647 817.124 307.709 817.168C308.499 817.315 310.208 817.389 310.74 817.93C305.474 818.943 299.796 817.805 294.487 817.735C293.443 817.721 292.743 817.531 291.753 817.239L289.554 816.659C287.449 816.22 284.682 815.33 282.712 814.456C279.173 812.884 270.066 805.698 266.593 808.045L265.933 808.663C264.679 809.803 263.344 809.651 261.972 810.487C261.144 810.991 260.347 811.194 259.423 811.471C257.961 813.296 256.199 815.059 254.999 817.059C253.208 820.043 252.044 823.5 250.108 826.361C249.202 827.699 247.736 828.525 246.932 829.945C244.841 833.639 243.36 837.772 241.321 841.541C238.499 846.756 235.199 851.9 232.33 857.167C231.02 859.574 229.367 861.442 229.023 864.2C228.923 865.005 228.503 865.39 228.149 866.068C227.062 868.149 226.603 871.527 227.43 873.7L227.75 874.5L228.308 874.702C230.111 875.492 231.668 877.378 233.248 878.583L235 880C236.514 881.075 238.112 881.784 239.509 883.058L243.437 886.031C244.255 886.731 245.116 887.089 245.997 887.667C247.183 888.445 248.285 889.38 249.497 890.167L255.75 894.755L257.245 895.75L263.667 900.083C265.554 901.487 267.501 902.73 269.576 903.83C270.29 904.208 269.964 904.046 270.833 904.667L272.807 906.036L276 907.862C277.355 908.544 278.527 909.545 279.849 910.307L279.58 911.265C269.491 905.84 259.848 899.012 250.5 892.419C240.639 885.464 230.897 878.495 221.576 870.812C202.578 855.152 185.331 837.93 168.638 819.862C161.316 811.938 153.483 803.919 147.18 795.152Z"/>
	<defs>
		<linearGradient id="gradient_1" gradientUnits="userSpaceOnUse" x1="511.75" y1="51.75" x2="-43.6455" y2="303.03799">
			<stop offset="0" stop-color="#5724D8"/>
			<stop offset="1" stop-color="#A03EF3"/>
		</linearGradient>
	</defs>
	<path fill="url(#gradient_1)" transform="scale(0.5 0.5)" d="M47.3827 508.537C48.6037 482.815 49.7841 456.465 54.2667 431.079C61.7775 388.545 75.8465 347.218 95.3347 308.716C99.8913 299.713 105.06 291.009 110.128 282.288C129.401 249.123 152.492 217.429 179.358 189.958C189.649 179.436 200.602 169.703 211.782 160.146C218.134 154.715 224.347 149.146 231.035 144.121C255.544 125.709 282.31 109.939 309.741 96.3133C333.298 84.6113 357.858 74.3347 383.23 67.25C425.512 55.4434 468.883 50.6071 512.694 50.0974L513.319 213.541L320.019 213.601C312.643 213.616 305.267 213.635 297.892 213.691C293.407 213.724 288.262 213.443 283.906 214.544C277.111 216.261 271.009 220.034 266.104 224.973C265.693 225.388 265.113 225.825 264.876 226.346C260.564 231.239 257.319 236.938 256.296 243.466C254.903 252.36 255.571 262.111 255.59 271.103C255.624 287.383 255.73 303.662 255.762 319.942C255.879 378.029 256.146 436.157 255.865 494.241L255.807 494.798L255.506 509.437L47.3827 508.537Z"/>
	<path fill="#3A86FF" transform="scale(0.5 0.5)" d="M512.694 50.0974C540.685 50.8956 568.346 52.1799 596.003 56.9205C649.515 66.0928 699.365 85.4383 746.119 112.857C781.694 133.72 815.155 158.908 843.522 188.974C851.104 197.01 858.801 205.14 865.903 213.601C880.372 230.841 893.31 249.17 905.296 268.197C910.333 276.194 915.533 284.044 920.151 292.303C938.852 325.746 954.03 362.87 963.49 400C968.482 419.594 971.713 439.421 974.153 459.48C976.735 480.702 978.535 502.878 977.892 524.253C977.412 540.191 975.62 556.195 973.568 572C969.783 601.134 963.674 630.019 954.25 657.883C951.526 665.938 948.099 673.742 944.899 681.613C930.328 717.451 911.324 751.92 888.147 782.937C869.187 808.309 847.27 831.703 824.225 853.384C793.096 882.671 757.153 906.071 719 925.07C685.333 941.836 650.256 954.886 613.5 963.008C600.314 965.922 586.401 969.068 572.932 969.953L572.769 969.932C558.262 972.301 543.092 973.557 528.393 974.026C523.337 974.187 518.029 974.625 512.99 974.208L513.117 839.784L513.316 817.113C520.329 816.585 527.675 817.041 534.724 817.014C548.779 816.962 562.832 816.884 576.887 816.9C620.668 816.951 664.468 817.21 708.247 817.048C718.329 817.011 728.41 816.743 738.491 816.738C743.331 816.735 748.173 816.805 753.011 816.734C755.447 816.699 758.202 816.835 760.57 816.307C762.494 815.879 764.469 814.529 765.484 812.83C766.135 811.741 766.143 810.612 765.839 809.417C764.839 805.492 761.485 803.834 758.241 802.067C757.015 800.857 756.08 799.453 755.089 798.052C752.018 793.879 749.805 789.166 748.207 784.251C746.95 780.521 746.564 776.035 746.25 772.107C745.883 767.511 745.478 762.471 746.169 757.891C747.165 751.289 750.182 745.203 752.884 739.176L754.409 737.074L757.556 734.056C762.392 729.186 769.228 722.453 770.324 715.41C770.808 712.297 770.467 708.71 770.458 705.554C770.438 698.988 770.397 692.422 770.352 685.855L769.605 227.483C768.979 223.198 767.951 220.466 764.824 217.394C762.841 215.446 760.428 213.953 757.606 213.63C750.027 212.763 741.606 213.388 733.966 213.388C717.855 213.388 701.744 213.46 685.633 213.403C628.507 213.2 571.327 213.065 514.204 213.64L513.319 213.541L512.694 50.0974Z"/>
	<path fill="#6DA9FF" transform="scale(0.5 0.5)" d="M513.117 839.784L513.209 839.363C513.62 837.387 513.679 835.453 513.738 833.444L549.911 833.739C546.413 834.244 542.767 834.008 539.232 834.005C533.595 834.002 527.957 833.998 522.319 833.995C520.153 833.994 516.045 833.389 514.274 834.463C514.025 835.859 513.938 836.554 514.361 837.905C515.451 841.381 514.917 846.09 513.792 849.489C512.849 852.34 513.635 857.934 514.305 860.755L516.033 861.597C516.162 863.954 516.028 864.557 517.754 866.267L518.818 867.447L519.328 867.995C522.6 871.655 521.804 874.57 523.695 878.573C524.757 880.821 526.206 882.891 527.344 885.1C528.52 887.382 529.364 890.001 530.353 892.379C530.676 893.157 530.724 893.524 530.83 894.309C531.008 895.619 531.569 896.517 532.193 897.659C533.106 899.332 533.607 900.973 534.747 902.533L543.358 916.217C545.206 918.934 546.513 922.1 547.326 925.17C547.435 925.582 547.767 925.954 548.025 926.282L546.966 929.46C546.66 930.468 546.239 930.937 545.627 931.748C545.11 932.432 544.88 933.174 544.477 933.918L543.878 934.753C542.561 936.575 542.383 938.687 541.531 940.717C540.271 943.719 541.177 946.799 540.151 949.808C539.386 952.048 540.326 954.038 540.745 956.275C540.917 957.194 541.107 957.78 541.433 958.659C542.133 960.548 541.453 963.588 540.535 965.351L540.255 965.812L540.448 967.191L541.396 967.273C542.32 967.364 542.754 967.502 543.463 968.137L544.409 967.933C546.093 967.585 547.912 967.409 549.626 967.577L549.972 968.691C548.404 970.066 544.623 969.914 542.408 970.301L541.532 970.408C539.786 970.654 538.021 971.38 536.317 971.859L536.25 972.5L541.977 972.4C543.487 972.398 542.287 972.46 543.75 972C544.799 971.67 546.181 971.978 547.25 972C548.346 972.023 548.745 971.793 549.75 971.5C551.621 970.955 553.761 972.159 555.5 971C557.037 971 559.247 971.335 560.5 970.5C561.966 970.465 562.857 970.366 564.25 970L566 969.878L568.039 969.626C569.878 969.288 571.01 969.424 572.769 969.932C558.262 972.301 543.092 973.557 528.393 974.026C523.337 974.187 518.029 974.625 512.99 974.208L513.117 839.784Z"/>
	<path fill="#FF006E" transform="scale(0.5 0.5)" d="M514.204 213.64C571.327 213.065 628.507 213.2 685.633 213.403C701.744 213.46 717.855 213.388 733.966 213.388C741.606 213.388 750.027 212.763 757.606 213.63C760.428 213.953 762.841 215.446 764.824 217.394C767.951 220.466 768.979 223.198 769.605 227.483L770.352 685.855C770.397 692.422 770.438 698.988 770.458 705.554C770.467 708.71 770.808 712.297 770.324 715.41C769.228 722.453 762.392 729.186 757.556 734.056L754.409 737.074L752.884 739.176C750.182 745.203 747.165 751.289 746.169 757.891C745.478 762.471 745.883 767.511 746.25 772.107C746.564 776.035 746.95 780.521 748.207 784.251C749.805 789.166 752.018 793.879 755.089 798.052C756.08 799.453 757.015 800.857 758.241 802.067C761.485 803.834 764.839 805.492 765.839 809.417C766.143 810.612 766.135 811.741 765.484 812.83C764.469 814.529 762.494 815.879 760.57 816.307C758.202 816.835 755.447 816.699 753.011 816.734C748.173 816.805 743.331 816.735 738.491 816.738C728.41 816.743 718.329 817.011 708.247 817.048C664.468 817.21 620.668 816.951 576.887 816.9C562.832 816.884 548.779 816.962 534.724 817.014C527.675 817.041 520.329 816.585 513.316 817.113C509.474 817.643 504.923 817.111 501.006 817.08C491.65 817.006 482.289 816.91 472.935 817.068C455.969 817.355 439.034 816.982 422.07 816.98C387.596 816.977 353.119 816.989 318.642 816.989L317.486 817.078L307.709 817.168C302.647 817.124 297.446 817.256 292.448 816.375C282.818 814.678 273.632 809.206 266.642 802.477C262.514 798.503 259.26 794.03 257.66 788.461C255.523 781.023 255.456 772.842 255.408 765.157C255.345 755.176 255.651 745.197 255.857 735.22C256.127 722.104 256.253 708.937 256.028 695.82L256.451 685.5L255.865 494.241C256.146 436.157 255.879 378.029 255.762 319.942C255.73 303.662 255.624 287.383 255.59 271.103C255.571 262.111 254.903 252.36 256.296 243.466C257.319 236.938 260.564 231.239 264.876 226.346C265.113 225.825 265.693 225.388 266.104 224.973C271.009 220.034 277.111 216.261 283.906 214.544C288.262 213.443 293.407 213.724 297.892 213.691C305.267 213.635 312.643 213.616 320.019 213.601L513.319 213.541L514.204 213.64ZM514.204 213.64L515.152 213.906C517.87 214.61 521.533 214.286 524.364 214.294L518.947 214.722C519.674 215.485 520.466 215.909 521.38 216.421C521.71 217.644 521.761 218.143 521.489 219.374C520.959 221.774 522.462 225.553 522.888 228.062C523.928 234.19 521.637 240.37 519.247 245.924C518.272 248.191 517.424 250.904 516.09 252.971L515.686 253.409C514.928 254.251 514.873 255.381 514.211 256.191C513.917 256.551 513.426 256.715 513.131 257.074C512.389 257.976 512.057 259.361 511.783 260.47L511.172 260.733C509.753 261.392 508.557 262.755 507.456 263.843C506.634 264.656 507.57 263.798 506.437 264.465C505.351 265.104 504.428 266.161 503.589 267.078L502.906 267.141L502.503 267.622C501.039 269.325 498.795 270.417 497.589 272.078L496.719 272.147C495.762 273.291 495.303 273.621 495.086 275.126L494.016 274.418L493.156 275.571L492.37 275.467L492.162 275.848C491.437 277.143 490.772 277.902 489.648 278.867L489.75 280.255L488.975 280.284C487.869 280.374 487.247 280.643 486.253 281.078C504.103 281.602 522.041 281.373 539.902 281.373C566.469 281.373 593.037 281.407 619.604 281.335C630.096 281.307 640.587 281.177 651.079 281.11C658.302 281.064 666.498 280.642 673.589 282.002C682.18 283.649 689.412 287.099 695.455 293.538L699.23 298.042C702.801 302.685 704.659 307.866 705.674 313.587C707.476 323.747 706.446 335.656 706.474 345.977C706.533 366.95 706.678 387.923 706.477 408.896L706.093 631.102C707.71 634.344 707.294 639.957 706.335 643.38L706.134 644.123C704.17 651.119 698.876 660.71 692.285 664.398L691.635 664.75L690.873 665.204C684.286 669.072 676.157 670.058 668.667 670.629C660.718 671.236 652.647 671.111 644.676 671.19C633.16 671.303 621.657 671.453 610.14 671.407C581.489 671.29 552.842 671.178 524.191 670.985C514.476 670.919 504.762 670.898 495.047 670.834C492.387 670.817 488.536 671.357 486.083 670.75C482.461 669.854 478.504 670.254 474.727 670.378C460.867 670.796 446.745 670.849 432.882 670.532C432.054 670.513 431.743 670.158 431 670C429.033 669.581 426.032 670.591 424.25 670C423.264 669.673 423.931 669.193 422.609 669.409C421.124 669.651 420.297 668.781 418.755 669.25C422.473 670.867 425.557 670.073 429.255 670.75C433.007 671.437 436.907 671.327 440.739 671.425C447.472 671.597 454.206 671.671 460.941 671.739C457.018 672.288 452.887 672.067 448.925 672.084L448.807 672.527C448.1 675.109 447.259 677.672 445.767 679.911L445.725 681.652L444.693 681.483C444.365 682.439 444.234 683.087 444.278 684.099L443.128 683.928C442.857 684.687 442.67 685.341 442.578 686.143L441.693 685.983C440.47 688.081 438.219 690.193 438.174 692.652L437.008 692.531L434.82 695.765C434.452 696.399 434.067 696.705 433.563 697.222C432.564 698.25 431.862 699.307 431.078 700.488C430.406 701.501 429.566 702.165 428.667 702.957C428.038 703.51 427.579 704.16 427.018 704.773L426.576 705.2C425.917 705.864 426.435 705.3 425.945 706.143C425.232 707.371 423.448 708.151 422.42 709.289C420.715 711.178 418.018 712.699 416.589 714.578L415.906 714.641L415.562 715.144C414.96 715.892 414.404 716.164 413.594 716.617C412.626 717.159 413.686 716.553 412.483 717.371C411.387 718.117 409.877 718.535 408.564 718.679L408.25 719.306C398.351 719.333 388.453 719.306 378.556 719.282C376.613 719.277 371.902 718.658 370.25 719.255C370.028 719.335 369.917 719.588 369.75 719.755L359.075 719.8L358.696 720.473L319.943 720.88C316.545 720.521 312.819 720.756 309.39 720.746C304.624 720.731 299.478 720.563 294.763 721.268L294 721.389C291.499 721.751 289.258 722.243 286.887 723.101C272.598 728.269 262.994 737.885 256.652 751.436L256.686 715.988L256.451 685.5L256.028 695.82C256.253 708.937 256.127 722.104 255.857 735.22C255.651 745.197 255.345 755.176 255.408 765.157C255.456 772.842 255.523 781.023 257.66 788.461C259.26 794.03 262.514 798.503 266.642 802.477C273.632 809.206 282.818 814.678 292.448 816.375C297.446 817.256 302.647 817.124 307.709 817.168L317.486 817.078L318.642 816.989C353.119 816.989 387.596 816.977 422.07 816.98C439.034 816.982 455.969 817.355 472.935 817.068C482.289 816.91 491.65 817.006 501.006 817.08C504.923 817.111 509.474 817.643 513.316 817.113C520.329 816.585 527.675 817.041 534.724 817.014C548.779 816.962 562.832 816.884 576.887 816.9C620.668 816.951 664.468 817.21 708.247 817.048C718.329 817.011 728.41 816.743 738.491 816.738C743.331 816.735 748.173 816.805 753.011 816.734C755.447 816.699 758.202 816.835 760.57 816.307C762.494 815.879 764.469 814.529 765.484 812.83C766.135 811.741 766.143 810.612 765.839 809.417C764.839 805.492 761.485 803.834 758.241 802.067C757.015 800.857 756.08 799.453 755.089 798.052C752.018 793.879 749.805 789.166 748.207 784.251C746.95 780.521 746.564 776.035 746.25 772.107C745.883 767.511 745.478 762.471 746.169 757.891C747.165 751.289 750.182 745.203 752.884 739.176L754.409 737.074L757.556 734.056C762.392 729.186 769.228 722.453 770.324 715.41C770.808 712.297 770.467 708.71 770.458 705.554C770.438 698.988 770.397 692.422 770.352 685.855L769.605 227.483C768.979 223.198 767.951 220.466 764.824 217.394C762.841 215.446 760.428 213.953 757.606 213.63C750.027 212.763 741.606 213.388 733.966 213.388C717.855 213.388 701.744 213.46 685.633 213.403C628.507 213.2 571.327 213.065 514.204 213.64Z"/>
	<path fill="#E70004" transform="scale(0.5 0.5)" d="M699.23 298.042C702.801 302.685 704.659 307.866 705.674 313.587C707.476 323.747 706.446 335.656 706.474 345.977C706.533 366.95 706.678 387.923 706.477 408.896C705.256 413.767 706.693 420.94 704.585 425.117C704.337 417.444 704.737 409.667 704.743 401.982C704.758 382.655 704.784 363.327 704.637 344.002C704.558 333.701 705.203 322.796 703.735 312.593C703.007 307.529 700.767 303.506 699.417 298.721L699.23 298.042Z"/>
	<path fill="#C30005" transform="scale(0.5 0.5)" d="M706.477 408.896L706.093 631.102C705.301 634.271 704.556 637.189 703.18 640.158C699.208 648.73 692.127 656 683.062 659.169C680.805 659.959 677.922 660.567 675.518 660.542C680.306 657.616 686.212 656.8 690.781 653.652C697.476 649.037 702.514 641.619 703.982 633.576L704.125 632.75C705.631 624.362 704.889 615.506 704.86 607C704.824 596.359 704.925 585.714 704.933 575.073C704.971 525.088 704.018 475.096 704.585 425.117C706.693 420.94 705.256 413.767 706.477 408.896Z"/>
	<path fill="#FB5607" transform="scale(0.5 0.5)" d="M706.093 631.102C707.71 634.344 707.294 639.957 706.335 643.38L706.134 644.123C704.17 651.119 698.876 660.71 692.285 664.398L691.635 664.75L690.873 665.204C684.286 669.072 676.157 670.058 668.667 670.629C660.718 671.236 652.647 671.111 644.676 671.19C633.16 671.303 621.657 671.453 610.14 671.407C581.489 671.29 552.842 671.178 524.191 670.985C514.476 670.919 504.762 670.898 495.047 670.834C492.387 670.817 488.536 671.357 486.083 670.75C482.461 669.854 478.504 670.254 474.727 670.378C474.636 669.769 474.344 665.14 474.475 664.783C474.82 663.85 475.352 664.02 475.52 662.798C473.476 662.808 471.28 662.955 469.253 662.74C468.257 662.634 467.52 662.209 466.48 662.259C463.344 662.41 459.646 662.68 456.645 661.648L456.242 661.495C461.763 660.845 467.872 661.357 473.468 661.364C484.753 661.379 496.037 661.363 507.322 661.416C522.835 661.489 538.34 661.919 553.851 661.943C576.699 661.977 599.56 661.56 622.41 661.375C633.691 661.283 644.972 661.302 656.253 661.152C662.654 661.066 669.146 661.19 675.518 660.542C677.922 660.567 680.805 659.959 683.062 659.169C692.127 656 699.208 648.73 703.18 640.158C704.556 637.189 705.301 634.271 706.093 631.102Z"/>
	<path fill="white" transform="scale(0.5 0.5)" d="M449.77 436.706C461.261 435.673 473.53 436.441 485.078 436.463C507.996 436.506 530.913 436.58 553.83 436.601C573.547 436.619 593.264 436.603 612.981 436.607C623.226 436.609 634.331 435.786 644.478 437.176C652.32 438.251 659.664 441.392 665.724 446.468C674.898 454.152 681.148 465.578 682.101 477.547C683.129 490.451 678.47 502.481 670.178 512.227C661.644 522.259 651.248 525.894 638.501 526.928C596.779 527.722 554.968 526.957 513.235 527.054C499.614 527.085 486 527.266 472.381 527.383C463.217 527.461 453.872 527.907 444.758 526.858C438.898 526.184 433.001 524.012 427.977 520.921C416.611 513.929 409.527 502.813 406.388 490C404.236 481.217 405.778 471.99 409.566 463.87C414.687 452.89 423.784 443.293 435.386 439.247C440.046 437.623 444.877 437.069 449.77 436.706Z"/>
	<path fill="#FFBE0B" transform="scale(0.5 0.5)" d="M513.319 213.541L514.204 213.64L515.152 213.906C517.87 214.61 521.533 214.286 524.364 214.294L518.947 214.722C519.674 215.485 520.466 215.909 521.38 216.421C521.71 217.644 521.761 218.143 521.489 219.374C520.959 221.774 522.462 225.553 522.888 228.062C523.928 234.19 521.637 240.37 519.247 245.924C518.272 248.191 517.424 250.904 516.09 252.971L515.686 253.409C514.928 254.251 514.873 255.381 514.211 256.191C513.917 256.551 513.426 256.715 513.131 257.074C512.389 257.976 512.057 259.361 511.783 260.47L511.172 260.733C509.753 261.392 508.557 262.755 507.456 263.843C506.634 264.656 507.57 263.798 506.437 264.465C505.351 265.104 504.428 266.161 503.589 267.078L502.906 267.141L502.503 267.622C501.039 269.325 498.795 270.417 497.589 272.078L496.719 272.147C495.762 273.291 495.303 273.621 495.086 275.126L494.016 274.418L493.156 275.571L492.37 275.467L492.162 275.848C491.437 277.143 490.772 277.902 489.648 278.867L489.75 280.255L488.975 280.284C487.869 280.374 487.247 280.643 486.253 281.078C469.577 281.49 452.859 281.049 436.176 281.195C427.056 281.274 416.532 280.446 407.751 283.03C401.178 284.964 395.646 288.792 390.954 293.72C389.53 295.216 387.668 297.12 386.79 298.979L386.658 299.408L385.185 303.22C383.749 306.475 383.242 309.08 383.11 312.61C382.834 319.948 383.136 327.361 383.114 334.708C383.056 354.936 383.097 375.195 383.5 395.42C383.7 405.461 384.364 415.474 384.403 425.52C384.443 435.792 384.369 446.057 383.964 456.321C383.717 462.555 383.139 468.756 383.062 475C382.776 498.224 383.912 521.421 383.966 544.644C384.004 561.072 384.074 577.497 384.046 593.926C384.03 603.487 383.696 613.173 384.09 622.722C384.257 626.757 384.345 631.344 385.835 635.119C389.309 643.918 396.408 649.568 401.891 656.926C405.025 658.664 408.454 660.121 412.005 660.74C418.19 661.817 425.004 661.312 431.28 661.294C439.601 661.27 447.921 661.39 456.242 661.495L456.645 661.648C459.646 662.68 463.344 662.41 466.48 662.259C467.52 662.209 468.257 662.634 469.253 662.74C471.28 662.955 473.476 662.808 475.52 662.798C475.352 664.02 474.82 663.85 474.475 664.783C474.344 665.14 474.636 669.769 474.727 670.378C460.867 670.796 446.745 670.849 432.882 670.532C432.054 670.513 431.743 670.158 431 670C429.033 669.581 426.032 670.591 424.25 670C423.264 669.673 423.931 669.193 422.609 669.409C421.124 669.651 420.297 668.781 418.755 669.25C422.473 670.867 425.557 670.073 429.255 670.75C433.007 671.437 436.907 671.327 440.739 671.425C447.472 671.597 454.206 671.671 460.941 671.739C457.018 672.288 452.887 672.067 448.925 672.084L448.807 672.527C448.1 675.109 447.259 677.672 445.767 679.911L445.725 681.652L444.693 681.483C444.365 682.439 444.234 683.087 444.278 684.099L443.128 683.928C442.857 684.687 442.67 685.341 442.578 686.143L441.693 685.983C440.47 688.081 438.219 690.193 438.174 692.652L437.008 692.531L434.82 695.765C434.452 696.399 434.067 696.705 433.563 697.222C432.564 698.25 431.862 699.307 431.078 700.488C430.406 701.501 429.566 702.165 428.667 702.957C428.038 703.51 427.579 704.16 427.018 704.773L426.576 705.2C425.917 705.864 426.435 705.3 425.945 706.143C425.232 707.371 423.448 708.151 422.42 709.289C420.715 711.178 418.018 712.699 416.589 714.578L415.906 714.641L415.562 715.144C414.96 715.892 414.404 716.164 413.594 716.617C412.626 717.159 413.686 716.553 412.483 717.371C411.387 718.117 409.877 718.535 408.564 718.679L408.25 719.306C398.351 719.333 388.453 719.306 378.556 719.282C376.613 719.277 371.902 718.658 370.25 719.255C370.028 719.335 369.917 719.588 369.75 719.755L359.075 719.8L358.696 720.473L319.943 720.88C316.545 720.521 312.819 720.756 309.39 720.746C304.624 720.731 299.478 720.563 294.763 721.268L294 721.389C291.499 721.751 289.258 722.243 286.887 723.101C272.598 728.269 262.994 737.885 256.652 751.436L256.686 715.988L256.451 685.5L255.865 494.241C256.146 436.157 255.879 378.029 255.762 319.942C255.73 303.662 255.624 287.383 255.59 271.103C255.571 262.111 254.903 252.36 256.296 243.466C257.319 236.938 260.564 231.239 264.876 226.346C265.113 225.825 265.693 225.388 266.104 224.973C271.009 220.034 277.111 216.261 283.906 214.544C288.262 213.443 293.407 213.724 297.892 213.691C305.267 213.635 312.643 213.616 320.019 213.601L513.319 213.541Z"/>
	<path fill="#E70004" transform="scale(0.5 0.5)" d="M401.891 656.926C399.204 655.628 396.827 653.817 394.551 651.902C387.375 645.863 381.198 636.707 380.443 627.189C379.715 618.005 380.061 608.61 380.043 599.399C380.014 583.813 379.994 568.226 379.98 552.64C379.942 508.464 379.495 464.33 379.803 420.15C379.983 394.292 379.41 368.439 379.702 342.58C379.805 333.451 379.196 323.929 380.138 314.851C380.722 309.229 383.1 303.277 386.79 298.979L386.658 299.408L385.185 303.22C383.749 306.475 383.242 309.08 383.11 312.61C382.834 319.948 383.136 327.361 383.114 334.708C383.056 354.936 383.097 375.195 383.5 395.42C383.7 405.461 384.364 415.474 384.403 425.52C384.443 435.792 384.369 446.057 383.964 456.321C383.717 462.555 383.139 468.756 383.062 475C382.776 498.224 383.912 521.421 383.966 544.644C384.004 561.072 384.074 577.497 384.046 593.926C384.03 603.487 383.696 613.173 384.09 622.722C384.257 626.757 384.345 631.344 385.835 635.119C389.309 643.918 396.408 649.568 401.891 656.926Z"/>
	<defs>
		<linearGradient id="gradient_2" gradientUnits="userSpaceOnUse" x1="489.75" y1="278.75" x2="846.49103" y2="355.258">
			<stop offset="0" stop-color="#FE9800"/>
			<stop offset="1" stop-color="#FC3F07"/>
		</linearGradient>
	</defs>
	<path fill="url(#gradient_2)" transform="scale(0.5 0.5)" d="M514.204 213.64C571.327 213.065 628.507 213.2 685.633 213.403C701.744 213.46 717.855 213.388 733.966 213.388C741.606 213.388 750.027 212.763 757.606 213.63C760.428 213.953 762.841 215.446 764.824 217.394C767.951 220.466 768.979 223.198 769.605 227.483L770.352 685.855C770.397 692.422 770.438 698.988 770.458 705.554C770.467 708.71 770.808 712.297 770.324 715.41C769.228 722.453 762.392 729.186 757.556 734.056L754.409 737.074L752.884 739.176C750.182 745.203 747.165 751.289 746.169 757.891C745.478 762.471 745.883 767.511 746.25 772.107C746.564 776.035 746.95 780.521 748.207 784.251C749.805 789.166 752.018 793.879 755.089 798.052C756.08 799.453 757.015 800.857 758.241 802.067C761.485 803.834 764.839 805.492 765.839 809.417C766.143 810.612 766.135 811.741 765.484 812.83C764.469 814.529 762.494 815.879 760.57 816.307C758.202 816.835 755.447 816.699 753.011 816.734C748.173 816.805 743.331 816.735 738.491 816.738C728.41 816.743 718.329 817.011 708.247 817.048C664.468 817.21 620.668 816.951 576.887 816.9C562.832 816.884 548.779 816.962 534.724 817.014C527.675 817.041 520.329 816.585 513.316 817.113C509.474 817.643 504.923 817.111 501.006 817.08C491.65 817.006 482.289 816.91 472.935 817.068C455.969 817.355 439.034 816.982 422.07 816.98C387.596 816.977 353.119 816.989 318.642 816.989L317.486 817.078L307.709 817.168C302.647 817.124 297.446 817.256 292.448 816.375C282.818 814.678 273.632 809.206 266.642 802.477C262.514 798.503 259.26 794.03 257.66 788.461C255.523 781.023 255.456 772.842 255.408 765.157C255.345 755.176 255.651 745.197 255.857 735.22C256.127 722.104 256.253 708.937 256.028 695.82L256.451 685.5L256.686 715.988L256.652 751.436C262.994 737.885 272.598 728.269 286.887 723.101C289.258 722.243 291.499 721.751 294 721.389L294.763 721.268C299.478 720.563 304.624 720.731 309.39 720.746C312.819 720.756 316.545 720.521 319.943 720.88L358.696 720.473L359.075 719.8L369.75 719.755C369.917 719.588 370.028 719.335 370.25 719.255C371.902 718.658 376.613 719.277 378.556 719.282C388.453 719.306 398.351 719.333 408.25 719.306L408.564 718.679C409.877 718.535 411.387 718.117 412.483 717.371C413.686 716.553 412.626 717.159 413.594 716.617C414.404 716.164 414.96 715.892 415.562 715.144L415.906 714.641L416.589 714.578C418.018 712.699 420.715 711.178 422.42 709.289C423.448 708.151 425.232 707.371 425.945 706.143C426.435 705.3 425.917 705.864 426.576 705.2L427.018 704.773C427.579 704.16 428.038 703.51 428.667 702.957C429.566 702.165 430.406 701.501 431.078 700.488C431.862 699.307 432.564 698.25 433.563 697.222C434.067 696.705 434.452 696.399 434.82 695.765L437.008 692.531L438.174 692.652C438.219 690.193 440.47 688.081 441.693 685.983L442.578 686.143C442.67 685.341 442.857 684.687 443.128 683.928L444.278 684.099C444.234 683.087 444.365 682.439 444.693 681.483L445.725 681.652L445.767 679.911C447.259 677.672 448.1 675.109 448.807 672.527L448.925 672.084C452.887 672.067 457.018 672.288 460.941 671.739C454.206 671.671 447.472 671.597 440.739 671.425C436.907 671.327 433.007 671.437 429.255 670.75C425.557 670.073 422.473 670.867 418.755 669.25C420.297 668.781 421.124 669.651 422.609 669.409C423.931 669.193 423.264 669.673 424.25 670C426.032 670.591 429.033 669.581 431 670C431.743 670.158 432.054 670.513 432.882 670.532C446.745 670.849 460.867 670.796 474.727 670.378C478.504 670.254 482.461 669.854 486.083 670.75C488.536 671.357 492.387 670.817 495.047 670.834C504.762 670.898 514.476 670.919 524.191 670.985C552.842 671.178 581.489 671.29 610.14 671.407C621.657 671.453 633.16 671.303 644.676 671.19C652.647 671.111 660.718 671.236 668.667 670.629C676.157 670.058 684.286 669.072 690.873 665.204L691.635 664.75L692.285 664.398C698.876 660.71 704.17 651.119 706.134 644.123L706.335 643.38C707.294 639.957 707.71 634.344 706.093 631.102L706.477 408.896C706.678 387.923 706.533 366.95 706.474 345.977C706.446 335.656 707.476 323.747 705.674 313.587C704.659 307.866 702.801 302.685 699.23 298.042L695.455 293.538C689.412 287.099 682.18 283.649 673.589 282.002C666.498 280.642 658.302 281.064 651.079 281.11C640.587 281.177 630.096 281.307 619.604 281.335C593.037 281.407 566.469 281.373 539.902 281.373C522.041 281.373 504.103 281.602 486.253 281.078C487.247 280.643 487.869 280.374 488.975 280.284L489.75 280.255L489.648 278.867C490.772 277.902 491.437 277.143 492.162 275.848L492.37 275.467L493.156 275.571L494.016 274.418L495.086 275.126C495.303 273.621 495.762 273.291 496.719 272.147L497.589 272.078C498.795 270.417 501.039 269.325 502.503 267.622L502.906 267.141L503.589 267.078C504.428 266.161 505.351 265.104 506.437 264.465C507.57 263.798 506.634 264.656 507.456 263.843C508.557 262.755 509.753 261.392 511.172 260.733L511.783 260.47C512.057 259.361 512.389 257.976 513.131 257.074C513.426 256.715 513.917 256.551 514.211 256.191C514.873 255.381 514.928 254.251 515.686 253.409L516.09 252.971C517.424 250.904 518.272 248.191 519.247 245.924C521.637 240.37 523.928 234.19 522.888 228.062C522.462 225.553 520.959 221.774 521.489 219.374C521.761 218.143 521.71 217.644 521.38 216.421C520.466 215.909 519.674 215.485 518.947 214.722L524.364 214.294C521.533 214.286 517.87 214.61 515.152 213.906L514.204 213.64ZM358.696 720.473L319.943 720.88C316.545 720.521 312.819 720.756 309.39 720.746C304.624 720.731 299.478 720.563 294.763 721.268L294 721.389C291.499 721.751 289.258 722.243 286.887 723.101C272.598 728.269 262.994 737.885 256.652 751.436L256.686 715.988L256.451 685.5L256.028 695.82C256.253 708.937 256.127 722.104 255.857 735.22C255.651 745.197 255.345 755.176 255.408 765.157C255.456 772.842 255.523 781.023 257.66 788.461C259.26 794.03 262.514 798.503 266.642 802.477C273.632 809.206 282.818 814.678 292.448 816.375C297.446 817.256 302.647 817.124 307.709 817.168L317.486 817.078L318.642 816.989C353.119 816.989 387.596 816.977 422.07 816.98C439.034 816.982 455.969 817.355 472.935 817.068C482.289 816.91 491.65 817.006 501.006 817.08C504.923 817.111 509.474 817.643 513.316 817.113C520.329 816.585 527.675 817.041 534.724 817.014C548.779 816.962 562.832 816.884 576.887 816.9C620.668 816.951 664.468 817.21 708.247 817.048C718.329 817.011 728.41 816.743 738.491 816.738C743.331 816.735 748.173 816.805 753.011 816.734C755.447 816.699 758.202 816.835 760.57 816.307C762.494 815.879 764.469 814.529 765.484 812.83C766.135 811.741 766.143 810.612 765.839 809.417C764.839 805.492 761.485 803.834 758.241 802.067C757.015 800.857 756.08 799.453 755.089 798.052C752.018 793.879 749.805 789.166 748.207 784.251C746.95 780.521 746.564 776.035 746.25 772.107C745.883 767.511 745.478 762.471 746.169 757.891C747.165 751.289 750.182 745.203 752.884 739.176L754.409 737.074L757.556 734.056C762.392 729.186 769.228 722.453 770.324 715.41C770.808 712.297 770.467 708.71 770.458 705.554C770.438 698.988 770.397 692.422 770.352 685.855L769.766 685.525C769.081 688.035 769.473 691.234 769.475 693.843C769.478 699.526 769.485 705.209 769.493 710.892C769.494 711.762 769.81 714.545 769.5 715.25C769.441 715.384 768.687 716.159 768.667 716.25C768.409 717.407 769.263 718.191 768.125 719.625C767.819 720.01 766.589 720.597 766.125 720.875C765.294 720.286 765.493 720.419 764.5 720.25L763.75 720L762.662 720.125C761.939 720.212 761.639 720.148 761 720.086C758.582 719.854 755.829 720.141 753.356 720.096C745.584 719.954 737.821 720.069 730.049 720.092C707.848 720.157 685.631 720.253 663.43 720.268C630.663 720.291 597.893 719.95 565.125 720.016C523.337 720.099 481.548 720.575 439.757 720.518C420.072 720.491 400.387 720.536 380.702 720.555C375.621 720.559 370.54 720.564 365.459 720.57C363.345 720.573 360.76 720.872 358.696 720.473Z"/>
	<path fill="#FB5607" transform="scale(0.5 0.5)" d="M358.696 720.473C360.76 720.872 363.345 720.573 365.459 720.57C370.54 720.564 375.621 720.559 380.702 720.555C400.387 720.536 420.072 720.491 439.757 720.518C481.548 720.575 523.337 720.099 565.125 720.016C597.893 719.95 630.663 720.291 663.43 720.268C685.631 720.253 707.848 720.157 730.049 720.092C737.821 720.069 745.584 719.954 753.356 720.096C755.829 720.141 758.582 719.854 761 720.086C761.639 720.148 761.939 720.212 762.662 720.125L763.75 720L764.5 720.25C765.493 720.419 765.294 720.286 766.125 720.875C766.589 720.597 767.819 720.01 768.125 719.625C769.263 718.191 768.409 717.407 768.667 716.25C768.687 716.159 769.441 715.384 769.5 715.25C769.81 714.545 769.494 711.762 769.493 710.892C769.485 705.209 769.478 699.526 769.475 693.843C769.473 691.234 769.081 688.035 769.766 685.525L770.352 685.855C770.397 692.422 770.438 698.988 770.458 705.554C770.467 708.71 770.808 712.297 770.324 715.41C769.228 722.453 762.392 729.186 757.556 734.056L754.409 737.074L752.884 739.176C750.182 745.203 747.165 751.289 746.169 757.891C745.478 762.471 745.883 767.511 746.25 772.107C746.564 776.035 746.95 780.521 748.207 784.251C749.805 789.166 752.018 793.879 755.089 798.052C756.08 799.453 757.015 800.857 758.241 802.067C761.485 803.834 764.839 805.492 765.839 809.417C766.143 810.612 766.135 811.741 765.484 812.83C764.469 814.529 762.494 815.879 760.57 816.307C758.202 816.835 755.447 816.699 753.011 816.734C748.173 816.805 743.331 816.735 738.491 816.738C728.41 816.743 718.329 817.011 708.247 817.048C664.468 817.21 620.668 816.951 576.887 816.9C562.832 816.884 548.779 816.962 534.724 817.014C527.675 817.041 520.329 816.585 513.316 817.113C509.474 817.643 504.923 817.111 501.006 817.08C491.65 817.006 482.289 816.91 472.935 817.068C455.969 817.355 439.034 816.982 422.07 816.98C387.596 816.977 353.119 816.989 318.642 816.989L317.486 817.078L307.709 817.168C302.647 817.124 297.446 817.256 292.448 816.375C282.818 814.678 273.632 809.206 266.642 802.477C262.514 798.503 259.26 794.03 257.66 788.461C255.523 781.023 255.456 772.842 255.408 765.157C255.345 755.176 255.651 745.197 255.857 735.22C256.127 722.104 256.253 708.937 256.028 695.82L256.451 685.5L256.686 715.988L256.652 751.436C262.994 737.885 272.598 728.269 286.887 723.101C289.258 722.243 291.499 721.751 294 721.389L294.763 721.268C299.478 720.563 304.624 720.731 309.39 720.746C312.819 720.756 316.545 720.521 319.943 720.88L358.696 720.473ZM317.938 738.443L316.976 739.115C314.442 738.727 312.271 738.668 309.723 738.821L309.199 802.043C311.493 802.014 314.903 802.435 316.979 801.561C318.394 801.944 318.606 801.942 320.014 801.536L320.383 783.854L320.032 739.102C319.373 738.762 318.652 738.632 317.938 738.443Z"/>
	<path fill="#E70004" transform="scale(0.5 0.5)" d="M317.938 738.443C318.652 738.632 319.373 738.762 320.032 739.102L320.383 783.854L320.014 801.536C318.606 801.942 318.394 801.944 316.979 801.561L316.976 739.115L317.938 738.443Z"/>
	<path fill="white" transform="scale(0.5 0.5)" d="M320.383 783.854L748.207 784.251C749.805 789.166 752.018 793.879 755.089 798.052C756.08 799.453 757.015 800.857 758.241 802.067L320.014 801.536L320.383 783.854Z"/>
	<path fill="#FFD99E" transform="scale(0.5 0.5)" d="M752.884 739.176C750.182 745.203 747.165 751.289 746.169 757.891C745.478 762.471 745.883 767.511 746.25 772.107C746.564 776.035 746.95 780.521 748.207 784.251L320.383 783.854L320.032 739.102C327.428 740.173 335.798 739.508 343.312 739.541C357.87 739.605 372.427 739.744 386.985 739.841C445.414 740.231 503.857 739.913 562.287 739.87C593.757 739.846 625.233 740.007 656.702 739.88C664.882 739.847 673.062 739.771 681.242 739.682C684.538 739.646 688.673 740.055 691.87 739.49C704.656 739.685 717.462 739.511 730.25 739.486C737.669 739.471 745.518 739.954 752.884 739.176Z"/>
</svg>
