<?xml version="1.0" encoding="utf-8" ?>
<svg xmlns="http://www.w3.org/2000/svg" xmlns:xlink="http://www.w3.org/1999/xlink" width="512" height="512">
	<path fill="#9003FE" fill-opacity="0.97647059" transform="scale(0.666667 0.666667)" d="M231.905 768C233.288 764.54 235.747 761.342 237.278 757.873C238.416 755.292 238.67 752.507 239.618 749.885L239.862 749.232C240.75 753.711 241.221 758.067 241.064 762.635L234.594 768L231.905 768Z"/>
	<defs>
		<linearGradient id="gradient_0" gradientUnits="userSpaceOnUse" x1="177.188" y1="160.312" x2="208.826" y2="25.4069">
			<stop offset="0" stop-color="#FEFFDD"/>
			<stop offset="1" stop-color="white"/>
		</linearGradient>
	</defs>
	<path fill="url(#gradient_0)" transform="scale(0.666667 0.666667)" d="M172.557 158.878L174.585 156.978C187.28 145.569 200.286 135.091 214.561 125.707C254.914 99.1773 300.552 83.4469 348.375 77.7434C365.534 75.6969 383.283 74.8904 400.563 75.8176C422.061 76.971 444.058 79.6398 465 84.7517C478.136 87.958 491.018 92.5795 503.515 97.7142C525.611 106.794 546.537 117.926 566.05 131.744C577.033 139.521 588.183 147.473 597.217 157.528C596.375 167.543 596.904 178.299 597.073 188.371C597.156 193.33 598.269 199.849 596.827 204.54L583.155 190.212C575.109 180.375 566.844 170.315 557.692 161.497C526.429 131.371 486.612 114.966 443.915 109.03C434.597 107.735 425.421 107.245 416.037 106.959C413.615 106.885 411.211 106.541 408.793 106.537C405.925 106.531 403.11 106.845 400.251 106.911C395.369 107.024 390.422 106.968 385.553 107.312C352.892 109.626 318.123 117.49 288.668 132.029C282.381 135.133 275.685 138.068 270.082 142.322L269.904 142.617C269.273 143.634 268.753 144.076 267.737 144.691C264.041 146.929 260.103 149.23 256.855 152.082C258.04 154.7 259.318 157.047 261.32 159.139L262.439 159.191L263.586 159.191C264.553 158.588 265.634 158.844 266.758 158.866L265.271 159.768C261.571 159.578 257.415 159.662 253.875 160.868C252.636 161.291 248.492 164.179 247.688 164.028L248.523 162.938C248.179 162.014 247.849 161.666 246.938 161.234C245.742 160.668 245.072 160.951 243.937 161.491C240.787 162.991 237.769 167.979 234.384 167.945L227.829 172.33L212.321 182.845C211.871 182.499 211.47 182.227 210.957 181.977L210.375 181.705L209.23 181.144L204.75 179.502C204.173 179.306 203.69 179.109 203.085 179.002L199.123 178.134L198.188 177.941L197.438 177.607C196.285 177.401 195.056 177.22 193.873 177.019C193.135 176.894 192.516 176.719 191.813 176.453C190.938 176.122 190.093 176.006 189.209 175.739L182.812 173.857C180.777 173.196 178.655 172.791 176.623 172.138C174.298 171.391 171.689 171.632 169.312 171.191C168.226 170.99 166.651 171.117 165.703 170.749C164.971 170.465 164.858 170.144 164.515 169.5L165.666 166.134C165.703 165.875 166.544 165.058 166.729 164.848C168.581 162.738 170.504 160.789 172.557 158.878Z"/>
	<defs>
		<linearGradient id="gradient_1" gradientUnits="userSpaceOnUse" x1="246.188" y1="159.938" x2="257.311" y2="153.903">
			<stop offset="0" stop-color="#FF5125"/>
			<stop offset="1" stop-color="#FF2D3A"/>
		</linearGradient>
	</defs>
	<path fill="url(#gradient_1)" transform="scale(0.666667 0.666667)" d="M270.082 142.322L269.904 142.617C269.273 143.634 268.753 144.076 267.737 144.691C264.041 146.929 260.103 149.23 256.855 152.082C258.04 154.7 259.318 157.047 261.32 159.139L262.439 159.191L263.586 159.191C264.553 158.588 265.634 158.844 266.758 158.866L265.271 159.768C261.571 159.578 257.415 159.662 253.875 160.868C252.636 161.291 248.492 164.179 247.688 164.028L248.523 162.938C248.179 162.014 247.849 161.666 246.938 161.234C245.742 160.668 245.072 160.951 243.937 161.491C240.787 162.991 237.769 167.979 234.384 167.945C238.585 164.146 243.376 160.643 247.893 157.213C255.031 151.792 262.152 146.558 270.082 142.322Z"/>
	<path fill="#FAFFA7" transform="scale(0.666667 0.666667)" d="M172.557 158.878C173.977 160.642 176.292 160.981 178.5 161.225C181.842 161.595 185.217 161.486 188.543 162.055C196.268 163.379 203.712 165.792 211.293 167.71C214.891 168.62 218.54 169.288 222.142 170.179C224.223 170.693 226.083 171.029 227.829 172.33L212.321 182.845C211.871 182.499 211.47 182.227 210.957 181.977L210.375 181.705L209.23 181.144L204.75 179.502C204.173 179.306 203.69 179.109 203.085 179.002L199.123 178.134L198.188 177.941L197.438 177.607C196.285 177.401 195.056 177.22 193.873 177.019C193.135 176.894 192.516 176.719 191.813 176.453C190.938 176.122 190.093 176.006 189.209 175.739L182.812 173.857C180.777 173.196 178.655 172.791 176.623 172.138C174.298 171.391 171.689 171.632 169.312 171.191C168.226 170.99 166.651 171.117 165.703 170.749C164.971 170.465 164.858 170.144 164.515 169.5L165.666 166.134C165.703 165.875 166.544 165.058 166.729 164.848C168.581 162.738 170.504 160.789 172.557 158.878Z"/>
	<defs>
		<linearGradient id="gradient_2" gradientUnits="userSpaceOnUse" x1="385.31201" y1="299.06201" x2="526.383" y2="135.077">
			<stop offset="0" stop-color="#F80382"/>
			<stop offset="1" stop-color="#A604BA"/>
		</linearGradient>
	</defs>
	<path fill="url(#gradient_2)" transform="scale(0.666667 0.666667)" d="M270.082 142.322C275.685 138.068 282.381 135.133 288.668 132.029C318.123 117.49 352.892 109.626 385.553 107.312C390.422 106.968 395.369 107.024 400.251 106.911C403.11 106.845 405.925 106.531 408.793 106.537C411.211 106.541 413.615 106.885 416.037 106.959C425.421 107.245 434.597 107.735 443.915 109.03C486.612 114.966 526.429 131.371 557.692 161.497C566.844 170.315 575.109 180.375 583.155 190.212L596.827 204.54C598.269 199.849 597.156 193.33 597.073 188.371C596.904 178.299 596.375 167.543 597.217 157.528C608.13 168.021 619.148 178.537 628.615 190.395C664.515 235.362 687.257 290.219 696.262 346.875C698.417 360.435 700.066 374.165 700.327 387.91C701.19 433.297 692.366 478.602 675.652 520.766C669.837 535.436 663.127 550.073 654.978 563.607C643.147 583.256 628.795 600.919 612.892 617.398C604.19 626.415 595.287 635.034 585.831 643.265C583.65 645.164 581.464 647.072 579.186 648.854C577.57 650.118 575.426 651.252 574.465 653.093L559.522 650.376C559.824 647.236 560.381 643.71 559.059 640.742C556.822 636.081 554.356 631.956 551.069 627.938C546.502 622.355 541.27 618.634 534.029 617.417C531.81 617.043 529.545 617.105 527.317 616.836C514.794 615.328 502.085 617.627 489.526 616.829C492.911 612.468 495.866 607.046 498.649 602.264C501.362 598.828 500.403 595.4 502.128 591.724C501.156 590.926 500.931 589.506 500.485 588.382C499.703 586.407 498.363 584.312 496.535 583.157C492.153 580.39 485.591 580.197 480.581 579.3C467.96 577.04 456.017 571.909 446.179 563.642C435.277 554.482 427.228 540.56 425.943 526.271L425.832 525.801C424.997 522.048 425.079 517.631 425.256 513.801C425.62 505.912 426.644 497.809 429.541 490.414C431.113 486.402 433.226 482.909 435.579 479.315C431.842 479.496 427.597 478.863 423.973 477.946C413.35 475.257 403.457 468.017 397.933 458.545C391.461 447.448 392.206 432.779 395.384 420.772C388.716 423.813 382.328 426.883 375.094 428.324C372.297 428.88 368.793 429.168 366.101 428.094C363.554 427.078 361.331 425.513 359.438 423.544L358.97 423.75L358.767 424.512C358.397 423.15 357.737 421.914 357.397 420.562C356.873 418.48 357.104 415.733 357.211 413.607C357.465 408.557 358.591 403.411 359.715 398.486C360.932 393.152 362.308 386.869 365.521 382.335C367.863 379.03 371.487 376.3 374.474 373.582L372.986 361.952L366.999 368.146C361.397 373.141 354.473 372.067 347.564 371.729L347.372 362.713C347.147 361.761 345.238 360.842 344.425 360.302C340.127 360.521 334.887 359.671 330.695 358.716C329.581 358.462 324.404 357.386 323.737 356.761C323.466 356.507 324.157 353.062 324.27 352.359C326.307 339.65 325.425 328.32 318.448 317.109L318.238 316.884C316.584 315.006 314.624 314.141 312.413 313.049L304.11 308.693C287.183 300.123 274.162 289.505 261.863 275.092C259.683 272.445 257.915 268.658 256.155 265.652C253.557 260.162 250.741 254.689 248.596 249C247.901 247.158 247.207 245.249 246.653 243.36C246.141 241.616 246.116 239.583 244.921 238.154C245.328 237.975 245.624 237.681 245.965 237.401C245.091 236.615 244.704 235.878 244.492 234.73C243.465 229.15 244.405 219.785 247.562 214.955L248.507 215.212C248.918 214.006 248.728 212.015 248.782 210.686C248.977 205.893 248.66 200.93 249.678 196.222L246.341 192.906C245.285 191.611 244.671 190.019 243.969 188.514C244.523 185.904 246.498 183.416 247.972 181.244C252.578 174.463 257.745 168.283 263.14 162.127C263.917 161.576 264.642 160.507 265.271 159.768L266.758 158.866C265.634 158.844 264.553 158.588 263.586 159.191L262.439 159.191L261.32 159.139C259.318 157.047 258.04 154.7 256.855 152.082C260.103 149.23 264.041 146.929 267.737 144.691C268.753 144.076 269.273 143.634 269.904 142.617L270.082 142.322Z"/>
	<path fill="#FE0070" transform="scale(0.666667 0.666667)" d="M262.439 159.191C264.229 157.714 266.001 158.813 267.752 156.752C268.762 155.563 269.658 154.531 270.964 153.628C275.095 150.769 278.44 146.306 282.75 143.794L283.473 144.375L283.427 145.48C281.172 147.717 278.761 149.811 276.388 151.923C274.817 153.321 273.232 154.949 271.334 155.891C270.603 156.254 270.261 156.409 269.784 157.125C270.409 157.795 271.198 157.818 272.071 158.042C270.488 158.321 268.325 159.004 266.758 158.866C265.634 158.844 264.553 158.588 263.586 159.191L262.439 159.191Z"/>
	<path fill="#2220F8" transform="scale(0.666667 0.666667)" d="M413.446 317.426C420.942 321.885 427.536 327.788 433.3 334.322L431.622 335.999C426.824 329.497 421.301 324.275 413.934 320.874L413.634 320.256L414.057 319.895C414.368 318.666 414.043 318.503 413.446 317.426Z"/>
	<path fill="#0196FF" transform="scale(0.666667 0.666667)" d="M583.155 190.212L596.827 204.54L598.037 205.832C595.731 208.949 596.102 211.671 594.524 214.817C592.703 211.892 592.102 208.264 590.501 205.167C588.162 200.638 583.976 195.807 582.482 191.062L583.155 190.212Z"/>
	<path fill="#2220F8" transform="scale(0.666667 0.666667)" d="M494.708 137.438C495.477 137.611 496.241 138.049 496.938 138.419C500.465 140.293 503.538 143.146 506.547 145.733C527.843 164.041 538.735 189.221 548.603 214.858C552.526 225.048 556.483 235.388 559.717 245.812L559.39 245.735C557.78 243.12 556.635 240.131 555.399 237.321C553.359 232.683 551.336 228.038 549.272 223.41C543.425 210.297 537.49 197.222 531.097 184.365C527.995 178.126 525.008 171.795 521.414 165.819C517.233 158.867 511.765 152.738 505.935 147.136C504.204 145.474 502.434 143.806 500.542 142.326C498.854 141.005 495.681 139.258 494.708 137.438Z"/>
	<path fill="#7206B7" transform="scale(0.666667 0.666667)" d="M575.084 344.123C574.753 343.925 573.808 339.006 573.624 338.174C568.021 312.848 548.492 292.652 531.393 274.279C522.504 264.727 513.513 255.219 504.388 245.894C500.274 241.69 495.985 237.7 491.927 233.438L492.375 233.218L564.397 295.508C575.148 308.734 590.352 323.591 588.237 342.254L587.852 344.503L587.738 344.583C586.745 345.083 585.918 345.931 584.98 346.401C583.343 347.22 577.422 344.172 575.084 344.123Z"/>
	<path fill="#2220F8" transform="scale(0.666667 0.666667)" d="M565.651 398.639C563.606 395.488 562.238 391.938 560.508 388.612C559.429 386.537 558.019 384.62 556.67 382.715C548.602 371.328 539.004 361.625 529.793 351.212C517.655 337.489 505.828 323.482 492.901 310.482C474.981 292.46 455.649 275.905 438.165 257.436C430.32 249.149 423.226 240.147 416.176 231.188C412.772 226.861 408.092 222.416 405.557 217.569C410.907 222.025 415.537 227.877 420.556 232.773C434.234 246.113 448.164 259.397 463.491 270.855C468.887 274.89 474.389 278.714 480.166 282.188C486.749 286.144 493.611 289.639 500.14 293.681C507.889 298.477 515.267 303.557 522.005 309.724C533.255 320.019 541.663 332.123 549.058 345.375C553.003 352.445 556.68 359.652 559.552 367.233C561.395 372.099 563.034 377.077 563.795 382.24C564.247 385.313 564.424 388.507 564.735 391.606C564.878 393.031 564.907 394.646 565.428 395.991L565.697 396.643L565.651 398.639Z"/>
	<defs>
		<linearGradient id="gradient_3" gradientUnits="userSpaceOnUse" x1="369.18799" y1="303.18799" x2="412.45499" y2="207.85899">
			<stop offset="0" stop-color="#FF8A05"/>
			<stop offset="1" stop-color="#FFC902"/>
		</linearGradient>
	</defs>
	<path fill="url(#gradient_3)" transform="scale(0.666667 0.666667)" d="M272.071 158.042C276.978 157.082 281.985 156.056 286.973 155.657C291.655 155.284 296.516 155.489 301.219 155.5C299.705 158.753 298.028 162.089 297.527 165.68C296.674 171.799 299.145 179.343 301.205 185.002C307.411 202.055 318.463 218.206 328.802 232.987C339.552 248.357 350.756 262.919 363.117 277.026C369.22 283.991 375.41 290.905 382.168 297.25C388.235 302.947 394.904 307.678 401.614 312.564L400.688 313.512L400.076 313.287C399.131 312.976 397.724 313.213 396.824 313.615C386.688 309.403 375.953 307.181 365.906 302.546C354.974 297.503 344.755 291.267 334.729 284.634C310.53 268.628 287.939 249.326 269.912 226.504C263.579 218.485 258.416 209.895 252.945 201.301C252.974 200.092 250.483 197.267 249.678 196.222L246.341 192.906C245.285 191.611 244.671 190.019 243.969 188.514C244.523 185.904 246.498 183.416 247.972 181.244C252.578 174.463 257.745 168.283 263.14 162.127C263.917 161.576 264.642 160.507 265.271 159.768L266.758 158.866C268.325 159.004 270.488 158.321 272.071 158.042Z"/>
	<path fill="#2F00B2" transform="scale(0.666667 0.666667)" d="M433.3 334.322C442.01 342.371 450.935 350.174 459.74 358.119C475.351 372.205 491.065 386.169 508.297 398.271C517.907 405.019 528.186 410.809 538.28 416.791C544.5 420.478 550.89 424.018 556.473 428.656C562.155 433.375 566.111 439.154 569.659 445.548C567.473 448.049 564.368 450.011 561.164 450.917L561.058 450.918C553.656 450.284 548.006 449.746 542.753 443.843C541.219 442.12 539.622 439.991 537.626 438.775C534.992 437.17 530.843 438.228 528.022 438.903C523.306 438.809 518.321 439.902 513.717 440.867C503.598 442.987 493.933 446.319 484.305 450.028C471.042 455.137 458.265 460.775 446.627 469.024C443.787 471.037 441.349 473.815 438.883 476.276C437.871 477.284 436.825 478.607 435.579 479.315C431.842 479.496 427.597 478.863 423.973 477.946C413.35 475.257 403.457 468.017 397.933 458.545C391.461 447.448 392.206 432.779 395.384 420.772C399.294 418.492 402.686 415.15 406.262 412.371C410.099 409.388 414.162 406.568 417.709 403.239C426.503 394.987 432.04 384.384 435.286 372.857C437.088 365.812 437.968 356.301 436.491 349.113C435.523 344.398 433.769 340.28 431.622 335.999L433.3 334.322Z"/>
	<path fill="#2F00B2" transform="scale(0.666667 0.666667)" d="M249.678 196.222C250.483 197.267 252.974 200.092 252.945 201.301C258.416 209.895 263.579 218.485 269.912 226.504C287.939 249.326 310.53 268.628 334.729 284.634C344.755 291.267 354.974 297.503 365.906 302.546C375.953 307.181 386.688 309.403 396.824 313.615C397.724 313.213 399.131 312.976 400.076 313.287L400.688 313.512L401.614 312.564C402.842 312.948 403.892 313.514 405.018 314.13C407.479 313.95 411.281 316.199 413.446 317.426C414.043 318.503 414.368 318.666 414.057 319.895L413.634 320.256L413.934 320.874C421.301 324.275 426.824 329.497 431.622 335.999C433.769 340.28 435.523 344.398 436.491 349.113C437.968 356.301 437.088 365.812 435.286 372.857C432.04 384.384 426.503 394.987 417.709 403.239C414.162 406.568 410.099 409.388 406.262 412.371C402.686 415.15 399.294 418.492 395.384 420.772C388.716 423.813 382.328 426.883 375.094 428.324C372.297 428.88 368.793 429.168 366.101 428.094C363.554 427.078 361.331 425.513 359.438 423.544L358.97 423.75L358.767 424.512C358.397 423.15 357.737 421.914 357.397 420.562C356.873 418.48 357.104 415.733 357.211 413.607C357.465 408.557 358.591 403.411 359.715 398.486C360.932 393.152 362.308 386.869 365.521 382.335C367.863 379.03 371.487 376.3 374.474 373.582L372.986 361.952L366.999 368.146C361.397 373.141 354.473 372.067 347.564 371.729L347.372 362.713C347.147 361.761 345.238 360.842 344.425 360.302C340.127 360.521 334.887 359.671 330.695 358.716C329.581 358.462 324.404 357.386 323.737 356.761C323.466 356.507 324.157 353.062 324.27 352.359C326.307 339.65 325.425 328.32 318.448 317.109L318.238 316.884C316.584 315.006 314.624 314.141 312.413 313.049L304.11 308.693C287.183 300.123 274.162 289.505 261.863 275.092C259.683 272.445 257.915 268.658 256.155 265.652C253.557 260.162 250.741 254.689 248.596 249C247.901 247.158 247.207 245.249 246.653 243.36C246.141 241.616 246.116 239.583 244.921 238.154C245.328 237.975 245.624 237.681 245.965 237.401C245.091 236.615 244.704 235.878 244.492 234.73C243.465 229.15 244.405 219.785 247.562 214.955L248.507 215.212C248.918 214.006 248.728 212.015 248.782 210.686C248.977 205.893 248.66 200.93 249.678 196.222Z"/>
	<path fill="#FF3E43" transform="scale(0.666667 0.666667)" d="M401.614 312.564C402.842 312.948 403.892 313.514 405.018 314.13C407.479 313.95 411.281 316.199 413.446 317.426C414.043 318.503 414.368 318.666 414.057 319.895L413.634 320.256L413.934 320.874C413.179 320.918 413.411 320.937 412.802 320.879L406.085 320.507C407.477 320.258 408.805 320.635 410.022 319.875C409.46 318.839 407.666 318.453 406.557 317.987C403.277 316.608 400.003 315.214 396.824 313.615C397.724 313.213 399.131 312.976 400.076 313.287L400.688 313.512L401.614 312.564Z"/>
	<path fill="#7206B7" transform="scale(0.666667 0.666667)" d="M405.018 314.13C407.479 313.95 411.281 316.199 413.446 317.426C414.043 318.503 414.368 318.666 414.057 319.895L413.634 320.256L405.018 314.13Z"/>
	<path fill="#FD5707" transform="scale(0.666667 0.666667)" d="M261.7 245.228C264.18 251.822 267.223 257.902 271.568 263.483C279.843 275.581 288.532 287.821 299.309 297.851C307.566 305.535 316.913 311.614 327.23 316.139C331.846 318.164 336.493 320.188 341.25 321.861C343.389 322.613 345.629 323.46 347.812 324.049C348.857 324.331 349.924 324.388 350.875 324.938L350.618 325.262C340.292 323.213 330.275 319.029 320.818 314.483C320.091 315.517 319.413 316.289 318.448 317.109L318.238 316.884C316.584 315.006 314.624 314.141 312.413 313.049L304.11 308.693C305.041 308.724 305.581 308.868 306.434 308.438C305.544 306.598 304.086 305.289 303.229 303.304L303.011 302.786C300.981 301.509 299.382 299.644 297.553 298.101C281.444 284.519 270.409 267.676 258.488 250.542C259.611 249.803 259.941 249.512 260.415 248.252L260.842 247.957C260.903 246.739 260.961 246.262 261.7 245.228Z"/>
	<path fill="#2220F8" transform="scale(0.666667 0.666667)" d="M313.222 310.235L320.818 314.483C320.091 315.517 319.413 316.289 318.448 317.109L318.238 316.884C316.584 315.006 314.624 314.141 312.413 313.049L313.008 312.642C312.959 312.055 313.01 311.549 313.102 310.972L313.222 310.235Z"/>
	<path fill="#2F00B2" transform="scale(0.666667 0.666667)" d="M303.011 302.786L313.222 310.235L313.102 310.972C313.01 311.549 312.959 312.055 313.008 312.642L312.413 313.049L304.11 308.693C305.041 308.724 305.581 308.868 306.434 308.438C305.544 306.598 304.086 305.289 303.229 303.304L303.011 302.786Z"/>
	<path fill="#FE0070" transform="scale(0.666667 0.666667)" d="M249.678 196.222C250.483 197.267 252.974 200.092 252.945 201.301C252.447 203.692 254.598 207.131 255.519 209.417C258.979 218.008 263.313 226.553 266.242 235.312C268.038 240.682 268.771 246.325 269.687 251.895C270.686 253.569 272.18 261.233 271.696 263.044L271.568 263.483C267.223 257.902 264.18 251.822 261.7 245.228C260.961 246.262 260.903 246.739 260.842 247.957L260.415 248.252L255.956 240.549L251.941 241.345C250.108 239.807 248.268 238.154 245.965 237.401C245.091 236.615 244.704 235.878 244.492 234.73C243.465 229.15 244.405 219.785 247.562 214.955L248.507 215.212C248.918 214.006 248.728 212.015 248.782 210.686C248.977 205.893 248.66 200.93 249.678 196.222Z"/>
	<defs>
		<linearGradient id="gradient_4" gradientUnits="userSpaceOnUse" x1="247.688" y1="217.688" x2="259.58499" y2="236.44701">
			<stop offset="0" stop-color="#3682FF"/>
			<stop offset="1" stop-color="#0DB3FF"/>
		</linearGradient>
	</defs>
	<path fill="url(#gradient_4)" transform="scale(0.666667 0.666667)" d="M245.965 237.401C245.091 236.615 244.704 235.878 244.492 234.73C243.465 229.15 244.405 219.785 247.562 214.955L248.507 215.212C249.51 221.261 251.338 227.588 253.304 233.383C254.121 235.793 255.223 238.121 255.956 240.549L251.941 241.345C250.108 239.807 248.268 238.154 245.965 237.401Z"/>
	<path fill="#2220F8" transform="scale(0.666667 0.666667)" d="M261.7 245.228L261.628 244.598C261.367 242.566 260.545 240.463 259.961 238.5C258.704 234.276 257.343 230.098 255.899 225.934C255.242 224.039 253.331 220.146 253.688 218.332C254.565 218.477 254.213 218.266 254.777 219.051C259.958 226.275 263.14 235.491 266.27 243.76C267.012 245.72 268.117 250.7 269.687 251.895C270.686 253.569 272.18 261.233 271.696 263.044L271.568 263.483C267.223 257.902 264.18 251.822 261.7 245.228Z"/>
	<path fill="#2220F8" transform="scale(0.666667 0.666667)" d="M245.965 237.401C248.268 238.154 250.108 239.807 251.941 241.345L255.956 240.549L260.415 248.252C259.941 249.512 259.611 249.803 258.488 250.542C270.409 267.676 281.444 284.519 297.553 298.101C299.382 299.644 300.981 301.509 303.011 302.786L303.229 303.304C304.086 305.289 305.544 306.598 306.434 308.438C305.581 308.868 305.041 308.724 304.11 308.693C287.183 300.123 274.162 289.505 261.863 275.092C259.683 272.445 257.915 268.658 256.155 265.652C253.557 260.162 250.741 254.689 248.596 249C247.901 247.158 247.207 245.249 246.653 243.36C246.141 241.616 246.116 239.583 244.921 238.154C245.328 237.975 245.624 237.681 245.965 237.401Z"/>
	<path fill="#E09023" transform="scale(0.666667 0.666667)" d="M251.941 241.345L255.956 240.549L260.415 248.252C259.941 249.512 259.611 249.803 258.488 250.542L251.941 241.345Z"/>
	<path fill="#FE0070" transform="scale(0.666667 0.666667)" d="M406.085 320.507L412.802 320.879C413.411 320.937 413.179 320.918 413.934 320.874C421.301 324.275 426.824 329.497 431.622 335.999C433.769 340.28 435.523 344.398 436.491 349.113C437.968 356.301 437.088 365.812 435.286 372.857C432.04 384.384 426.503 394.987 417.709 403.239C414.162 406.568 410.099 409.388 406.262 412.371C402.686 415.15 399.294 418.492 395.384 420.772C388.716 423.813 382.328 426.883 375.094 428.324C372.297 428.88 368.793 429.168 366.101 428.094C363.554 427.078 361.331 425.513 359.438 423.544L358.97 423.75L358.767 424.512C358.397 423.15 357.737 421.914 357.397 420.562C356.873 418.48 357.104 415.733 357.211 413.607C357.465 408.557 358.591 403.411 359.715 398.486C360.932 393.152 362.308 386.869 365.521 382.335C367.863 379.03 371.487 376.3 374.474 373.582L372.986 361.952L366.999 368.146C361.397 373.141 354.473 372.067 347.564 371.729L347.372 362.713C347.147 361.761 345.238 360.842 344.425 360.302C347.88 359.644 351.246 359.264 354.534 357.932C367.6 352.635 375.748 337.898 385.872 328.639C383.702 328.96 381.434 329.434 379.247 329.553C377.806 329.632 376.25 329.311 374.791 329.238C371.559 329.076 366.594 329.463 363.86 327.642L364.312 327.068C368.738 327.96 373.111 328.203 377.625 328.032C380.823 327.911 384.722 326.494 387.777 327.378C393.89 323.711 399.028 321.758 406.085 320.507Z"/>
	<path fill="#8A0563" transform="scale(0.666667 0.666667)" d="M391.973 349.981L402.892 357.402C404.579 358.852 406.206 360.181 407.438 362.058C407.481 363.451 408.451 365.391 408.924 366.708L389.451 357.647C389.84 355.062 390.419 352.12 391.973 349.981Z"/>
	<path fill="#FF6C8B" transform="scale(0.666667 0.666667)" d="M391.973 349.981L391.312 348.817C390.937 347.868 391.004 347.011 391.488 346.125C392.268 344.699 394.195 343.812 395.71 343.489C398.317 342.935 401.19 342.835 403.448 344.365C404.591 345.603 405.417 346.798 406.231 348.273C406.169 348.678 406.123 349.911 405.938 350.203C405.276 351.242 403.745 351.925 403.101 353.056C402.521 354.076 402.769 356.23 402.892 357.402L391.973 349.981Z"/>
	<path fill="#05E4FD" transform="scale(0.666667 0.666667)" d="M403.448 344.365C404.392 344.127 405.135 343.865 405.952 343.32L406.5 342.941C407.01 342.613 407.252 342.492 407.674 342.018C408.157 341.476 408.244 341.579 408.938 341.441L409.316 340.5C409.138 339.928 408.978 339.43 408.68 338.906C408.392 338.402 408.1 337.81 407.94 337.25L407.816 336.562L407.447 336.005L408.018 335.655C408.69 336.396 409.373 337.115 409.939 337.941C414.815 343.45 417.101 350.892 420.681 357.275C422.412 360.623 423.734 363.714 424.551 367.428C424.76 375.55 418.527 386.236 413.075 392.013C409.665 395.627 405.15 397.73 401.06 400.445C398.013 402.469 395.179 404.824 392.032 406.69C391.247 405.098 390.574 403.584 390.113 401.858C389.359 399.031 389.367 396.734 387.402 394.389L388.41 392.25C388.424 387.841 385.693 384.547 383.278 381.122C386.664 379.756 392.974 383.098 396.341 384.151C398.822 384.927 400.071 385.444 402.429 384.119C406.405 381.883 409.414 377.392 410.63 373.061C411.834 368.777 409.975 365.213 408.015 361.543L407.438 362.058C406.206 360.181 404.579 358.852 402.892 357.402C402.769 356.23 402.521 354.076 403.101 353.056C403.745 351.925 405.276 351.242 405.938 350.203C406.123 349.911 406.169 348.678 406.231 348.273C405.417 346.798 404.591 345.603 403.448 344.365Z"/>
	<path fill="#E208F5" transform="scale(0.666667 0.666667)" d="M406.231 348.273L407.602 349.448C406.035 351.189 406.355 353.668 406.477 355.937C406.555 357.372 406.951 358.481 407.438 359.826L408.015 361.543L407.438 362.058C406.206 360.181 404.579 358.852 402.892 357.402C402.769 356.23 402.521 354.076 403.101 353.056C403.745 351.925 405.276 351.242 405.938 350.203C406.123 349.911 406.169 348.678 406.231 348.273Z"/>
	<path fill="#EF00C3" transform="scale(0.666667 0.666667)" d="M403.448 344.365C404.392 344.127 405.135 343.865 405.952 343.32L406.5 342.941C407.01 342.613 407.252 342.492 407.674 342.018C408.157 341.476 408.244 341.579 408.938 341.441L409.316 340.5C409.138 339.928 408.978 339.43 408.68 338.906C408.392 338.402 408.1 337.81 407.94 337.25L407.816 336.562L407.447 336.005L408.018 335.655C408.69 336.396 409.373 337.115 409.939 337.941C409.595 339.315 410.145 339.808 410.695 341.032C412.394 344.81 411.516 347.082 408.054 349.184L407.602 349.448L406.231 348.273C405.417 346.798 404.591 345.603 403.448 344.365Z"/>
	<path fill="#FFBE0B" transform="scale(0.666667 0.666667)" d="M406.085 320.507L412.802 320.879C413.411 320.937 413.179 320.918 413.934 320.874C421.301 324.275 426.824 329.497 431.622 335.999C433.769 340.28 435.523 344.398 436.491 349.113C437.968 356.301 437.088 365.812 435.286 372.857C434.719 372.779 434.526 372.722 434.062 372.376C431.562 370.507 428.932 368.746 425.878 367.886L424.551 367.428C423.734 363.714 422.412 360.623 420.681 357.275C417.101 350.892 414.815 343.45 409.939 337.941C409.373 337.115 408.69 336.396 408.018 335.655L407.904 334.856C403.076 334.852 398.342 335.803 393.554 336.296L390.167 332.983C388.247 330.95 387.696 330.218 387.777 327.378C393.89 323.711 399.028 321.758 406.085 320.507Z"/>
	<path fill="#FF3E43" transform="scale(0.666667 0.666667)" d="M425.92 347.231C428.008 353.579 428.08 361.537 425.878 367.886L424.551 367.428C423.734 363.714 422.412 360.623 420.681 357.275C421.942 356.853 423.22 356.8 424.538 356.69C424.776 353.701 424.352 349.731 425.92 347.231Z"/>
	<path fill="#FD5707" transform="scale(0.666667 0.666667)" d="M407.904 334.856C410.795 334.084 414.985 334.011 417.605 335.582C421.837 338.121 424.554 342.591 425.92 347.231C424.352 349.731 424.776 353.701 424.538 356.69C423.22 356.8 421.942 356.853 420.681 357.275C417.101 350.892 414.815 343.45 409.939 337.941C409.373 337.115 408.69 336.396 408.018 335.655L407.904 334.856Z"/>
	<defs>
		<linearGradient id="gradient_5" gradientUnits="userSpaceOnUse" x1="426.93799" y1="369.18799" x2="411.22299" y2="437.827">
			<stop offset="0" stop-color="#FF957D"/>
			<stop offset="1" stop-color="#FF73B2"/>
		</linearGradient>
	</defs>
	<path fill="url(#gradient_5)" transform="scale(0.666667 0.666667)" d="M424.551 367.428L425.878 367.886C428.932 368.746 431.562 370.507 434.062 372.376C434.526 372.722 434.719 372.779 435.286 372.857C432.04 384.384 426.503 394.987 417.709 403.239C414.162 406.568 410.099 409.388 406.262 412.371C402.686 415.15 399.294 418.492 395.384 420.772C388.716 423.813 382.328 426.883 375.094 428.324C372.297 428.88 368.793 429.168 366.101 428.094C363.554 427.078 361.331 425.513 359.438 423.544L358.97 423.75L358.767 424.512C358.397 423.15 357.737 421.914 357.397 420.562C356.873 418.48 357.104 415.733 357.211 413.607C357.465 408.557 358.591 403.411 359.715 398.486C360.932 393.152 362.308 386.869 365.521 382.335C367.863 379.03 371.487 376.3 374.474 373.582L377.136 380.937C378.994 380.581 380.11 380.528 381.938 380.913L383.278 381.122C385.693 384.547 388.424 387.841 388.41 392.25L387.402 394.389C389.367 396.734 389.359 399.031 390.113 401.858C390.574 403.584 391.247 405.098 392.032 406.69C395.179 404.824 398.013 402.469 401.06 400.445C405.15 397.73 409.665 395.627 413.075 392.013C418.527 386.236 424.76 375.55 424.551 367.428Z"/>
	<path fill="#2220F8" transform="scale(0.666667 0.666667)" d="M377.136 380.937C378.994 380.581 380.11 380.528 381.938 380.913L383.278 381.122C385.693 384.547 388.424 387.841 388.41 392.25L387.402 394.389C384.994 396.473 382.236 398.076 379.079 398.662C377.171 399.016 375.403 399.497 373.455 399.115L372.938 399.006C370.883 398.61 369.497 398.345 368.231 396.562C368.015 395.043 368.301 393.531 368.714 392.062C370.036 387.357 372.832 383.313 377.136 380.937Z"/>
	<defs>
		<linearGradient id="gradient_6" gradientUnits="userSpaceOnUse" x1="491.43799" y1="615.93799" x2="769.367" y2="501.66199">
			<stop offset="0" stop-color="#FFC701"/>
			<stop offset="1" stop-color="#FBF201"/>
		</linearGradient>
	</defs>
	<path fill="url(#gradient_6)" transform="scale(0.666667 0.666667)" d="M597.217 157.528C608.13 168.021 619.148 178.537 628.615 190.395C664.515 235.362 687.257 290.219 696.262 346.875C698.417 360.435 700.066 374.165 700.327 387.91C701.19 433.297 692.366 478.602 675.652 520.766C669.837 535.436 663.127 550.073 654.978 563.607C643.147 583.256 628.795 600.919 612.892 617.398C604.19 626.415 595.287 635.034 585.831 643.265C583.65 645.164 581.464 647.072 579.186 648.854C577.57 650.118 575.426 651.252 574.465 653.093L559.522 650.376C559.824 647.236 560.381 643.71 559.059 640.742C556.822 636.081 554.356 631.956 551.069 627.938C546.502 622.355 541.27 618.634 534.029 617.417C531.81 617.043 529.545 617.105 527.317 616.836C514.794 615.328 502.085 617.627 489.526 616.829C492.911 612.468 495.866 607.046 498.649 602.264C501.362 598.828 500.403 595.4 502.128 591.724C501.156 590.926 500.931 589.506 500.485 588.382C499.703 586.407 498.363 584.312 496.535 583.157C492.153 580.39 485.591 580.197 480.581 579.3C467.96 577.04 456.017 571.909 446.179 563.642C435.277 554.482 427.228 540.56 425.943 526.271L425.832 525.801C424.997 522.048 425.079 517.631 425.256 513.801C425.62 505.912 426.644 497.809 429.541 490.414C431.113 486.402 433.226 482.909 435.579 479.315C436.825 478.607 437.871 477.284 438.883 476.276C441.349 473.815 443.787 471.037 446.627 469.024C458.265 460.775 471.042 455.137 484.305 450.028C493.933 446.319 503.598 442.987 513.717 440.867C518.321 439.902 523.306 438.809 528.022 438.903C530.843 438.228 534.992 437.17 537.626 438.775C539.622 439.991 541.219 442.12 542.753 443.843C548.006 449.746 553.656 450.284 561.058 450.918L561.164 450.917C564.368 450.011 567.473 448.049 569.659 445.548C571.32 448.01 573.486 450.617 574.828 453.236L576.674 453.185C578.328 453.13 580.857 453.298 582.382 452.736C586.449 451.237 590.189 445.485 593.169 442.296C584.654 427.317 573.235 414.157 565.651 398.639L565.697 396.643C566.3 396.196 566.739 395.681 567.227 395.114C567.268 389.98 569.596 384.575 570.915 379.637C574.01 368.045 576.103 356.122 575.084 344.123C577.422 344.172 583.343 347.22 584.98 346.401C585.918 345.931 586.745 345.083 587.738 344.583L587.852 344.503L588.237 342.254C590.352 323.591 575.148 308.734 564.397 295.508L565.765 295.007C560.694 289.197 554.088 284.176 549.61 277.939L553.474 281.239C570.849 297.553 588.808 316.979 593.06 341.235C593.755 345.203 593.777 349.368 593.905 353.39L594.159 353.069C595.993 349.903 597.133 345.374 598.451 341.926C608.991 314.347 613.453 280.995 606.602 251.993C604.663 243.783 601.931 235.889 599.062 227.969C597.542 223.77 595.633 219.544 594.61 215.203L594.524 214.817C596.102 211.671 595.731 208.949 598.037 205.832L596.827 204.54C598.269 199.849 597.156 193.33 597.073 188.371C596.904 178.299 596.375 167.543 597.217 157.528Z"/>
	<defs>
		<linearGradient id="gradient_7" gradientUnits="userSpaceOnUse" x1="597.56201" y1="207.938" x2="776.34802" y2="443.987">
			<stop offset="0" stop-color="#3601FF"/>
			<stop offset="1" stop-color="#0242FF"/>
		</linearGradient>
	</defs>
	<path fill="url(#gradient_7)" transform="scale(0.666667 0.666667)" d="M598.037 205.832C608.239 216.374 618.018 227.003 626 239.377C633.615 251.182 639.048 264.056 643.585 277.311C651.877 301.532 656.79 327.235 656.348 352.897C655.892 379.351 648.041 405.215 634.852 428.064C630.761 435.151 626.089 442.383 620.16 448.073L613.895 453.52C628.014 460.681 638.047 471.94 642.98 487.132C645.744 495.641 646.921 504.643 645.91 513.562C643.448 535.303 632.442 552.957 615.66 566.715C595.724 583.058 572.419 590.876 547.04 593.453L545.438 593.178L544.544 591.75C543.919 590.331 544.775 589.281 545.359 587.962L545.903 587.802C549.637 584.153 553.925 581.861 558.452 579.345C560.197 579.767 561.015 579.84 562.341 581.117C563.42 580.576 564.322 580.046 565.262 579.285L566.094 578.814C568.993 577.127 571.735 575.06 574.515 573.175C578.051 570.777 581.801 568.477 585.084 565.75C597.596 555.355 606.884 540.941 610.922 525.167C616.112 504.897 612.949 482.175 604.54 463.214C601.341 456.002 597.202 449.067 593.169 442.296C584.654 427.317 573.235 414.157 565.651 398.639L565.697 396.643C566.3 396.196 566.739 395.681 567.227 395.114C567.268 389.98 569.596 384.575 570.915 379.637C574.01 368.045 576.103 356.122 575.084 344.123C577.422 344.172 583.343 347.22 584.98 346.401C585.918 345.931 586.745 345.083 587.738 344.583L587.852 344.503L588.237 342.254C590.352 323.591 575.148 308.734 564.397 295.508L565.765 295.007C560.694 289.197 554.088 284.176 549.61 277.939L553.474 281.239C570.849 297.553 588.808 316.979 593.06 341.235C593.755 345.203 593.777 349.368 593.905 353.39L594.159 353.069C595.993 349.903 597.133 345.374 598.451 341.926C608.991 314.347 613.453 280.995 606.602 251.993C604.663 243.783 601.931 235.889 599.062 227.969C597.542 223.77 595.633 219.544 594.61 215.203L594.524 214.817C596.102 211.671 595.731 208.949 598.037 205.832Z"/>
	<path fill="#9003FE" transform="scale(0.666667 0.666667)" d="M558.452 579.345C560.197 579.767 561.015 579.84 562.341 581.117C557.378 583.728 551.653 587.563 545.903 587.802C549.637 584.153 553.925 581.861 558.452 579.345Z"/>
	<path fill="#B903B2" transform="scale(0.666667 0.666667)" d="M565.765 295.007C581.552 311.451 593.213 330.07 592.584 353.631C592.565 354.329 592.612 354.01 592.412 354.568C592.188 355.192 592.357 355.792 592.444 356.438L592.107 357.035C590.876 359.262 589.971 361.705 588.802 363.98C583.64 374.024 578.41 383.722 570.473 391.903C569.686 390.086 571.837 387.709 572.817 386.049C578.196 376.939 584.041 365.797 586.391 355.444C587.193 351.908 587.482 348.193 587.738 344.583L587.852 344.503L588.237 342.254C590.352 323.591 575.148 308.734 564.397 295.508L565.765 295.007Z"/>
	<path fill="#2220F8" transform="scale(0.666667 0.666667)" d="M575.084 344.123C577.422 344.172 583.343 347.22 584.98 346.401C585.918 345.931 586.745 345.083 587.738 344.583C587.482 348.193 587.193 351.908 586.391 355.444C584.041 365.797 578.196 376.939 572.817 386.049C571.837 387.709 569.686 390.086 570.473 391.903L567.227 395.114C567.268 389.98 569.596 384.575 570.915 379.637C574.01 368.045 576.103 356.122 575.084 344.123Z"/>
	<path fill="#EF00C3" transform="scale(0.666667 0.666667)" d="M528.022 438.903C530.843 438.228 534.992 437.17 537.626 438.775C539.622 439.991 541.219 442.12 542.753 443.843C548.006 449.746 553.656 450.284 561.058 450.918L561.164 450.917C564.368 450.011 567.473 448.049 569.659 445.548C571.32 448.01 573.486 450.617 574.828 453.236L576.674 453.185C578.328 453.13 580.857 453.298 582.382 452.736C586.449 451.237 590.189 445.485 593.169 442.296C597.202 449.067 601.341 456.002 604.54 463.214C612.949 482.175 616.112 504.897 610.922 525.167C606.884 540.941 597.596 555.355 585.084 565.75C581.801 568.477 578.051 570.777 574.515 573.175C571.735 575.06 568.993 577.127 566.094 578.814L565.262 579.285C564.322 580.046 563.42 580.576 562.341 581.117C561.015 579.84 560.197 579.767 558.452 579.345C553.925 581.861 549.637 584.153 545.903 587.802L545.359 587.962C544.775 589.281 543.919 590.331 544.544 591.75L545.438 593.178L547.04 593.453L533.649 594.83C523.738 596.266 515.236 595.502 505.785 592.199L502.128 591.724C501.156 590.926 500.931 589.506 500.485 588.382C499.703 586.407 498.363 584.312 496.535 583.157C492.153 580.39 485.591 580.197 480.581 579.3C467.96 577.04 456.017 571.909 446.179 563.642C435.277 554.482 427.228 540.56 425.943 526.271L425.832 525.801C424.997 522.048 425.079 517.631 425.256 513.801C425.62 505.912 426.644 497.809 429.541 490.414C431.113 486.402 433.226 482.909 435.579 479.315C436.825 478.607 437.871 477.284 438.883 476.276C441.349 473.815 443.787 471.037 446.627 469.024C458.265 460.775 471.042 455.137 484.305 450.028C493.933 446.319 503.598 442.987 513.717 440.867C518.321 439.902 523.306 438.809 528.022 438.903Z"/>
	<path fill="#9003FE" transform="scale(0.666667 0.666667)" d="M533.649 594.83L530.625 594.614L530.496 594.188L531.149 593.289C532.368 591.835 534.517 591.308 536.237 590.675C539.307 589.544 542.051 588.272 545.359 587.962C544.775 589.281 543.919 590.331 544.544 591.75L545.438 593.178L547.04 593.453L533.649 594.83Z"/>
	<path fill="#2F00B2" transform="scale(0.666667 0.666667)" d="M516.855 483.402L518.441 481.688L518.866 483.661C516.542 490.171 514.666 496.855 513.208 503.61C512.194 508.312 511.545 513.027 510.333 517.699C509.822 513.322 510.669 508.335 511.392 504.011C512.509 497.327 513.853 489.508 516.855 483.402Z"/>
	<path fill="#7206B7" transform="scale(0.666667 0.666667)" d="M516.855 483.402C519.688 473.898 523.6 464.841 527.869 455.897C529.829 451.79 531.821 447.368 534.649 443.774C534.411 445.625 532.96 447.698 532.159 449.388C526.864 460.559 522.883 471.996 518.866 483.661L518.441 481.688L516.855 483.402Z"/>
	<path fill="#B903B2" transform="scale(0.666667 0.666667)" d="M558.452 579.345C564.397 573.846 572.162 570.407 578.347 565.1C589.032 555.931 597.723 543.143 603.209 530.221C605.18 525.578 606.515 520.29 608.949 515.915C606.024 528.903 599.039 541.897 590.948 552.375C587.591 556.723 583.852 560.838 579.913 564.662C576.699 567.782 573.407 570.947 570.079 573.938C568.915 574.983 566.321 576.39 565.606 577.603C565.41 577.935 565.346 578.87 565.262 579.285C564.322 580.046 563.42 580.576 562.341 581.117C561.015 579.84 560.197 579.767 558.452 579.345Z"/>
	<path fill="#2220F8" transform="scale(0.666667 0.666667)" d="M425.943 526.271L426.146 523.211L426.75 523.099C427.736 523.817 428.649 524.502 429.75 525.031C433.084 526.632 436.296 527.287 439.714 528.543C442.743 529.655 446.135 531.518 449.311 531.912C449.893 531.984 450.4 532.151 450.961 532.312C453.597 533.069 456.208 532.776 458.897 532.942C460.049 533.013 461.067 533.553 462.188 533.677C463.78 533.852 465.65 533.227 467.25 533.054C469.2 532.843 471.154 532.878 473.098 532.559C475.892 532.1 478.169 531.063 480.828 530.313C483.761 529.485 486.69 529.229 489.628 528.594C491.271 528.239 493.007 527.284 494.692 527.632C495.848 537.652 500.95 546.285 508.8 552.571C522.116 563.235 540.884 571.159 557.831 573.28C546.86 579.117 536.548 585.277 524.394 588.427C518.263 590.017 511.847 590.561 505.785 592.199L502.128 591.724C501.156 590.926 500.931 589.506 500.485 588.382C499.703 586.407 498.363 584.312 496.535 583.157C492.153 580.39 485.591 580.197 480.581 579.3C467.96 577.04 456.017 571.909 446.179 563.642C435.277 554.482 427.228 540.56 425.943 526.271Z"/>
	<defs>
		<linearGradient id="gradient_8" gradientUnits="userSpaceOnUse" x1="524.81201" y1="439.68799" x2="526.66199" y2="531.08398">
			<stop offset="0" stop-color="#8908A8"/>
			<stop offset="1" stop-color="#2813DC"/>
		</linearGradient>
	</defs>
	<path fill="url(#gradient_8)" transform="scale(0.666667 0.666667)" d="M435.579 479.315C436.825 478.607 437.871 477.284 438.883 476.276C441.349 473.815 443.787 471.037 446.627 469.024C458.265 460.775 471.042 455.137 484.305 450.028C493.933 446.319 503.598 442.987 513.717 440.867C518.321 439.902 523.306 438.809 528.022 438.903C517.685 455.264 509.312 471.992 502.624 490.173C498.042 502.63 493.972 514.195 494.692 527.632C493.007 527.284 491.271 528.239 489.628 528.594C486.69 529.229 483.761 529.485 480.828 530.313C478.169 531.063 475.892 532.1 473.098 532.559C471.154 532.878 469.2 532.843 467.25 533.054C465.65 533.227 463.78 533.852 462.188 533.677C461.067 533.553 460.049 533.013 458.897 532.942C456.208 532.776 453.597 533.069 450.961 532.312C450.4 532.151 449.893 531.984 449.311 531.912C446.135 531.518 442.743 529.655 439.714 528.543C436.296 527.287 433.084 526.632 429.75 525.031C428.649 524.502 427.736 523.817 426.75 523.099L426.146 523.211L425.943 526.271L425.832 525.801C424.997 522.048 425.079 517.631 425.256 513.801C425.62 505.912 426.644 497.809 429.541 490.414C431.113 486.402 433.226 482.909 435.579 479.315Z"/>
	<path fill="#2220F8" transform="scale(0.666667 0.666667)" d="M569.659 445.548C571.32 448.01 573.486 450.617 574.828 453.236L581.018 462.777C591.761 481.336 597.844 504.332 592.134 525.545C588.769 538.046 581.88 549.886 572.674 558.977C569.947 561.67 566.628 564.661 563.218 566.465C559.851 568.245 555.11 566.754 551.655 565.747C540.085 562.377 531.611 555.224 525.838 544.632C517.075 528.553 518.385 510.309 523.512 493.312C527.354 480.575 534.886 463.723 547.032 456.901C551.369 454.465 556.37 453.513 560.696 451.125L561.058 450.918L561.164 450.917C564.368 450.011 567.473 448.049 569.659 445.548Z"/>
	<path fill="#FFBE0B" transform="scale(0.666667 0.666667)" d="M234.384 167.945C237.769 167.979 240.787 162.991 243.937 161.491C245.072 160.951 245.742 160.668 246.938 161.234C247.849 161.666 248.179 162.014 248.523 162.938L247.688 164.028C248.492 164.179 252.636 161.291 253.875 160.868C257.415 159.662 261.571 159.578 265.271 159.768C264.642 160.507 263.917 161.576 263.14 162.127C257.745 168.283 252.578 174.463 247.972 181.244C246.498 183.416 244.523 185.904 243.969 188.514C244.671 190.019 245.285 191.611 246.341 192.906L249.678 196.222C248.66 200.93 248.977 205.893 248.782 210.686C248.728 212.015 248.918 214.006 248.507 215.212L247.562 214.955C244.405 219.785 243.465 229.15 244.492 234.73C244.704 235.878 245.091 236.615 245.965 237.401C245.624 237.681 245.328 237.975 244.921 238.154C246.116 239.583 246.141 241.616 246.653 243.36C247.207 245.249 247.901 247.158 248.596 249C250.741 254.689 253.557 260.162 256.155 265.652C257.915 268.658 259.683 272.445 261.863 275.092C274.162 289.505 287.183 300.123 304.11 308.693L312.413 313.049C314.624 314.141 316.584 315.006 318.238 316.884L318.448 317.109C325.425 328.32 326.307 339.65 324.27 352.359C324.157 353.062 323.466 356.507 323.737 356.761C324.404 357.386 329.581 358.462 330.695 358.716C334.887 359.671 340.127 360.521 344.425 360.302C345.238 360.842 347.147 361.761 347.372 362.713L347.564 371.729C354.473 372.067 361.397 373.141 366.999 368.146L372.986 361.952L374.474 373.582C371.487 376.3 367.863 379.03 365.521 382.335C362.308 386.869 360.932 393.152 359.715 398.486C358.591 403.411 357.465 408.557 357.211 413.607C357.104 415.733 356.873 418.48 357.397 420.562C357.737 421.914 358.397 423.15 358.767 424.512L358.97 423.75L359.438 423.544C361.331 425.513 363.554 427.078 366.101 428.094C368.793 429.168 372.297 428.88 375.094 428.324C382.328 426.883 388.716 423.813 395.384 420.772C392.206 432.779 391.461 447.448 397.933 458.545C403.457 468.017 413.35 475.257 423.973 477.946C427.597 478.863 431.842 479.496 435.579 479.315C433.226 482.909 431.113 486.402 429.541 490.414C426.644 497.809 425.62 505.912 425.256 513.801C425.079 517.631 424.997 522.048 425.832 525.801L425.943 526.271C427.228 540.56 435.277 554.482 446.179 563.642C456.017 571.909 467.96 577.04 480.581 579.3C485.591 580.197 492.153 580.39 496.535 583.157C498.363 584.312 499.703 586.407 500.485 588.382C500.931 589.506 501.156 590.926 502.128 591.724C500.403 595.4 501.362 598.828 498.649 602.264C495.866 607.046 492.911 612.468 489.526 616.829C502.085 617.627 514.794 615.328 527.317 616.836C529.545 617.105 531.81 617.043 534.029 617.417C541.27 618.634 546.502 622.355 551.069 627.938C554.356 631.956 556.822 636.081 559.059 640.742C560.381 643.71 559.824 647.236 559.522 650.376L574.465 653.093C578.947 654.954 582.653 657.391 584.62 662.008C588.419 670.923 585.654 682.397 583.251 691.312C582.378 694.554 581.639 697.746 580.334 700.852C579.722 702.31 578.805 703.874 578.428 705.387L577.957 705.835C577.939 706.839 577.722 708.355 577.895 709.312C578.26 711.326 581.512 714.803 582.875 716.213L586.203 719.64L592.897 725.778C602.395 734.922 609.381 744.999 615.08 756.891C616.811 760.502 618.661 764.157 619.826 768L602.329 768L595.026 768L443.811 768L427.733 768L408.993 768L373.697 768L300.266 768L274.991 768L244.088 768L234.594 768L241.064 762.635C241.221 758.067 240.75 753.711 239.862 749.232C240.17 746.074 239.126 742.583 238.591 739.47C237.915 735.536 237.481 731.551 236.832 727.606C236.098 723.146 234.816 718.052 235.175 713.51C235.32 711.665 236.123 709.766 236.817 708.061C240.472 699.082 248.524 691.659 255.015 684.68C259.313 680.058 263.557 675.228 268.318 671.079C267.464 669.575 266.93 669.5 265.301 669.283C262.682 668.933 259.976 669.282 257.378 668.775C251.235 667.578 244.758 665.471 238.875 663.356C218.418 656.001 199.519 645.067 182.274 631.88C151.486 608.337 125.538 578.121 107.222 543.949C96.8024 524.51 88.7773 503.443 82.7294 482.254C78.3108 466.772 74.6143 451.028 72.5159 435.04C69.3129 410.636 68.7709 385.736 71.5592 361.264C75.7636 324.364 87.4015 288.215 103.838 255C108.042 246.506 112.773 238.38 117.593 230.225C119.061 227.74 120.226 225.004 121.992 222.72C123.507 219.577 125.792 216.52 127.682 213.576C135.834 200.876 144.919 188.994 154.941 177.716C158.446 173.773 161.849 169.785 165.666 166.134L164.515 169.5C164.858 170.144 164.971 170.465 165.703 170.749C166.651 171.117 168.226 170.99 169.312 171.191C171.689 171.632 174.298 171.391 176.623 172.138C178.655 172.791 180.777 173.196 182.812 173.857L189.209 175.739C190.093 176.006 190.938 176.122 191.813 176.453C192.516 176.719 193.135 176.894 193.873 177.019C195.056 177.22 196.285 177.401 197.438 177.607L198.188 177.941L199.123 178.134L203.085 179.002C203.69 179.109 204.173 179.306 204.75 179.502L209.23 181.144L210.375 181.705L210.957 181.977C211.47 182.227 211.871 182.499 212.321 182.845L227.829 172.33L234.384 167.945Z"/>
	<path fill="#8A0563" transform="scale(0.666667 0.666667)" d="M200.08 235.978C199.048 231.308 202.901 224.352 205.287 220.406C208.463 215.154 218.582 201.44 224.522 199.951C218.576 207.659 211.98 214.923 206.773 223.175C204.199 227.254 202.272 231.691 200.08 235.978Z"/>
	<defs>
		<linearGradient id="gradient_9" gradientUnits="userSpaceOnUse" x1="176.812" y1="209.812" x2="187.571" y2="175.37199">
			<stop offset="0" stop-color="#F4FF4A"/>
			<stop offset="1" stop-color="#F8FF9B"/>
		</linearGradient>
	</defs>
	<path fill="url(#gradient_9)" transform="scale(0.666667 0.666667)" d="M121.992 222.72C123.507 219.577 125.792 216.52 127.682 213.576C135.834 200.876 144.919 188.994 154.941 177.716C158.446 173.773 161.849 169.785 165.666 166.134L164.515 169.5C164.858 170.144 164.971 170.465 165.703 170.749C166.651 171.117 168.226 170.99 169.312 171.191C171.689 171.632 174.298 171.391 176.623 172.138C178.655 172.791 180.777 173.196 182.812 173.857L189.209 175.739C190.093 176.006 190.938 176.122 191.813 176.453C192.516 176.719 193.135 176.894 193.873 177.019C195.056 177.22 196.285 177.401 197.438 177.607L198.188 177.941L199.123 178.134L203.085 179.002C203.69 179.109 204.173 179.306 204.75 179.502L209.23 181.144L210.375 181.705L210.957 181.977C211.47 182.227 211.871 182.499 212.321 182.845C209.583 185.34 206.565 187.863 203.479 189.921C201.726 191.09 199.825 192.027 198.092 193.226C187.355 200.657 175.602 210.61 168.6 221.732C166.968 224.325 157.28 242.397 156.06 242.812C155.908 241.613 156.993 239.939 157.563 238.875C163.17 228.414 168.371 219.154 176.614 210.492C172.922 208.189 169.303 206.809 165.346 205.083C161.529 203.419 157.806 201.659 153.878 200.262C149.698 198.775 145.519 198.031 141.665 195.724C137.93 201.176 134.215 206.665 130.574 212.179C128.307 215.612 125.766 220.427 122.82 223.216L121.992 222.72Z"/>
	<path fill="white" transform="scale(0.666667 0.666667)" d="M224.522 199.951C229.334 195.23 234.899 191.296 239.278 186.143C243.969 180.62 247.281 174.066 252.252 168.761C254.804 166.037 259.267 162.269 263.14 162.127C257.745 168.283 252.578 174.463 247.972 181.244C246.498 183.416 244.523 185.904 243.969 188.514C244.671 190.019 245.285 191.611 246.341 192.906L249.678 196.222C248.66 200.93 248.977 205.893 248.782 210.686C248.728 212.015 248.918 214.006 248.507 215.212L247.562 214.955C244.405 219.785 243.465 229.15 244.492 234.73C244.704 235.878 245.091 236.615 245.965 237.401C245.624 237.681 245.328 237.975 244.921 238.154C246.116 239.583 246.141 241.616 246.653 243.36C247.207 245.249 247.901 247.158 248.596 249C250.741 254.689 253.557 260.162 256.155 265.652C257.915 268.658 259.683 272.445 261.863 275.092C261.446 275.859 260.43 278.342 259.826 278.76C255.53 287.076 246.278 293.311 237.724 296.608L237.53 296.664L236.338 295.884C229.572 290.986 222.533 285.74 214.137 284.201L212.476 289.035C211.732 289.607 210.319 290.43 210.096 291.32L217.957 293.047C216.233 299.421 213.655 305.477 211.85 311.812C210.517 316.492 209.943 321.302 208.979 326.056L208.241 326.393C208.973 326.684 210.149 327.353 210.911 327.318L211.292 327.477C214.833 328.887 222.13 328.516 223.95 332.455L224.294 333.7C226.728 333.331 229.172 332.867 231.637 332.812L231.938 333.574C230.183 335.134 228.407 335.091 226.116 335.239C223.767 335.391 221.863 336.604 219.938 337.867L219.511 338.836L219.537 339.889L219.471 342.061C219.061 343.407 218.603 344.709 218.534 346.126C215.895 347.997 214.213 349.458 212.426 352.194L208.688 350.342L208.202 350.582C207.58 350.873 206.99 351.052 206.332 351.232C205.228 350.292 204.715 348.683 204.127 347.383L202.187 348.545C200.206 351.817 198.908 355.253 197.368 358.733C193.21 368.123 189.661 376.981 188.631 387.313C187.942 394.234 188.24 401.604 186.444 408.348C185.835 410.636 184.853 411.921 182.812 413.091C180.396 413.468 178.165 412.481 176.235 411.066C174.189 409.566 172.169 407.402 171.188 405.041C170.432 405.207 170.236 405.402 169.624 405.826C169.175 406.137 168.707 406.281 168.192 406.442C166.512 404.605 164.31 403.167 162.285 401.743C157.745 398.552 154.842 396.751 149.185 396.163L148.736 396.408C148.462 398.063 154.373 401.712 155.767 403.043C156.914 404.138 157.885 405.427 158.531 406.875L157.823 407.462C154.82 407.235 151.781 405.803 149.142 404.413C144.11 401.76 140.271 397.812 138.632 392.266C137.629 388.874 137.811 385.556 139.152 382.292C142.346 374.517 149.593 368.071 155.424 362.233C162.001 355.648 168.84 349.209 174.853 342.092C179.766 336.278 182.795 329.75 186.336 323.085C187.814 324.021 189.001 324.85 190.112 326.24L192.768 329.583L188.329 309.98C186.473 308.984 184.129 308.666 182.124 307.987C179.932 307.244 178.397 306.044 177.417 303.928C176.045 300.967 177.018 297.387 177.934 294.4C180.477 286.111 186.061 278.678 189.255 270.565C191.316 265.33 192.533 259.832 194.056 254.43C195.817 248.186 197.858 242.071 200.08 235.978C202.272 231.691 204.199 227.254 206.773 223.175C211.98 214.923 218.576 207.659 224.522 199.951Z"/>
	<path fill="#2220F8" transform="scale(0.666667 0.666667)" d="M192.105 337.785C191.054 336.979 189.488 335.809 189.091 334.502C188.93 333.973 189.279 333.761 189.562 333.349C191.928 332.843 193.307 334.88 195.579 334.829C196.654 334.805 196.82 335.198 197.632 335.845C196.033 336.613 193.917 337.805 192.105 337.785Z"/>
	<path fill="#E208F5" transform="scale(0.666667 0.666667)" d="M242.124 236.85L240.333 227.235C239.926 223.632 239.985 219.979 239.98 216.357C239.968 207.206 240.449 200.278 246.341 192.906L249.678 196.222C248.66 200.93 248.977 205.893 248.782 210.686C248.728 212.015 248.918 214.006 248.507 215.212L247.562 214.955C244.405 219.785 243.465 229.15 244.492 234.73C244.704 235.878 245.091 236.615 245.965 237.401C245.624 237.681 245.328 237.975 244.921 238.154L242.124 236.85Z"/>
	<defs>
		<linearGradient id="gradient_10" gradientUnits="userSpaceOnUse" x1="183.562" y1="300.18799" x2="214.27699" y2="294.116">
			<stop offset="0" stop-color="#DE0072"/>
			<stop offset="1" stop-color="#8F00A3"/>
		</linearGradient>
	</defs>
	<path fill="url(#gradient_10)" transform="scale(0.666667 0.666667)" d="M210.096 291.32L209.134 291.463C199.319 293.157 193.971 300.661 188.599 308.247C186.193 306.08 183.834 304.149 182.97 300.868C182.332 298.446 182.574 294.68 183.894 292.538C185.258 290.325 187.811 289.04 190.16 288.129C194.542 286.431 199.33 285.468 203.975 284.812C206.459 284.462 208.973 284.329 211.418 283.739L211.76 283.653L214.137 284.201L212.476 289.035C211.732 289.607 210.319 290.43 210.096 291.32Z"/>
	<path fill="#2F00B2" transform="scale(0.666667 0.666667)" d="M203.665 340.088C204.456 338.998 204.933 337.572 205.602 336.386C206.798 334.262 208.256 332.239 209.706 330.282C208.011 329.371 206.365 328.484 204.811 327.338L204.715 326.625C205.674 326.034 207.107 326.34 208.241 326.393C208.973 326.684 210.149 327.353 210.911 327.318L211.292 327.477C214.833 328.887 222.13 328.516 223.95 332.455L224.294 333.7C226.728 333.331 229.172 332.867 231.637 332.812L231.938 333.574C230.183 335.134 228.407 335.091 226.116 335.239C223.767 335.391 221.863 336.604 219.938 337.867L219.511 338.836L219.537 339.889L219.471 342.061C219.061 343.407 218.603 344.709 218.534 346.126C215.895 347.997 214.213 349.458 212.426 352.194L208.688 350.342L208.202 350.582C207.58 350.873 206.99 351.052 206.332 351.232C205.228 350.292 204.715 348.683 204.127 347.383L202.187 348.545C197.414 348.004 190.955 349.314 187.312 345.493C186.346 344.479 186.569 343.545 186.58 342.252C188.292 342.036 189.804 341.862 191.485 342.355L191.812 342.458L191.812 341.939C190.082 340.628 187.991 340.112 186.193 338.797L186.338 338.193C187.91 337.489 190.379 337.795 192.105 337.785C193.917 337.805 196.033 336.613 197.632 335.845C199.433 337.474 201.635 338.755 203.665 340.088Z"/>
	<path fill="#EF00C3" transform="scale(0.666667 0.666667)" d="M203.665 340.088C204.456 338.998 204.933 337.572 205.602 336.386C206.798 334.262 208.256 332.239 209.706 330.282C208.011 329.371 206.365 328.484 204.811 327.338L204.715 326.625C205.674 326.034 207.107 326.34 208.241 326.393C208.973 326.684 210.149 327.353 210.911 327.318L211.292 327.477C214.833 328.887 222.13 328.516 223.95 332.455L224.294 333.7C221.287 334.618 218.311 335.658 215.296 336.542C211.643 337.613 207.368 338.29 204.562 340.995C203.847 340.402 204.134 340.716 203.665 340.088Z"/>
	<path fill="#05E4FD" transform="scale(0.666667 0.666667)" d="M242.124 236.85L244.921 238.154C246.116 239.583 246.141 241.616 246.653 243.36C247.207 245.249 247.901 247.158 248.596 249C250.741 254.689 253.557 260.162 256.155 265.652C257.915 268.658 259.683 272.445 261.863 275.092C261.446 275.859 260.43 278.342 259.826 278.76C255.53 287.076 246.278 293.311 237.724 296.608L237.53 296.664L236.338 295.884C229.572 290.986 222.533 285.74 214.137 284.201L211.76 283.653C213.34 281.031 215.127 278.546 216.684 275.911C220.361 269.69 223.815 263.311 228.188 257.533C232.743 251.513 238.222 246.421 242.473 240.131L242.124 236.85Z"/>
	<path fill="#03C1FE" transform="scale(0.666667 0.666667)" d="M236.338 295.884L236.697 295.402C240.045 291.102 245.965 290.392 249.905 286.906C252.405 284.695 255.743 279.624 258.96 278.898C259.127 278.86 259.296 278.833 259.465 278.806C259.584 278.787 259.705 278.775 259.826 278.76C255.53 287.076 246.278 293.311 237.724 296.608L237.53 296.664L236.338 295.884Z"/>
	<path fill="#03C1FE" transform="scale(0.666667 0.666667)" d="M242.124 236.85L244.921 238.154C246.116 239.583 246.141 241.616 246.653 243.36C247.207 245.249 247.901 247.158 248.596 249C250.741 254.689 253.557 260.162 256.155 265.652C251.335 264.311 246.243 253.003 244.822 248.358C243.988 245.63 244.059 242.532 242.473 240.131L242.124 236.85Z"/>
	<path fill="#05E4FD" transform="scale(0.666667 0.666667)" d="M149.185 396.163C148.658 396.102 148.347 396.149 147.903 395.808C146.31 394.587 145.032 391.806 144.717 389.855C144.139 386.273 146.929 382.387 149.021 379.687C156.145 370.493 164.669 362.027 172.796 353.723C176.252 350.191 179.715 345.937 183.824 343.175C184.75 342.553 185.489 342.392 186.58 342.252C186.569 343.545 186.346 344.479 187.312 345.493C190.955 349.314 197.414 348.004 202.187 348.545C200.206 351.817 198.908 355.253 197.368 358.733C193.21 368.123 189.661 376.981 188.631 387.313C187.942 394.234 188.24 401.604 186.444 408.348C185.835 410.636 184.853 411.921 182.812 413.091C180.396 413.468 178.165 412.481 176.235 411.066C174.189 409.566 172.169 407.402 171.188 405.041C170.432 405.207 170.236 405.402 169.624 405.826C169.175 406.137 168.707 406.281 168.192 406.442C166.512 404.605 164.31 403.167 162.285 401.743C157.745 398.552 154.842 396.751 149.185 396.163Z"/>
	<path fill="#05E4FD" transform="scale(0.666667 0.666667)" d="M261.863 275.092C274.162 289.505 287.183 300.123 304.11 308.693L312.413 313.049C314.624 314.141 316.584 315.006 318.238 316.884L318.448 317.109C325.425 328.32 326.307 339.65 324.27 352.359C324.157 353.062 323.466 356.507 323.737 356.761C324.404 357.386 329.581 358.462 330.695 358.716C334.887 359.671 340.127 360.521 344.425 360.302C345.238 360.842 347.147 361.761 347.372 362.713L347.564 371.729C354.473 372.067 361.397 373.141 366.999 368.146L372.986 361.952L374.474 373.582C371.487 376.3 367.863 379.03 365.521 382.335C362.308 386.869 360.932 393.152 359.715 398.486C358.591 403.411 357.465 408.557 357.211 413.607C357.104 415.733 356.873 418.48 357.397 420.562C357.737 421.914 358.397 423.15 358.767 424.512C356.007 438.576 351.268 452.083 344.438 464.689C342.069 469.06 339.532 473.497 336.434 477.4C331.341 483.817 324.569 489.668 317.812 494.221C312.465 497.824 306.725 500.758 300.71 503.069C288.867 507.619 276.196 510.1 264.021 513.615C249.007 517.951 234.137 523.562 218.706 526.257C211.589 527.5 204.665 528.025 197.449 528.025C193.997 528.025 190.543 528.084 187.143 527.393L185.907 527.098C182.909 526.441 179.872 526.333 176.861 525.523C173.954 524.74 171.545 523.394 168.987 521.836C165.172 515.029 165.45 506.573 167.104 499.163C168.101 494.695 169.359 490.658 169.069 486.023C168.747 480.893 166.5 475.87 164.684 471.122C162.454 470.821 160.788 469.784 159.035 468.475C158.609 468.162 158.25 467.782 157.954 467.343C156.743 465.543 157.276 462.972 157.597 460.959C158.082 459.025 159.493 456.605 159.702 454.769C159.811 453.812 158.655 452.588 158.104 451.789C155.934 448.644 154.595 446.322 153.513 442.632C152.289 439.316 151.905 435.883 155.062 433.591C157.277 431.983 159.47 431.274 161.17 428.954C162.972 426.497 163.812 423.33 165.051 420.562C166.118 418.178 167.426 415.898 168.397 413.471C169.509 410.692 169.306 409.11 168.192 406.442C168.707 406.281 169.175 406.137 169.624 405.826C170.236 405.402 170.432 405.207 171.188 405.041C172.169 407.402 174.189 409.566 176.235 411.066C178.165 412.481 180.396 413.468 182.812 413.091C184.853 411.921 185.835 410.636 186.444 408.348C188.24 401.604 187.942 394.234 188.631 387.313C189.661 376.981 193.21 368.123 197.368 358.733C198.908 355.253 200.206 351.817 202.187 348.545L204.127 347.383C204.715 348.683 205.228 350.292 206.332 351.232C206.99 351.052 207.58 350.873 208.202 350.582L208.688 350.342L212.426 352.194C214.213 349.458 215.895 347.997 218.534 346.126C218.603 344.709 219.061 343.407 219.471 342.061L219.537 339.889L219.511 338.836L219.938 337.867C221.863 336.604 223.767 335.391 226.116 335.239C228.407 335.091 230.183 335.134 231.938 333.574L231.637 332.812C229.172 332.867 226.728 333.331 224.294 333.7L223.95 332.455C222.13 328.516 214.833 328.887 211.292 327.477L210.911 327.318C210.149 327.353 208.973 326.684 208.241 326.393L208.979 326.056C209.943 321.302 210.517 316.492 211.85 311.812C213.655 305.477 216.233 299.421 217.957 293.047L210.096 291.32C210.319 290.43 211.732 289.607 212.476 289.035L214.137 284.201C222.533 285.74 229.572 290.986 236.338 295.884L237.53 296.664L237.724 296.608C246.278 293.311 255.53 287.076 259.826 278.76C260.43 278.342 261.446 275.859 261.863 275.092Z"/>
	<path fill="white" transform="scale(0.666667 0.666667)" d="M219.511 338.836C221.388 337.888 223.173 337.026 225.188 336.397C226.632 336.778 227.825 336.864 229.319 336.791L229.806 336.763L230.238 337.834C233.834 338.314 237.313 338.308 240.004 341.062C240.702 343.044 240.702 344.971 239.779 346.9C237.213 352.266 228.793 353.998 224.115 357.18C219.705 360.181 216.248 364.153 212.738 368.115C208.65 372.728 203.853 377.513 202.076 383.578C200.769 388.036 201.512 393.146 202.856 397.503L205.799 406.44C197.458 416.234 194.065 429.141 192.724 441.75C192.308 445.661 191.868 449.803 192.159 453.732C192.802 462.412 197.127 470.197 198.508 478.737C199.517 484.98 196.555 489.969 196.488 495.912C196.389 504.62 203.265 513.714 196.389 521.686C194.525 523.846 192.026 525.627 189.195 526.2C188.131 526.416 186.779 526.437 185.907 527.098C182.909 526.441 179.872 526.333 176.861 525.523C173.954 524.74 171.545 523.394 168.987 521.836C165.172 515.029 165.45 506.573 167.104 499.163C168.101 494.695 169.359 490.658 169.069 486.023C168.747 480.893 166.5 475.87 164.684 471.122C162.454 470.821 160.788 469.784 159.035 468.475C158.609 468.162 158.25 467.782 157.954 467.343C156.743 465.543 157.276 462.972 157.597 460.959C158.082 459.025 159.493 456.605 159.702 454.769C159.811 453.812 158.655 452.588 158.104 451.789C155.934 448.644 154.595 446.322 153.513 442.632C152.289 439.316 151.905 435.883 155.062 433.591C157.277 431.983 159.47 431.274 161.17 428.954C162.972 426.497 163.812 423.33 165.051 420.562C166.118 418.178 167.426 415.898 168.397 413.471C169.509 410.692 169.306 409.11 168.192 406.442C168.707 406.281 169.175 406.137 169.624 405.826C170.236 405.402 170.432 405.207 171.188 405.041C172.169 407.402 174.189 409.566 176.235 411.066C178.165 412.481 180.396 413.468 182.812 413.091C184.853 411.921 185.835 410.636 186.444 408.348C188.24 401.604 187.942 394.234 188.631 387.313C189.661 376.981 193.21 368.123 197.368 358.733C198.908 355.253 200.206 351.817 202.187 348.545L204.127 347.383C204.715 348.683 205.228 350.292 206.332 351.232C206.99 351.052 207.58 350.873 208.202 350.582L208.688 350.342L212.426 352.194C214.213 349.458 215.895 347.997 218.534 346.126C218.603 344.709 219.061 343.407 219.471 342.061L219.537 339.889L219.511 338.836Z"/>
	<path fill="#7206B7" transform="scale(0.666667 0.666667)" d="M219.537 339.889C222.24 340.126 225.014 340.25 227.67 340.807C224.183 342.572 223.312 343.148 219.471 342.061L219.537 339.889Z"/>
	<path fill="#2220F8" transform="scale(0.666667 0.666667)" d="M219.511 338.836C221.388 337.888 223.173 337.026 225.188 336.397C226.632 336.778 227.825 336.864 229.319 336.791L229.806 336.763L230.238 337.834L228.938 338.075L228.589 338.625L228.99 340.312C228.376 340.781 228.538 340.775 227.67 340.807C225.014 340.25 222.24 340.126 219.537 339.889L219.511 338.836Z"/>
	<path fill="#9003FE" transform="scale(0.666667 0.666667)" d="M175.096 447.051L188.837 454.033L182.52 456.013C179.925 453.384 176.628 451.77 173.718 449.542C173.642 448.288 174.291 447.972 175.096 447.051Z"/>
	<path fill="#EF00C3" transform="scale(0.666667 0.666667)" d="M153.513 442.632C158.032 440.704 160.348 440.556 164.969 442.376L175.096 447.051C174.291 447.972 173.642 448.288 173.718 449.542C176.628 451.77 179.925 453.384 182.52 456.013C177.253 458.716 173.396 462.487 169.222 466.615C167.784 468.036 166.28 469.918 164.684 471.122C162.454 470.821 160.788 469.784 159.035 468.475C158.609 468.162 158.25 467.782 157.954 467.343C156.743 465.543 157.276 462.972 157.597 460.959C158.082 459.025 159.493 456.605 159.702 454.769C159.811 453.812 158.655 452.588 158.104 451.789C155.934 448.644 154.595 446.322 153.513 442.632Z"/>
	<path fill="#E208F5" transform="scale(0.666667 0.666667)" d="M157.597 460.959L157.737 462.188L158.438 462.295L158.941 461.805C160.184 460.686 162.443 460.405 164.053 460.54C165.366 460.651 166.418 461.195 167.275 462.188C167.055 464.302 165.125 466.437 163.762 468.01C162.1 467.864 160.507 467.5 159.035 468.475C158.609 468.162 158.25 467.782 157.954 467.343C156.743 465.543 157.276 462.972 157.597 460.959Z"/>
	<path fill="#FF6C8B" transform="scale(0.666667 0.666667)" d="M261.863 275.092C274.162 289.505 287.183 300.123 304.11 308.693L312.413 313.049C314.624 314.141 316.584 315.006 318.238 316.884L318.448 317.109C325.425 328.32 326.307 339.65 324.27 352.359C324.157 353.062 323.466 356.507 323.737 356.761C324.404 357.386 329.581 358.462 330.695 358.716C334.887 359.671 340.127 360.521 344.425 360.302C345.238 360.842 347.147 361.761 347.372 362.713L347.564 371.729C341.535 371.711 335.51 371.683 329.485 371.454C326.953 371.359 324.422 371.259 321.893 371.125C320.562 371.054 319.067 370.807 317.755 371.081C314.497 376.863 312.035 383.025 308.835 388.832C299.616 405.561 285.951 421.55 266.945 426.915C252.805 430.907 236.388 430.018 223.484 422.721C216.544 418.797 210.011 413.249 205.799 406.44L202.856 397.503C201.512 393.146 200.769 388.036 202.076 383.578C203.853 377.513 208.65 372.728 212.738 368.115C216.248 364.153 219.705 360.181 224.115 357.18C228.793 353.998 237.213 352.266 239.779 346.9C240.702 344.971 240.702 343.044 240.004 341.062C237.313 338.308 233.834 338.314 230.238 337.834L229.806 336.763L229.319 336.791C227.825 336.864 226.632 336.778 225.188 336.397C223.173 337.026 221.388 337.888 219.511 338.836L219.938 337.867C221.863 336.604 223.767 335.391 226.116 335.239C228.407 335.091 230.183 335.134 231.938 333.574L231.637 332.812C229.172 332.867 226.728 333.331 224.294 333.7L223.95 332.455C222.13 328.516 214.833 328.887 211.292 327.477L210.911 327.318C210.149 327.353 208.973 326.684 208.241 326.393L208.979 326.056C209.943 321.302 210.517 316.492 211.85 311.812C213.655 305.477 216.233 299.421 217.957 293.047L210.096 291.32C210.319 290.43 211.732 289.607 212.476 289.035L214.137 284.201C222.533 285.74 229.572 290.986 236.338 295.884L237.53 296.664L237.724 296.608C246.278 293.311 255.53 287.076 259.826 278.76C260.43 278.342 261.446 275.859 261.863 275.092Z"/>
	<path fill="#FE0070" transform="scale(0.666667 0.666667)" d="M210.911 327.318C216.848 327.905 222.363 329.478 228.188 330.427C231.979 331.045 235.966 330.945 239.812 331.402C237.076 333.513 234.011 334.719 230.627 335.316L229.806 336.763L229.319 336.791C227.825 336.864 226.632 336.778 225.188 336.397C223.173 337.026 221.388 337.888 219.511 338.836L219.938 337.867C221.863 336.604 223.767 335.391 226.116 335.239C228.407 335.091 230.183 335.134 231.938 333.574L231.637 332.812C229.172 332.867 226.728 333.331 224.294 333.7L223.95 332.455C222.13 328.516 214.833 328.887 211.292 327.477L210.911 327.318Z"/>
	<path fill="#2220F8" transform="scale(0.666667 0.666667)" d="M214.137 284.201C222.533 285.74 229.572 290.986 236.338 295.884L237.53 296.664L247.524 303.244C245.861 303.047 244.091 302.286 242.504 301.751C238.452 300.383 234.522 298.672 230.55 297.091C226.397 295.439 222.299 294.11 217.957 293.047L210.096 291.32C210.319 290.43 211.732 289.607 212.476 289.035L214.137 284.201Z"/>
	<path fill="#03C1FE" transform="scale(0.666667 0.666667)" d="M358.767 424.512L358.97 423.75L359.438 423.544C361.331 425.513 363.554 427.078 366.101 428.094C368.793 429.168 372.297 428.88 375.094 428.324C382.328 426.883 388.716 423.813 395.384 420.772C392.206 432.779 391.461 447.448 397.933 458.545C403.457 468.017 413.35 475.257 423.973 477.946C427.597 478.863 431.842 479.496 435.579 479.315C433.226 482.909 431.113 486.402 429.541 490.414C426.644 497.809 425.62 505.912 425.256 513.801C425.079 517.631 424.997 522.048 425.832 525.801L425.943 526.271C427.228 540.56 435.277 554.482 446.179 563.642C456.017 571.909 467.96 577.04 480.581 579.3C485.591 580.197 492.153 580.39 496.535 583.157C498.363 584.312 499.703 586.407 500.485 588.382C500.931 589.506 501.156 590.926 502.128 591.724C500.403 595.4 501.362 598.828 498.649 602.264C495.866 607.046 492.911 612.468 489.526 616.829C502.085 617.627 514.794 615.328 527.317 616.836C529.545 617.105 531.81 617.043 534.029 617.417C541.27 618.634 546.502 622.355 551.069 627.938C554.356 631.956 556.822 636.081 559.059 640.742C560.381 643.71 559.824 647.236 559.522 650.376L574.465 653.093C578.947 654.954 582.653 657.391 584.62 662.008C588.419 670.923 585.654 682.397 583.251 691.312C582.378 694.554 581.639 697.746 580.334 700.852C579.722 702.31 578.805 703.874 578.428 705.387L577.957 705.835C577.939 706.839 577.722 708.355 577.895 709.312C578.26 711.326 581.512 714.803 582.875 716.213L586.203 719.64L592.897 725.778C602.395 734.922 609.381 744.999 615.08 756.891C616.811 760.502 618.661 764.157 619.826 768L602.329 768L595.026 768L443.811 768L427.733 768L408.993 768L373.697 768L300.266 768L274.991 768L244.088 768L234.594 768L241.064 762.635C241.221 758.067 240.75 753.711 239.862 749.232C240.17 746.074 239.126 742.583 238.591 739.47C237.915 735.536 237.481 731.551 236.832 727.606C236.098 723.146 234.816 718.052 235.175 713.51C235.32 711.665 236.123 709.766 236.817 708.061C240.472 699.082 248.524 691.659 255.015 684.68C259.313 680.058 263.557 675.228 268.318 671.079C274.795 666.639 279.938 661.069 285.857 655.97C297.925 645.575 311.505 635.888 325.848 628.935L326.086 628.699C326.721 625.512 325.761 621.267 325.386 618.004C322.938 596.7 316.752 577.39 308.066 557.827C306.361 555.586 303.921 553.816 301.623 552.225C295.907 548.267 289.152 545.866 282.41 544.357C266.472 540.789 249.853 541.525 233.625 541.033C225.972 540.8 218.19 540.34 210.562 539.636C200.77 538.732 190.664 537.632 181.631 533.459C176.366 531.027 171.079 527.523 168.987 521.836C171.545 523.394 173.954 524.74 176.861 525.523C179.872 526.333 182.909 526.441 185.907 527.098L187.143 527.393C190.543 528.084 193.997 528.025 197.449 528.025C204.665 528.025 211.589 527.5 218.706 526.257C234.137 523.562 249.007 517.951 264.021 513.615C276.196 510.1 288.867 507.619 300.71 503.069C306.725 500.758 312.465 497.824 317.812 494.221C324.569 489.668 331.341 483.817 336.434 477.4C339.532 473.497 342.069 469.06 344.438 464.689C351.268 452.083 356.007 438.576 358.767 424.512Z"/>
	<path fill="#2F00B2" transform="scale(0.666667 0.666667)" d="M434.107 719.333C436.326 720.981 437.361 721.89 438.332 724.5L438.495 724.893C439.527 727.516 439.06 731.361 438.976 734.121C438.928 735.679 436.425 737.504 436.561 738.557C436.678 739.459 437.441 740.288 437.962 741.01L408.993 768L373.697 768C391.808 748.81 412.017 733.621 434.107 719.333Z"/>
	<path fill="#EF00C3" transform="scale(0.666667 0.666667)" d="M434.107 719.333L434.13 719.304C449.238 709.164 465.757 701.243 482.9 695.215C500.019 689.195 517.231 685.126 535.423 684.418C548.297 683.918 564.598 684.762 572.918 696.116C574.894 698.812 575.771 703.04 578.117 705.125L578.428 705.387L577.957 705.835C577.939 706.839 577.722 708.355 577.895 709.312C578.26 711.326 581.512 714.803 582.875 716.213L586.203 719.64L592.897 725.778C602.395 734.922 609.381 744.999 615.08 756.891C616.811 760.502 618.661 764.157 619.826 768L602.329 768L595.026 768L443.811 768L427.733 768L408.993 768L437.962 741.01C437.441 740.288 436.678 739.459 436.561 738.557C436.425 737.504 438.928 735.679 438.976 734.121C439.06 731.361 439.527 727.516 438.495 724.893L438.332 724.5C437.361 721.89 436.326 720.981 434.107 719.333Z"/>
	<path fill="white" transform="scale(0.666667 0.666667)" d="M427.733 768C431.505 763.284 435.569 758.802 439.592 754.3C449.167 743.586 460.645 731.464 475.75 729.795L476.062 729.765L476.688 730.312C476.483 732.202 475.627 733.578 474.433 735.032C469.926 740.521 463.996 744.851 458.974 749.846C453.392 755.397 448.678 761.831 443.811 768L427.733 768Z"/>
	<path fill="#2220F8" transform="scale(0.666667 0.666667)" d="M434.107 719.333L434.13 719.304C449.238 709.164 465.757 701.243 482.9 695.215C500.019 689.195 517.231 685.126 535.423 684.418C548.297 683.918 564.598 684.762 572.918 696.116C574.894 698.812 575.771 703.04 578.117 705.125L578.428 705.387L577.957 705.835C577.939 706.839 577.722 708.355 577.895 709.312C578.26 711.326 581.512 714.803 582.875 716.213L586.203 719.64L592.897 725.778C602.395 734.922 609.381 744.999 615.08 756.891C616.811 760.502 618.661 764.157 619.826 768L602.329 768L595.026 768C591.992 758.448 588.725 748.736 583.947 739.899C581.2 734.82 577.708 730.1 574.135 725.575C564.394 713.241 551.457 701.408 535.172 699.618C526.926 698.712 518.787 699.805 510.75 701.638C492.477 705.804 475.163 714.242 459.595 724.573C452.117 729.535 444.931 735.362 437.962 741.01C437.441 740.288 436.678 739.459 436.561 738.557C436.425 737.504 438.928 735.679 438.976 734.121C439.06 731.361 439.527 727.516 438.495 724.893L438.332 724.5C437.361 721.89 436.326 720.981 434.107 719.333Z"/>
	<path fill="#8503FF" transform="scale(0.666667 0.666667)" d="M585.043 721.626C582.754 717.592 577.2 714.533 576.071 709.875C576.211 709.095 576.281 708.369 576.789 707.732C577.14 707.291 577.344 707.014 577.606 706.514L577.957 705.835C577.939 706.839 577.722 708.355 577.895 709.312C578.26 711.326 581.512 714.803 582.875 716.213L586.203 719.64C585.626 720.295 585.438 720.706 585.229 721.552L585.043 721.626Z"/>
	<path fill="#9003FE" transform="scale(0.666667 0.666667)" d="M586.203 719.64L592.897 725.778L592.481 725.732C590.757 725.503 589.645 724.905 588.188 723.994L587.331 724.192C586.979 725.436 587.577 726.53 588.006 727.688L587.812 728.589L587.207 728.87C586.287 729.327 585.918 730.034 585.371 730.854L585.107 731.234C583.884 729.701 580.45 726.681 580.457 724.875C581.534 723.855 582.053 724.106 583.5 724.073C584.202 723.352 584.59 722.51 585.043 721.626L585.229 721.552C585.438 720.706 585.626 720.295 586.203 719.64Z"/>
	<path fill="#E208F5" transform="scale(0.666667 0.666667)" d="M585.107 731.234L585.371 730.854C585.918 730.034 586.287 729.327 587.207 728.87L587.812 728.589L588.006 727.688C587.577 726.53 586.979 725.436 587.331 724.192L588.188 723.994C589.645 724.905 590.757 725.503 592.481 725.732L592.897 725.778C602.395 734.922 609.381 744.999 615.08 756.891C616.811 760.502 618.661 764.157 619.826 768L602.329 768C599.361 759.655 596.26 751.32 592.167 743.449C589.989 739.26 587.347 735.381 585.107 731.234Z"/>
	<path fill="#0196FF" transform="scale(0.666667 0.666667)" d="M308.86 557.635C314.632 560.625 319.291 564.487 324.153 568.722C336.301 579.303 346.519 592.051 356.187 604.877C361.845 612.383 367.487 619.855 372.017 628.125C376.589 636.474 379.757 645.863 383.234 654.731C385.219 653.4 387.587 652.389 389.691 651.215C393.392 649.149 396.908 646.919 400.975 645.589C402.841 644.33 404.683 642.964 406.614 641.812C408.677 640.582 410.994 639.634 412.82 638.062L412.44 636.869L415.125 636.099C416.786 635.305 418.49 634.823 420.352 634.68C419.851 635.395 419.961 635.011 419.961 635.812C424.196 637.118 456.606 624.308 463.169 622.449C471.764 620.014 480.648 617.847 489.526 616.829C502.085 617.627 514.794 615.328 527.317 616.836C529.545 617.105 531.81 617.043 534.029 617.417C541.27 618.634 546.502 622.355 551.069 627.938C554.356 631.956 556.822 636.081 559.059 640.742C560.381 643.71 559.824 647.236 559.522 650.376L545.405 649.067L536.772 648.835C502.362 649.613 469.616 660.483 438.66 674.882C408.851 688.748 380.177 705.735 353.614 725.127C342.382 733.327 331.343 741.864 320.625 750.731C313.77 756.402 307.125 762.332 300.266 768L274.991 768L244.088 768L234.594 768L241.064 762.635C241.221 758.067 240.75 753.711 239.862 749.232C240.17 746.074 239.126 742.583 238.591 739.47C237.915 735.536 237.481 731.551 236.832 727.606C236.098 723.146 234.816 718.052 235.175 713.51C235.32 711.665 236.123 709.766 236.817 708.061C240.472 699.082 248.524 691.659 255.015 684.68C259.313 680.058 263.557 675.228 268.318 671.079C274.795 666.639 279.938 661.069 285.857 655.97C297.925 645.575 311.505 635.888 325.848 628.935L326.086 628.699C326.721 625.512 325.761 621.267 325.386 618.004C322.938 596.7 316.752 577.39 308.066 557.827L308.86 557.635Z"/>
	<path fill="#2220F8" transform="scale(0.666667 0.666667)" d="M473.543 628.606C476.162 627.364 479.718 627.276 482.59 627.008C493.78 625.963 505.908 625.71 517.049 627.368C518.081 627.541 519.272 627.565 520.059 628.312C520.617 631.709 519.033 633.508 521.513 636.497L523.856 636.957L515.786 637.453L491.714 641.332L491.926 640.693L511.856 636.943C508.974 634.299 506.888 629.717 503.044 628.53L502.562 628.384C497.889 626.796 492.03 628.031 487.125 627.963C484.879 627.932 482.775 627.598 480.502 627.755C478.171 627.917 475.891 628.445 473.543 628.606Z"/>
	<path fill="#E208F5" transform="scale(0.666667 0.666667)" d="M489.526 616.829C502.085 617.627 514.794 615.328 527.317 616.836C529.545 617.105 531.81 617.043 534.029 617.417C541.27 618.634 546.502 622.355 551.069 627.938C554.356 631.956 556.822 636.081 559.059 640.742C560.381 643.71 559.824 647.236 559.522 650.376L545.405 649.067L542.38 648.585C542.264 647.667 542.097 646.707 542.303 645.795C542.482 644.998 542.68 644.429 542.612 643.588C542.39 640.847 541.905 640.247 539.813 638.573C538.764 637.452 537.618 637.437 536.165 637.1C532.289 636.303 527.707 635.874 523.856 636.957L521.513 636.497C519.033 633.508 520.617 631.709 520.059 628.312C519.272 627.565 518.081 627.541 517.049 627.368C505.908 625.71 493.78 625.963 482.59 627.008C479.718 627.276 476.162 627.364 473.543 628.606C469.544 629.318 465.58 630.576 461.625 631.529C450.721 634.154 439.884 636.89 429.089 639.938C422.761 641.724 416.464 643.79 410.016 645.098C407.947 645.517 402.729 646.693 400.975 645.589C402.841 644.33 404.683 642.964 406.614 641.812C408.677 640.582 410.994 639.634 412.82 638.062L412.44 636.869L415.125 636.099C416.786 635.305 418.49 634.823 420.352 634.68C419.851 635.395 419.961 635.011 419.961 635.812C424.196 637.118 456.606 624.308 463.169 622.449C471.764 620.014 480.648 617.847 489.526 616.829Z"/>
	<path fill="#9003FE" transform="scale(0.666667 0.666667)" d="M517.049 627.368C522.572 627.384 529.962 627.178 534.101 631.344C535.632 632.885 537.225 634.662 538.247 636.578L540.224 637.077L536.165 637.1C532.289 636.303 527.707 635.874 523.856 636.957L521.513 636.497C519.033 633.508 520.617 631.709 520.059 628.312C519.272 627.565 518.081 627.541 517.049 627.368Z"/>
	<path fill="#0060FE" transform="scale(0.666667 0.666667)" d="M536.165 637.1L540.224 637.077C543.705 637.443 547.056 637.972 550.455 638.812C553.331 639.524 556.088 640.49 559.059 640.742C560.381 643.71 559.824 647.236 559.522 650.376L545.405 649.067L542.38 648.585C542.264 647.667 542.097 646.707 542.303 645.795C542.482 644.998 542.68 644.429 542.612 643.588C542.39 640.847 541.905 640.247 539.813 638.573C538.764 637.452 537.618 637.437 536.165 637.1Z"/>
	<defs>
		<linearGradient id="gradient_11" gradientUnits="userSpaceOnUse" x1="353.06201" y1="708.18799" x2="375.57101" y2="745.03003">
			<stop offset="0" stop-color="#00B478"/>
			<stop offset="1" stop-color="#00A2A4"/>
		</linearGradient>
	</defs>
	<path fill="url(#gradient_11)" transform="scale(0.666667 0.666667)" d="M523.856 636.957C527.707 635.874 532.289 636.303 536.165 637.1C537.618 637.437 538.764 637.452 539.813 638.573C541.905 640.247 542.39 640.847 542.612 643.588C542.68 644.429 542.482 644.998 542.303 645.795C542.097 646.707 542.264 647.667 542.38 648.585L545.405 649.067L536.772 648.835C502.362 649.613 469.616 660.483 438.66 674.882C408.851 688.748 380.177 705.735 353.614 725.127C342.382 733.327 331.343 741.864 320.625 750.731C313.77 756.402 307.125 762.332 300.266 768L274.991 768C287.216 758.102 300.745 749.865 313.063 740.099C323.15 732.103 333.275 724.126 343.234 715.972C346.506 713.293 349.31 709.794 352.8 707.438C354.975 705.968 357.68 705.237 360.07 704.158C363.824 702.463 367.668 700.423 371.227 698.354C384.914 690.399 398.382 682.068 412.291 674.502C423.349 668.486 434.705 663.124 446.152 657.898C460.003 651.573 474.271 645.65 489.164 642.233C489.865 642.072 490.468 641.939 491.119 641.627L491.714 641.332L515.786 637.453L523.856 636.957Z"/>
	<path fill="#0196FF" transform="scale(0.666667 0.666667)" d="M523.856 636.957C527.707 635.874 532.289 636.303 536.165 637.1C537.618 637.437 538.764 637.452 539.813 638.573C538.712 639.172 538.067 639.528 536.771 639.377C535.559 639.236 534.293 639.307 533.072 639.308C530.009 639.51 526.888 639.005 523.836 638.746C520.986 638.504 518.45 638.661 515.786 637.453L523.856 636.957Z"/>
	<path fill="#0089DA" transform="scale(0.666667 0.666667)" d="M533.072 639.308C534.293 639.307 535.559 639.236 536.771 639.377C538.067 639.528 538.712 639.172 539.813 638.573C541.905 640.247 542.39 640.847 542.612 643.588C542.68 644.429 542.482 644.998 542.303 645.795C542.097 646.707 542.264 647.667 542.38 648.585L545.405 649.067L536.772 648.835C536.602 644.748 535.277 642.63 533.072 639.308Z"/>
	<path fill="white" transform="scale(0.666667 0.666667)" d="M308.86 557.635C314.632 560.625 319.291 564.487 324.153 568.722C336.301 579.303 346.519 592.051 356.187 604.877C361.845 612.383 367.487 619.855 372.017 628.125C376.589 636.474 379.757 645.863 383.234 654.731C373.683 660.071 364.904 666.487 355.823 672.554C333.521 687.453 311.991 702.579 292.335 720.926C275.935 736.234 260.829 753.081 244.088 768L234.594 768L241.064 762.635C241.221 758.067 240.75 753.711 239.862 749.232C240.17 746.074 239.126 742.583 238.591 739.47C237.915 735.536 237.481 731.551 236.832 727.606C236.098 723.146 234.816 718.052 235.175 713.51C235.32 711.665 236.123 709.766 236.817 708.061C240.472 699.082 248.524 691.659 255.015 684.68C259.313 680.058 263.557 675.228 268.318 671.079C274.795 666.639 279.938 661.069 285.857 655.97C297.925 645.575 311.505 635.888 325.848 628.935L326.086 628.699C326.721 625.512 325.761 621.267 325.386 618.004C322.938 596.7 316.752 577.39 308.066 557.827L308.86 557.635Z"/>
	<path fill="#03C1FE" transform="scale(0.666667 0.666667)" d="M325.848 628.935C327.015 631.08 326.714 634.454 326.574 636.854C326.383 642.67 326.091 648.454 325.014 654.188C321.636 672.171 312.679 688.92 300.883 702.776C294.034 710.822 286.086 718.27 278.643 725.793C268.322 736.225 258.245 746.916 247.875 757.298C245.788 759.237 243.557 761.235 241.064 762.635C241.221 758.067 240.75 753.711 239.862 749.232C240.17 746.074 239.126 742.583 238.591 739.47C237.915 735.536 237.481 731.551 236.832 727.606C236.098 723.146 234.816 718.052 235.175 713.51C235.32 711.665 236.123 709.766 236.817 708.061C240.472 699.082 248.524 691.659 255.015 684.68C259.313 680.058 263.557 675.228 268.318 671.079C274.795 666.639 279.938 661.069 285.857 655.97C297.925 645.575 311.505 635.888 325.848 628.935Z"/>
	<path fill="#05E4FD" transform="scale(0.666667 0.666667)" d="M325.848 628.935C327.015 631.08 326.714 634.454 326.574 636.854C322.985 636.827 317.48 641.664 314.513 643.748C301.399 652.96 288.847 662.511 277.413 673.783C270.141 680.952 263.339 688.271 256.67 696C252.527 700.801 247.852 705.838 245.34 711.722C244.314 714.124 244.137 716.382 244.116 718.951C244.047 727.531 244.847 736.029 245.685 744.554C246.057 748.335 246.187 753.902 247.875 757.298C245.788 759.237 243.557 761.235 241.064 762.635C241.221 758.067 240.75 753.711 239.862 749.232C240.17 746.074 239.126 742.583 238.591 739.47C237.915 735.536 237.481 731.551 236.832 727.606C236.098 723.146 234.816 718.052 235.175 713.51C235.32 711.665 236.123 709.766 236.817 708.061C240.472 699.082 248.524 691.659 255.015 684.68C259.313 680.058 263.557 675.228 268.318 671.079C274.795 666.639 279.938 661.069 285.857 655.97C297.925 645.575 311.505 635.888 325.848 628.935Z"/>
	<path fill="#EF00C3" transform="scale(0.666667 0.666667)" d="M358.767 424.512L358.97 423.75L359.438 423.544C361.331 425.513 363.554 427.078 366.101 428.094C368.793 429.168 372.297 428.88 375.094 428.324C382.328 426.883 388.716 423.813 395.384 420.772C392.206 432.779 391.461 447.448 397.933 458.545C403.457 468.017 413.35 475.257 423.973 477.946C427.597 478.863 431.842 479.496 435.579 479.315C433.226 482.909 431.113 486.402 429.541 490.414C426.644 497.809 425.62 505.912 425.256 513.801C425.079 517.631 424.997 522.048 425.832 525.801L425.943 526.271C427.228 540.56 435.277 554.482 446.179 563.642C456.017 571.909 467.96 577.04 480.581 579.3C485.591 580.197 492.153 580.39 496.535 583.157C498.363 584.312 499.703 586.407 500.485 588.382C500.931 589.506 501.156 590.926 502.128 591.724C500.403 595.4 501.362 598.828 498.649 602.264C495.866 607.046 492.911 612.468 489.526 616.829C480.648 617.847 471.764 620.014 463.169 622.449C456.606 624.308 424.196 637.118 419.961 635.812C419.961 635.011 419.851 635.395 420.352 634.68C418.49 634.823 416.786 635.305 415.125 636.099L412.44 636.869L412.82 638.062C410.994 639.634 408.677 640.582 406.614 641.812C404.683 642.964 402.841 644.33 400.975 645.589C396.908 646.919 393.392 649.149 389.691 651.215C387.587 652.389 385.219 653.4 383.234 654.731C379.757 645.863 376.589 636.474 372.017 628.125C367.487 619.855 361.845 612.383 356.187 604.877C346.519 592.051 336.301 579.303 324.153 568.722C319.291 564.487 314.632 560.625 308.86 557.635L308.066 557.827C306.361 555.586 303.921 553.816 301.623 552.225C295.907 548.267 289.152 545.866 282.41 544.357C266.472 540.789 249.853 541.525 233.625 541.033C225.972 540.8 218.19 540.34 210.562 539.636C200.77 538.732 190.664 537.632 181.631 533.459C176.366 531.027 171.079 527.523 168.987 521.836C171.545 523.394 173.954 524.74 176.861 525.523C179.872 526.333 182.909 526.441 185.907 527.098L187.143 527.393C190.543 528.084 193.997 528.025 197.449 528.025C204.665 528.025 211.589 527.5 218.706 526.257C234.137 523.562 249.007 517.951 264.021 513.615C276.196 510.1 288.867 507.619 300.71 503.069C306.725 500.758 312.465 497.824 317.812 494.221C324.569 489.668 331.341 483.817 336.434 477.4C339.532 473.497 342.069 469.06 344.438 464.689C351.268 452.083 356.007 438.576 358.767 424.512Z"/>
	<path fill="#03C1FE" transform="scale(0.666667 0.666667)" d="M420.352 634.68C423.121 633.701 425.622 632.19 428.212 630.823C431.696 628.984 435.231 627.24 438.767 625.502C454.189 617.922 469.621 611.259 486 606.014C490.119 604.694 494.391 603.02 498.649 602.264C495.866 607.046 492.911 612.468 489.526 616.829C480.648 617.847 471.764 620.014 463.169 622.449C456.606 624.308 424.196 637.118 419.961 635.812C419.961 635.011 419.851 635.395 420.352 634.68Z"/>
	<path fill="#05E4FD" transform="scale(0.666667 0.666667)" d="M308.86 557.635C311.177 556.359 313.784 555.738 316.312 555.019C320.75 553.757 326.543 551.826 331.128 553.195C336.641 554.841 341.136 558.784 345.791 562.002C349.965 564.887 354.333 567.582 358.335 570.701C372.996 582.129 384.873 597.048 395.221 612.375C399.695 619.002 403.759 626.027 408.634 632.37C409.763 633.839 410.994 635.764 412.44 636.869L412.82 638.062C410.994 639.634 408.677 640.582 406.614 641.812C404.683 642.964 402.841 644.33 400.975 645.589C396.908 646.919 393.392 649.149 389.691 651.215C387.587 652.389 385.219 653.4 383.234 654.731C379.757 645.863 376.589 636.474 372.017 628.125C367.487 619.855 361.845 612.383 356.187 604.877C346.519 592.051 336.301 579.303 324.153 568.722C319.291 564.487 314.632 560.625 308.86 557.635Z"/>
</svg>
