<?xml version="1.0" encoding="utf-8" ?>
<svg xmlns="http://www.w3.org/2000/svg" xmlns:xlink="http://www.w3.org/1999/xlink" width="512" height="512">
	<defs>
		<linearGradient id="gradient_0" gradientUnits="userSpaceOnUse" x1="41.75" y1="594.75" x2="232.45" y2="559.11499">
			<stop offset="0" stop-color="#FF00B7"/>
			<stop offset="1" stop-color="#6744FF"/>
		</linearGradient>
	</defs>
	<path fill="url(#gradient_0)" transform="scale(0.5 0.5)" d="M100.783 277.635C101.675 277.135 102.483 276.727 103.234 276.022C104.432 279.854 103.627 284.107 103.258 288.002C102.872 292.074 103.231 296.586 102.421 300.593C101.87 303.319 102.543 306.052 102.754 308.753C103.251 315.091 103.789 321.428 105.568 327.58C106.243 329.914 106.181 332.234 106.442 334.613C106.676 336.739 107.273 338.825 107.551 340.944C107.849 343.211 107.789 345.464 108.171 347.733L108.345 349.411C108.501 351.372 109.099 353.274 109.484 355.201C109.645 356.004 109.869 356.667 110.106 357.437C110.711 359.396 110.83 361.502 111.431 363.477C113.226 369.37 117.208 375.414 120.729 380.394C122.453 382.831 123.683 385.431 125.596 387.787C127.203 389.766 128.488 392.989 128.742 395.501L129 395.75L129.125 394.125L129.518 394.5C129.263 400.279 129.952 405.328 130.317 411.012C130.406 412.397 130.839 413.683 131.25 415C131.612 413.576 131.582 412.117 131.625 410.656C133.473 416.402 131.815 423.322 132.938 429.221C133.654 475.085 133.524 520.919 133.571 566.785C133.585 580.159 133.523 593.532 133.482 606.905C133.458 614.731 133.061 622.824 133.759 630.617C134.016 633.483 134.434 635.972 136.639 638.01C138.763 639.974 142.051 641.708 145.007 641.544C146.599 641.456 148.141 640.921 149.638 640.409C154.558 639.942 159.622 638.302 164.378 636.983C171.934 634.887 179.577 632.648 187.266 631.12L188.152 631.351C189.951 631.722 192.087 630.904 193.829 630.438C199.344 628.963 205.857 625.954 211.251 628.541L212.571 629.146C213.725 635.062 207.108 638.981 206.758 644.043C206.658 645.477 205.94 646.753 205.268 648.004C204.078 650.22 203.906 652.938 203.207 655.347C202.615 657.387 202.837 658.954 202.565 660.949C202.265 663.149 201.506 665.458 201.679 667.693C201.883 670.331 202.88 672.542 202.75 675.255C201.526 675.255 201.584 675.186 200.5 675.755C199.753 676.147 198.477 676.218 197.625 676.503L194.46 677.371C193.869 677.518 193.421 677.809 192.906 678.119L193.118 678.717C179.029 683.101 148.989 690.194 142.076 703.546C139.393 708.727 138.69 714.598 137.747 720.277C136.572 727.344 135.522 734.413 134.482 741.5C133.219 750.102 131.864 758.745 130.936 767.39C130.477 771.669 129.762 777.586 131.087 781.65C132.515 786.029 135.285 789.457 139.567 791.331C143.773 793.171 148.895 793.616 153.423 793.039C160.372 792.154 167.405 789.057 174.076 786.985C187.287 782.883 200.412 778.835 213.766 775.193C217.237 774.247 222.804 771.996 226.307 772.084C229.485 772.449 232.33 771.399 235.417 770.75C238.245 770.156 241.115 769.861 243.93 769.179C244.704 768.991 245.027 768.844 245.82 769.031L246.304 769.179C248.866 767.915 251.021 768.101 253.633 767.31L254.089 767.167C255.118 767.455 256.184 767.837 257.25 767.497C258.413 767.126 259.034 766.238 260.367 766.26C263.018 766.303 263.921 766.404 266.455 765.169L267.25 765.478C268.332 765.881 269.273 765.909 270.417 765.947L271.303 767.257C266.85 773.505 256.751 773.939 250.5 778.221L248.633 779.152C247.531 778.003 247.075 777.189 245.503 776.816L245.133 777.202C244.387 777.972 243.828 778.542 242.902 779.088C241.552 779.886 240.978 781.356 239.534 782.321C238.551 782.978 238.206 783.888 237.452 784.667L236.353 785.482C235.663 786.049 235.476 786.836 235.167 787.639C234.416 787.954 234.244 787.905 233.768 788.602C232.873 789.915 232.234 790.501 231.081 791.525L230.018 792.776C228.603 794.45 226.968 795.979 225.621 797.709C223.999 799.792 223.244 802.036 221.268 803.94L220.907 805.497C222.643 805.616 224.108 804.378 225.378 803.268C226.456 802.324 227.264 801.579 227.99 800.344C228.503 799.472 228.625 799.288 229.509 798.883C229.826 801.361 227.111 804.062 225.836 806.09C223.67 809.534 221.334 813.799 219.644 817.523L214.803 827.152L214.946 828.849L216.306 829.612L216.956 829.381C218.027 829.077 218.674 829.214 219.748 829.373C220.069 830.936 219.489 832.203 218.731 833.538C218.195 834.481 218.105 835.029 217.919 836.06C217.456 838.622 216.351 840.97 216.176 843.663C216.032 845.866 215.2 847.908 214.876 850.078C214.437 853.022 214.912 856.716 215.104 859.691L214.984 861.401L214.979 862.118C214.821 863.693 213.222 865.395 213.459 866.792C213.721 868.338 213.808 869.217 213.281 870.739L213.081 871.341L212.937 871.725C214.089 872.946 215.475 874.188 216.266 875.669C215.366 876.444 215.432 876.412 215.299 877.602C218.025 881.473 222.231 885.476 226.283 887.999C226.58 889.164 226.449 889.598 227.407 890.369C228.735 891.439 229.006 892.873 230.5 894L233.748 896.375L244.912 904.057C246.435 905.073 247.469 906.188 249.148 907.065L249.106 908.175L248.844 908.107C244.596 905.771 240.444 902.492 236.49 899.674C226.568 892.604 217.207 885.068 207.948 877.155C192.094 863.605 176.399 848.97 162.64 833.258C151.106 820.087 140.77 805.937 130.405 791.843C121.417 779.619 112.534 767.553 104.402 754.726C78.5275 713.91 59.3889 670.689 47.037 623.973C40.5708 599.518 37.1331 574.146 35.5024 548.937C31.2332 482.941 40.8869 416.063 64.0047 354C73.7786 327.76 86.7292 301.86 100.783 277.635Z"/>
	<path fill="#8338EC" transform="scale(0.5 0.5)" d="M307.244 608.059C358.508 604.734 435.283 610.55 475.486 645.692C489.776 658.183 500.289 673.048 508.842 689.93C510.13 692.76 511.26 695.446 512.061 698.456L513.421 698.314C516.496 697.99 520.69 694.602 523.519 693.123C527.719 690.927 532.065 688.944 536.354 686.925C551.449 679.82 567.165 674.513 583.179 669.922C630.643 656.315 683.394 653.445 732.366 658.709C749.798 660.583 767.064 663.681 784.224 667.223C799.673 670.411 814.696 675.634 830.1 678.8C839.724 681.794 849.524 684.627 858.815 688.552C866.905 691.969 875.31 696.239 879.56 704.351C884.053 712.927 885.388 723.976 887.836 733.325L894.171 778.094C894.719 780.226 896.521 785.146 896.156 787.236C895.942 788.457 894.528 790.719 893.91 791.789C893.353 792.753 893.564 792.258 893.275 793.406L893.787 793.468C885.728 805.656 876.272 816.65 866.699 827.651C820.618 880.61 763.818 920.998 699.739 949.364C672.394 961.47 643.862 971.543 614.5 977.514C580.503 984.429 545.386 987.186 510.725 987.001C489.806 986.89 468.711 986.193 447.938 983.615C378.827 975.037 310.637 949.26 252.699 910.733L249.106 908.175L249.148 907.065C247.469 906.188 246.435 905.073 244.912 904.057L233.748 896.375L230.5 894C229.006 892.873 228.735 891.439 227.407 890.369C226.449 889.598 226.58 889.164 226.283 887.999C222.231 885.476 218.025 881.473 215.299 877.602C215.432 876.412 215.366 876.444 216.266 875.669C215.475 874.188 214.089 872.946 212.937 871.725L213.081 871.341L213.281 870.739C213.808 869.217 213.721 868.338 213.459 866.792C213.222 865.395 214.821 863.693 214.979 862.118L214.984 861.401L215.104 859.691C214.912 856.716 214.437 853.022 214.876 850.078C215.2 847.908 216.032 845.866 216.176 843.663C216.351 840.97 217.456 838.622 217.919 836.06C218.105 835.029 218.195 834.481 218.731 833.538C219.489 832.203 220.069 830.936 219.748 829.373C218.674 829.214 218.027 829.077 216.956 829.381L216.306 829.612L214.946 828.849L214.803 827.152L219.644 817.523C221.334 813.799 223.67 809.534 225.836 806.09C227.111 804.062 229.826 801.361 229.509 798.883C228.625 799.288 228.503 799.472 227.99 800.344C227.264 801.579 226.456 802.324 225.378 803.268C224.108 804.378 222.643 805.616 220.907 805.497L221.268 803.94C223.244 802.036 223.999 799.792 225.621 797.709C226.968 795.979 228.603 794.45 230.018 792.776L231.081 791.525C232.234 790.501 232.873 789.915 233.768 788.602C234.244 787.905 234.416 787.954 235.167 787.639C235.476 786.836 235.663 786.049 236.353 785.482L237.452 784.667C238.206 783.888 238.551 782.978 239.534 782.321C240.978 781.356 241.552 779.886 242.902 779.088C243.828 778.542 244.387 777.972 245.133 777.202L245.503 776.816C247.075 777.189 247.531 778.003 248.633 779.152L250.5 778.221C256.751 773.939 266.85 773.505 271.303 767.257L270.417 765.947C269.273 765.909 268.332 765.881 267.25 765.478L266.455 765.169C263.921 766.404 263.018 766.303 260.367 766.26C259.034 766.238 258.413 767.126 257.25 767.497C256.184 767.837 255.118 767.455 254.089 767.167L253.633 767.31C251.021 768.101 248.866 767.915 246.304 769.179L245.82 769.031C245.027 768.844 244.704 768.991 243.93 769.179C241.115 769.861 238.245 770.156 235.417 770.75C232.33 771.399 229.485 772.449 226.307 772.084C222.804 771.996 217.237 774.247 213.766 775.193C200.412 778.835 187.287 782.883 174.076 786.985C167.405 789.057 160.372 792.154 153.423 793.039C148.895 793.616 143.773 793.171 139.567 791.331C135.285 789.457 132.515 786.029 131.087 781.65C129.762 777.586 130.477 771.669 130.936 767.39C131.864 758.745 133.219 750.102 134.482 741.5C135.522 734.413 136.572 727.344 137.747 720.277C138.69 714.598 139.393 708.727 142.076 703.546C148.989 690.194 179.029 683.101 193.118 678.717L192.906 678.119C193.421 677.809 193.869 677.518 194.46 677.371L197.625 676.503C198.477 676.218 199.753 676.147 200.5 675.755C201.584 675.186 201.526 675.255 202.75 675.255C202.88 672.542 201.883 670.331 201.679 667.693C201.506 665.458 202.265 663.149 202.565 660.949C202.837 658.954 202.615 657.387 203.207 655.347C203.906 652.938 204.078 650.22 205.268 648.004C205.94 646.753 206.658 645.477 206.758 644.043C207.108 638.981 213.725 635.062 212.571 629.146L211.251 628.541C205.857 625.954 199.344 628.963 193.829 630.438C192.087 630.904 189.951 631.722 188.152 631.351L187.266 631.12C195.635 628.424 204.605 626.804 213.147 624.668C232.092 619.932 251.465 614.812 270.821 612.06C282.925 610.338 295.192 609.826 307.244 608.059Z"/>
	<path fill="#FF006E" transform="scale(0.5 0.5)" d="M307.244 608.059C358.508 604.734 435.283 610.55 475.486 645.692C489.776 658.183 500.289 673.048 508.842 689.93C510.13 692.76 511.26 695.446 512.061 698.456L513.421 698.314C516.496 697.99 520.69 694.602 523.519 693.123C527.719 690.927 532.065 688.944 536.354 686.925C551.449 679.82 567.165 674.513 583.179 669.922C630.643 656.315 683.394 653.445 732.366 658.709C749.798 660.583 767.064 663.681 784.224 667.223C799.673 670.411 814.696 675.634 830.1 678.8C839.724 681.794 849.524 684.627 858.815 688.552C866.905 691.969 875.31 696.239 879.56 704.351C884.053 712.927 885.388 723.976 887.836 733.325L894.171 778.094C892.414 781.235 889.523 784.314 886.76 786.614C876.516 795.14 861.468 789.394 850.485 785.592C844.926 783.667 839.37 781.774 833.744 780.05C808.669 772.366 782.226 765.865 756.304 761.878C739.466 759.287 722.257 757.985 705.259 757.108C685.689 756.098 666.171 755.606 646.583 756.58C626.899 757.559 607.457 759.976 588.008 763.122C575.56 765.136 563.087 767.479 550.819 770.404C543.878 772.059 536.955 773.77 530.037 775.519C524.148 777.008 517.848 778.737 511.75 778.894C499.922 779.197 487.107 774.487 475.709 771.724C466.02 769.375 456.138 767.539 446.363 765.566C437.579 763.793 428.606 761.725 419.654 761.036L419.156 761.002C406.489 758.486 392.891 757.914 380.017 757.365C336.394 755.503 293.404 758.694 250.5 766.877C242.649 768.375 233.791 769.34 226.307 772.084C222.804 771.996 217.237 774.247 213.766 775.193C200.412 778.835 187.287 782.883 174.076 786.985C167.405 789.057 160.372 792.154 153.423 793.039C148.895 793.616 143.773 793.171 139.567 791.331C135.285 789.457 132.515 786.029 131.087 781.65C129.762 777.586 130.477 771.669 130.936 767.39C131.864 758.745 133.219 750.102 134.482 741.5C135.522 734.413 136.572 727.344 137.747 720.277C138.69 714.598 139.393 708.727 142.076 703.546C148.989 690.194 179.029 683.101 193.118 678.717L192.906 678.119C193.421 677.809 193.869 677.518 194.46 677.371L197.625 676.503C198.477 676.218 199.753 676.147 200.5 675.755C201.584 675.186 201.526 675.255 202.75 675.255C202.88 672.542 201.883 670.331 201.679 667.693C201.506 665.458 202.265 663.149 202.565 660.949C202.837 658.954 202.615 657.387 203.207 655.347C203.906 652.938 204.078 650.22 205.268 648.004C205.94 646.753 206.658 645.477 206.758 644.043C207.108 638.981 213.725 635.062 212.571 629.146L211.251 628.541C205.857 625.954 199.344 628.963 193.829 630.438C192.087 630.904 189.951 631.722 188.152 631.351L187.266 631.12C195.635 628.424 204.605 626.804 213.147 624.668C232.092 619.932 251.465 614.812 270.821 612.06C282.925 610.338 295.192 609.826 307.244 608.059Z"/>
	<path fill="#8338EC" transform="scale(0.5 0.5)" d="M307.244 608.059C358.508 604.734 435.283 610.55 475.486 645.692C489.776 658.183 500.289 673.048 508.842 689.93C510.13 692.76 511.26 695.446 512.061 698.456L511.304 698.703L497.778 691.224C478.473 680.212 457.263 673.61 435.807 668.218C411.537 662.118 387.001 658.07 361.991 656.749C305.199 653.75 247.754 663.969 193.118 678.717L192.906 678.119C193.421 677.809 193.869 677.518 194.46 677.371L197.625 676.503C198.477 676.218 199.753 676.147 200.5 675.755C201.584 675.186 201.526 675.255 202.75 675.255C202.88 672.542 201.883 670.331 201.679 667.693C201.506 665.458 202.265 663.149 202.565 660.949C202.837 658.954 202.615 657.387 203.207 655.347C203.906 652.938 204.078 650.22 205.268 648.004C205.94 646.753 206.658 645.477 206.758 644.043C207.108 638.981 213.725 635.062 212.571 629.146L211.251 628.541C205.857 625.954 199.344 628.963 193.829 630.438C192.087 630.904 189.951 631.722 188.152 631.351L187.266 631.12C195.635 628.424 204.605 626.804 213.147 624.668C232.092 619.932 251.465 614.812 270.821 612.06C282.925 610.338 295.192 609.826 307.244 608.059Z"/>
	<path fill="#3A86FF" transform="scale(0.5 0.5)" d="M165.734 188.522C175.265 175.933 188.288 164.095 200 153.505C266.617 93.2739 353.142 54.5099 441.84 42.139C468.93 38.3608 496.397 37.213 523.723 37.7241C542.381 38.073 561.196 39.0239 579.71 41.4661C646.342 50.256 710.44 73.7275 767.12 109.858C778.563 117.152 789.447 125.279 800.25 133.483C815.279 144.896 828.991 157.669 842.299 171.018C883.965 212.815 917.863 261.839 943.604 314.914C954.394 337.162 963.986 359.906 971.339 383.538C978.489 406.516 983.273 430.91 986.505 454.75C992.27 497.282 992.364 542.236 985.508 584.616C983.29 598.327 979.875 611.861 976.335 625.278C969.017 653.017 959.312 679.323 947.218 705.342C943.787 712.724 940.509 720.286 936.635 727.449C925.71 747.654 913.032 766.66 899.376 785.102C897.948 787.263 895.673 791.973 893.787 793.468L893.275 793.406C893.564 792.258 893.353 792.753 893.91 791.789C894.528 790.719 895.942 788.457 896.156 787.236C896.521 785.146 894.719 780.226 894.171 778.094L887.836 733.325C885.388 723.976 884.053 712.927 879.56 704.351C875.31 696.239 866.905 691.969 858.815 688.552C849.524 684.627 839.724 681.794 830.1 678.8C814.696 675.634 799.673 670.411 784.224 667.223C767.064 663.681 749.798 660.583 732.366 658.709C683.394 653.445 630.643 656.315 583.179 669.922C567.165 674.513 551.449 679.82 536.354 686.925C532.065 688.944 527.719 690.927 523.519 693.123C520.69 694.602 516.496 697.99 513.421 698.314L512.061 698.456C511.26 695.446 510.13 692.76 508.842 689.93C500.289 673.048 489.776 658.183 475.486 645.692C435.283 610.55 358.508 604.734 307.244 608.059C295.192 609.826 282.925 610.338 270.821 612.06C251.465 614.812 232.092 619.932 213.147 624.668C204.605 626.804 195.635 628.424 187.266 631.12C179.577 632.648 171.934 634.887 164.378 636.983C159.622 638.302 154.558 639.942 149.638 640.409C148.141 640.921 146.599 641.456 145.007 641.544C142.051 641.708 138.763 639.974 136.639 638.01C134.434 635.972 134.016 633.483 133.759 630.617C133.061 622.824 133.458 614.731 133.482 606.905C133.523 593.532 133.585 580.159 133.571 566.785C133.524 520.919 133.654 475.085 132.938 429.221C131.815 423.322 133.473 416.402 131.625 410.656C131.582 412.117 131.612 413.576 131.25 415C130.839 413.683 130.406 412.397 130.317 411.012C129.952 405.328 129.263 400.279 129.518 394.5L129.125 394.125L129 395.75L128.742 395.501C128.488 392.989 127.203 389.766 125.596 387.787C123.683 385.431 122.453 382.831 120.729 380.394C117.208 375.414 113.226 369.37 111.431 363.477C110.83 361.502 110.711 359.396 110.106 357.437C109.869 356.667 109.645 356.004 109.484 355.201C109.099 353.274 108.501 351.372 108.345 349.411L108.171 347.733C107.789 345.464 107.849 343.211 107.551 340.944C107.273 338.825 106.676 336.739 106.442 334.613C106.181 332.234 106.243 329.914 105.568 327.58C103.789 321.428 103.251 315.091 102.754 308.753C102.543 306.052 101.87 303.319 102.421 300.593C103.231 296.586 102.872 292.074 103.258 288.002C103.627 284.107 104.432 279.854 103.234 276.022C102.483 276.727 101.675 277.135 100.783 277.635C106.313 267.046 113.39 256.87 120.093 246.979C133.772 226.796 148.496 205.84 165.734 188.522Z"/>
	<path fill="#5C1AC9" transform="scale(0.5 0.5)" d="M887.836 733.325C888.646 734.824 889.104 735.843 889.458 737.503L889.944 739.003C892.918 748.386 896.212 757.949 897.532 767.75C898.293 773.396 896.906 779.961 899.376 785.102C897.948 787.263 895.673 791.973 893.787 793.468L893.275 793.406C893.564 792.258 893.353 792.753 893.91 791.789C894.528 790.719 895.942 788.457 896.156 787.236C896.521 785.146 894.719 780.226 894.171 778.094L887.836 733.325Z"/>
	<path fill="#000001" transform="scale(0.5 0.5)" d="M865.674 355.537C871.545 355.375 881.015 355.275 885.491 359.525C887.19 361.139 888.639 363.146 888.941 365.512C889.641 370.981 889.015 376.873 889.204 382.407C890.012 406.145 889.487 430.053 889.515 453.811C889.585 512.659 890.408 571.524 889.515 630.367C889.463 633.815 888.763 636.31 886.138 638.715C883.228 641.381 880.081 641.81 876.286 641.529C874.095 641.367 871.85 640.6 869.77 639.91C873.728 640.089 878.885 640.796 882.418 638.723C884.498 637.502 886.026 635.917 886.505 633.497C887.034 630.821 886.811 627.903 886.789 625.179C886.751 620.348 886.685 615.517 886.636 610.685C886.484 595.609 886.458 580.53 886.38 565.453C886.209 532.235 886.493 499.025 886.53 465.809C886.556 442.311 886.265 418.819 886.431 395.321C886.465 390.501 887.738 364.963 885.62 362.208L885.25 361.76C881.372 356.81 876.89 356.614 870.977 356.198C869.475 356.092 867.466 356.238 866.069 355.726L865.674 355.537Z"/>
	<defs>
		<linearGradient id="gradient_1" gradientUnits="userSpaceOnUse" x1="103.25" y1="313.25" x2="158.83299" y2="306.711">
			<stop offset="0" stop-color="#B04DEC"/>
			<stop offset="1" stop-color="#668EFF"/>
		</linearGradient>
	</defs>
	<path fill="url(#gradient_1)" transform="scale(0.5 0.5)" d="M100.783 277.635C106.313 267.046 113.39 256.87 120.093 246.979C133.772 226.796 148.496 205.84 165.734 188.522C165.211 191.94 160.061 196.436 157.704 199.175C152.236 205.529 145.533 212.446 141.346 219.661C142.814 218.512 144.153 217.336 145.086 215.702L146.396 216.112L146.583 215.366C146.892 214.272 146.726 214.679 147.443 213.725C148.132 214.969 148.499 216.449 148.097 217.853L147.591 219.277C147.292 220.121 147.479 220.624 147.401 221.446L147.043 222.742L146.271 222.539L146.157 220.418C145.565 222.958 144.657 227.085 145.451 229.621L146.245 229.421C146.093 231.234 144.809 231.436 144.83 233.048L145.497 232.288L146.016 232.943C145.749 234.141 145.802 235.21 144.823 235.996C145.858 237.986 145.326 238.946 145.316 241.101C145.311 242.333 145.402 241.728 145.043 242.718C144.734 243.57 144.9 244.021 145.018 244.881C145.123 245.651 145.072 245.365 144.949 246.366C144.81 247.511 145.036 247.548 145.301 248.592C145.807 250.588 145.467 253.842 144.892 255.777L145.724 256.216L145.256 257.889L145.86 258.696C145.436 259.627 145.255 259.619 145.489 260.655C145.937 262.633 145.604 264.677 146.094 266.635C146.608 268.688 146.29 271.226 146.288 273.344C146.279 281.157 145.334 288.745 144.745 296.503C144.546 299.124 145.053 301.941 144.481 304.506C144.188 305.818 144.547 307.199 144.335 308.617L137.605 349.249C137.136 351.93 137.197 354.545 137.25 357.255C138.566 357.246 137.512 357.428 138.5 356.755L139.75 356.255L140.461 355.855C142.167 354.922 139.958 356.058 142 355.377L142.625 355.002L143.5 354.877L144.25 354.5L145.75 354.255L146.625 354.002C147.417 353.832 147.972 353.906 148.75 354L150.094 353.41C152.454 352.634 155.926 354.382 158 353L164.75 353L164.976 353.269L164.646 353.843C156.308 354.055 142.771 353.136 136.539 359.778C134.986 361.434 133.913 363.545 133.502 365.781C132.433 371.583 133.018 378.306 133.01 384.212C132.991 399.106 133.718 414.368 132.938 429.221C131.815 423.322 133.473 416.402 131.625 410.656C131.582 412.117 131.612 413.576 131.25 415C130.839 413.683 130.406 412.397 130.317 411.012C129.952 405.328 129.263 400.279 129.518 394.5L129.125 394.125L129 395.75L128.742 395.501C128.488 392.989 127.203 389.766 125.596 387.787C123.683 385.431 122.453 382.831 120.729 380.394C117.208 375.414 113.226 369.37 111.431 363.477C110.83 361.502 110.711 359.396 110.106 357.437C109.869 356.667 109.645 356.004 109.484 355.201C109.099 353.274 108.501 351.372 108.345 349.411L108.171 347.733C107.789 345.464 107.849 343.211 107.551 340.944C107.273 338.825 106.676 336.739 106.442 334.613C106.181 332.234 106.243 329.914 105.568 327.58C103.789 321.428 103.251 315.091 102.754 308.753C102.543 306.052 101.87 303.319 102.421 300.593C103.231 296.586 102.872 292.074 103.258 288.002C103.627 284.107 104.432 279.854 103.234 276.022C102.483 276.727 101.675 277.135 100.783 277.635Z"/>
	<defs>
		<linearGradient id="gradient_2" gradientUnits="userSpaceOnUse" x1="354.75" y1="351.25" x2="153.506" y2="394.401">
			<stop offset="0" stop-color="#FFA401"/>
			<stop offset="1" stop-color="#FE4807"/>
		</linearGradient>
	</defs>
	<path fill="url(#gradient_2)" transform="scale(0.5 0.5)" d="M227.987 291.292L228.236 279.813C235.474 278.89 242.756 279.013 250.037 278.992C259.128 278.965 268.219 278.957 277.31 278.948C294.971 278.931 312.678 278.705 330.316 279.742C352.696 281.057 374.756 284.416 396.5 289.834C421.886 296.16 447.813 305.702 468.68 321.915C484.245 334.009 497.726 351.498 504.964 369.83C507.179 375.443 508.49 381.149 509.879 386.995C510.605 390.05 511.541 393.071 511.997 396.181C511.261 401.46 511.745 407.216 511.745 412.575C511.743 423.315 511.741 434.055 511.741 444.796C511.743 486.675 511.748 528.554 511.774 570.434C511.792 599.844 512.025 629.357 511.379 658.689C511.215 666.127 511.13 673.562 510.949 681C510.906 682.739 511.299 685.364 510.847 687C510.529 688.15 509.61 689.054 508.842 689.93C500.289 673.048 489.776 658.183 475.486 645.692C435.283 610.55 358.508 604.734 307.244 608.059C295.192 609.826 282.925 610.338 270.821 612.06C251.465 614.812 232.092 619.932 213.147 624.668C204.605 626.804 195.635 628.424 187.266 631.12C179.577 632.648 171.934 634.887 164.378 636.983C159.622 638.302 154.558 639.942 149.638 640.409C148.141 640.921 146.599 641.456 145.007 641.544C142.051 641.708 138.763 639.974 136.639 638.01C134.434 635.972 134.016 633.483 133.759 630.617C133.061 622.824 133.458 614.731 133.482 606.905C133.523 593.532 133.585 580.159 133.571 566.785C133.524 520.919 133.654 475.085 132.938 429.221C133.718 414.368 132.991 399.106 133.01 384.212C133.018 378.306 132.433 371.583 133.502 365.781C133.913 363.545 134.986 361.434 136.539 359.778C142.771 353.136 156.308 354.055 164.646 353.843L197.736 353.521C198.346 352.531 197.997 349.532 197.999 348.272C198.005 342.847 197.34 334.816 199.388 329.772L199.594 329.308C201.044 327.186 203.027 326.461 205.362 325.638C212.729 323.042 220.678 322.131 228.215 320.042L227.987 291.292Z"/>
	<path fill="#FB5607" transform="scale(0.5 0.5)" d="M303.554 321.547C331.72 321.247 359.343 324.282 386.627 331.54C405.723 336.62 423.561 343.151 438.83 355.97C424.974 351.341 411.387 345.91 397.445 341.568C382.712 336.98 367.86 333.709 352.641 331.258C345.325 330.483 338.057 329.361 330.71 328.903C305.08 327.304 280.234 329.166 255.083 334.261C243.093 336.69 231.215 340.804 219.174 342.694C216.685 343.085 213.324 343.576 211.271 342.086C211.408 341.586 211.398 341.481 211.75 340.998C213.736 338.268 219.409 336.794 222.505 335.75C230.546 333.039 238.997 331.236 247.288 329.444C255.839 327.596 264.222 325.739 272.901 324.55C283.116 323.151 293.328 322.628 303.554 321.547Z"/>
	<path fill="#FB5607" transform="scale(0.5 0.5)" d="M344.234 548.806C329.885 547.31 315.755 546.455 301.31 547.135C283.929 547.953 266.125 550.998 249.094 554.521C243.01 555.78 236.852 556.912 230.801 558.299C224.88 559.657 217.224 562.775 211.25 562.438L210.975 561.75C211.356 561.146 211.684 560.62 212.25 560.167C214.305 558.522 217.272 557.506 219.705 556.557C224.274 554.777 228.738 553.197 233.441 551.8C266.393 542.013 301.906 539.057 336.159 541.372C344.314 541.923 352.419 543.207 360.54 544.113C366.697 545.485 372.978 546.326 379.15 547.699C396.892 551.645 415.219 557.139 431.171 566.02C435.314 568.326 438.685 571.294 442.175 574.461C434.499 572.322 427.25 569.166 419.69 566.697C400.02 560.273 379.817 554.494 359.386 551.118C354.376 550.291 349.288 549.236 344.234 548.806Z"/>
	<path fill="#FB5607" transform="scale(0.5 0.5)" d="M366.183 498.081C359.001 495.807 350.976 495.05 343.505 494.216C329.369 492.638 314.77 491.844 300.56 492.613C284.019 493.508 267.356 496.574 251.105 499.683C237.933 502.203 224.615 506.057 211.298 507.308C213.621 505.607 215.892 504.071 218.5 502.836C230.625 497.098 243.808 493.781 256.904 491.139C281.72 486.134 307.746 483.918 333.027 486.004C346.897 487.248 360.372 489.544 374 492.378C390.645 495.839 406.126 499.735 421.631 506.951C429.431 510.581 436.045 513.974 442.332 519.95C420.232 513.901 398.986 505.731 376.668 500.282C373.653 499.546 369.249 497.97 366.183 498.081Z"/>
	<path fill="#FB5607" transform="scale(0.5 0.5)" d="M344.054 467.414C340.531 466.611 336.544 466.621 332.935 466.243C305.774 463.396 279.156 466.744 252.491 471.809C247.505 472.757 242.486 473.702 237.556 474.912C233.842 475.823 215.975 481.47 213.25 480.893C212.806 480.799 212.449 480.464 212.049 480.25C212.562 478.905 213.704 478.169 214.867 477.335C220.602 473.22 227.912 471.112 234.6 469.133C249.549 464.711 264.785 462.156 280.25 460.361C292.101 458.984 304.266 457.992 316.213 458.165C330.417 458.37 344.085 460.251 358.129 462.133C366.207 463.858 374.384 465 382.458 466.833C395.35 469.76 408.704 474.052 420.753 479.509C425.287 481.562 430.196 483.615 434.261 486.527C436.816 488.357 439.129 491.022 441.338 493.256C434.523 491.17 427.906 488.639 421.153 486.398C401.734 479.951 382.223 473.894 362.078 470.188C356.172 469.101 350.036 467.887 344.054 467.414Z"/>
	<path fill="#FB5607" transform="scale(0.5 0.5)" d="M368.837 525.835L368.709 525.618C351.587 522.089 332.778 519.662 315.31 519.56C295.784 519.446 275.189 522.137 256.103 526.026C249.141 527.445 242.142 528.894 235.233 530.546C227.196 532.468 219.631 534.46 211.375 535.12L214.528 531.838C218.956 527.916 228.152 525.994 233.864 524.297C252.024 518.902 270.874 514.97 289.8 513.641C311.585 512.112 332.897 513.76 354.565 515.594C361.319 516.977 368.185 517.796 374.95 519.199C386.946 521.685 398.851 525.136 410.367 529.304C417.368 531.838 424.576 534.596 431.052 538.307C435.252 540.713 439.201 543.834 443.058 546.756C423.206 541.551 404.021 534.155 384.06 529.168C379.117 527.933 373.928 526.235 368.837 525.835Z"/>
	<path fill="#FB5607" transform="scale(0.5 0.5)" d="M355.064 360.023C352.242 359.072 348.777 358.88 345.827 358.457C339.517 357.553 333.301 356.868 326.928 356.575C298.852 355.282 271.665 358.287 244.302 364.457C233.539 366.884 223.024 370.342 212.14 372.162C213.546 370.459 215.051 368.371 216.819 367.045C222.112 363.073 229.735 361 236.032 359.116C273.935 347.777 316.741 346.897 355.71 352.659C373.038 354.724 389.243 358.773 405.674 364.58C419.038 369.302 431.128 374.067 441.517 384.053C432.08 381.518 423.067 377.838 413.824 374.715C398.924 369.681 383.713 365.326 368.263 362.353C364.103 361.553 359.268 360.152 355.064 360.023Z"/>
	<path fill="#FB5607" transform="scale(0.5 0.5)" d="M355.426 414.531C347.684 412.221 337.907 411.712 329.807 411.191C312.697 410.091 295.187 410.323 278.2 412.819C255.964 416.086 234.101 422.115 211.854 425.12C219.277 417.817 230.542 415.235 240.417 412.806C251.744 410.021 262.986 407.941 274.505 406.084C289.417 403.679 304.791 402.881 319.877 403.419C327.336 403.685 334.781 404.55 342.233 405.019C359.322 406.757 375.558 410.118 392.058 414.833C405.561 418.692 418.992 423.388 431.348 430.168C435.651 432.53 439.542 435.539 443.609 438.27C438.244 436.904 432.862 435.956 427.546 434.34C420.564 432.218 413.796 429.469 406.875 427.171C395.489 423.389 383.716 420.155 371.989 417.621C366.526 416.44 361.019 415.123 355.459 414.506L355.426 414.531Z"/>
	<path fill="#FB5607" transform="scale(0.5 0.5)" d="M345.487 385.83L345.47 385.781C341.499 384.657 337.089 384.544 332.989 384.113C302.798 380.945 272.009 385.585 242.506 391.924C236.525 393.209 230.593 394.595 224.662 396.1C220.993 397.03 217.063 398.388 213.299 398.71L212.734 395.75C213.117 395.191 213.369 394.801 213.93 394.403C217.472 391.888 222.939 390.395 227.075 389.055C239.415 385.058 252.226 382.491 264.998 380.313C280.488 377.671 296.437 375.849 312.167 375.607C323.116 375.438 334.006 376.669 344.876 377.796C369.48 382.19 393.757 386.591 416.872 396.494C426.598 400.661 434.361 404.113 441.589 412.033C428.075 407.705 414.877 402.457 401.343 398.208C390.921 394.937 380.314 392.675 369.679 390.249C361.881 388.471 353.477 386.298 345.487 385.83Z"/>
	<path fill="#FB5607" transform="scale(0.5 0.5)" d="M360.997 443.321C360.666 442.815 348.593 441.329 347.356 441.179C325.735 438.55 303.605 437.025 281.911 439.912C271.887 441.246 261.963 443.565 252.011 445.337C246.244 446.363 240.475 447.297 234.75 448.551C231.157 449.338 227.602 450.241 224.056 451.216C220.66 452.15 215.934 453.859 212.506 452.75L212.212 451.75C212.592 451.253 212.943 450.801 213.422 450.393C219.894 444.875 230.889 442.54 238.957 440.432C267.789 432.898 298.24 429.445 328.031 431.322C338.415 431.976 348.778 433.582 359.135 434.591L359.832 434.761C364.617 435.905 369.528 436.553 374.333 437.705C385.101 440.287 395.799 443.56 406.337 446.96C413.975 449.424 421.753 451.93 428.813 455.801C434.095 458.697 438.475 462.674 443.459 466.001C434.146 463.867 425.51 460.671 416.47 457.717C402.964 453.304 389.46 449.086 375.558 446.065C370.822 445.036 365.82 443.579 360.997 443.321Z"/>
	<path fill="#FB5607" transform="scale(0.5 0.5)" d="M164.646 353.843L197.736 353.521C198.346 352.531 197.997 349.532 197.999 348.272C198.005 342.847 197.34 334.816 199.388 329.772L199.594 329.308C198.666 335.149 198.891 341.144 198.855 347.046C198.839 349.573 199.267 353.151 198.403 355.5L198.604 356.339C199.071 358.452 198.854 360.972 198.857 363.141C198.863 366.999 198.85 370.858 198.847 374.717C198.838 391.376 198.755 408.033 198.645 424.691C198.343 470.509 199.379 516.454 198.439 562.25C198.357 566.214 198.023 570.164 197.926 574.123C197.837 577.757 198.268 581.826 197.056 585.282C196.721 587.16 196.814 590.107 196.245 591.811C195.821 593.076 193.611 595.296 192.73 596.46L217.657 588.246L218.059 588.912C208.376 591.864 199.504 594.534 190.25 598.755L191.375 598.875L192 598.255L193.375 598.375L194 597.755L195.375 597.875L195.75 597.255L196.5 597.378C197.426 597.385 198.236 596.671 199 596.378L199.758 596.267C201.716 595.963 202.071 595.198 204.141 595.799L247.593 588.009C249.273 587.777 250.946 587.795 252.604 587.423C257.751 586.267 263.513 587.328 268.685 586.347C271.342 585.843 274.283 585.797 277 585.435C282.597 584.689 287.885 583.652 293.566 583.703L293.897 584.167C296.545 587.746 301.172 589.432 304.608 592.25C308.866 595.744 313.073 598.592 316.629 602.934C317.29 603.742 317.825 604.217 318.643 604.84L317.75 606.255C316.856 606.401 316.147 606.33 315.25 606.255C314.147 607.351 313.183 607.034 311.682 607.016C310.825 607.006 310.085 606.938 309.25 606.755L308.5 607.5C306.655 607.418 304.84 607.272 303.003 607.503L303.003 607.924L303.58 607.902L307.244 608.059C295.192 609.826 282.925 610.338 270.821 612.06C251.465 614.812 232.092 619.932 213.147 624.668C204.605 626.804 195.635 628.424 187.266 631.12C179.577 632.648 171.934 634.887 164.378 636.983C159.622 638.302 154.558 639.942 149.638 640.409C148.141 640.921 146.599 641.456 145.007 641.544C142.051 641.708 138.763 639.974 136.639 638.01C134.434 635.972 134.016 633.483 133.759 630.617C133.061 622.824 133.458 614.731 133.482 606.905C133.523 593.532 133.585 580.159 133.571 566.785C133.524 520.919 133.654 475.085 132.938 429.221C133.718 414.368 132.991 399.106 133.01 384.212C133.018 378.306 132.433 371.583 133.502 365.781C133.913 363.545 134.986 361.434 136.539 359.778C142.771 353.136 156.308 354.055 164.646 353.843Z"/>
	<path fill="#000001" transform="scale(0.5 0.5)" d="M164.646 353.843L197.736 353.521C198.346 352.531 197.997 349.532 197.999 348.272C198.005 342.847 197.34 334.816 199.388 329.772L199.594 329.308C198.666 335.149 198.891 341.144 198.855 347.046C198.839 349.573 199.267 353.151 198.403 355.5L198.604 356.339C199.071 358.452 198.854 360.972 198.857 363.141C198.863 366.999 198.85 370.858 198.847 374.717C198.838 391.376 198.755 408.033 198.645 424.691C198.343 470.509 199.379 516.454 198.439 562.25C198.357 566.214 198.023 570.164 197.926 574.123C197.837 577.757 198.268 581.826 197.056 585.282L198.196 354.107C184.964 353.615 171.578 353.919 158.385 355.016C152.386 355.515 143.059 355.549 138.534 360.05C136.726 361.849 136.035 363.652 135.925 366.169C135.456 376.847 136.315 387.959 136.332 398.684C136.378 426.788 136.508 454.888 136.58 482.992C136.663 514.834 137.034 546.696 136.946 578.535C136.896 596.25 135.993 614.047 136.538 631.75C136.604 633.869 136.93 635.764 138.551 637.25C141.369 639.834 143.531 640.138 147.25 640.066L149.387 640.025L149.638 640.409C148.141 640.921 146.599 641.456 145.007 641.544C142.051 641.708 138.763 639.974 136.639 638.01C134.434 635.972 134.016 633.483 133.759 630.617C133.061 622.824 133.458 614.731 133.482 606.905C133.523 593.532 133.585 580.159 133.571 566.785C133.524 520.919 133.654 475.085 132.938 429.221C133.718 414.368 132.991 399.106 133.01 384.212C133.018 378.306 132.433 371.583 133.502 365.781C133.913 363.545 134.986 361.434 136.539 359.778C142.771 353.136 156.308 354.055 164.646 353.843Z"/>
	<defs>
		<linearGradient id="gradient_3" gradientUnits="userSpaceOnUse" x1="190.25" y1="598.75" x2="523.68402" y2="574.40698">
			<stop offset="0" stop-color="#FE6D00"/>
			<stop offset="1" stop-color="#FFD917"/>
		</linearGradient>
	</defs>
	<path fill="url(#gradient_3)" transform="scale(0.5 0.5)" d="M227.987 291.292L228.236 279.813C235.474 278.89 242.756 279.013 250.037 278.992C259.128 278.965 268.219 278.957 277.31 278.948C294.971 278.931 312.678 278.705 330.316 279.742C352.696 281.057 374.756 284.416 396.5 289.834C421.886 296.16 447.813 305.702 468.68 321.915C484.245 334.009 497.726 351.498 504.964 369.83C507.179 375.443 508.49 381.149 509.879 386.995C510.605 390.05 511.541 393.071 511.997 396.181C511.261 401.46 511.745 407.216 511.745 412.575C511.743 423.315 511.741 434.055 511.741 444.796C511.743 486.675 511.748 528.554 511.774 570.434C511.792 599.844 512.025 629.357 511.379 658.689C511.215 666.127 511.13 673.562 510.949 681C510.906 682.739 511.299 685.364 510.847 687C510.529 688.15 509.61 689.054 508.842 689.93C500.289 673.048 489.776 658.183 475.486 645.692C435.283 610.55 358.508 604.734 307.244 608.059L303.58 607.902L303.003 607.924L303.003 607.503C304.84 607.272 306.655 607.418 308.5 607.5L309.25 606.755C310.085 606.938 310.825 607.006 311.682 607.016C313.183 607.034 314.147 607.351 315.25 606.255C316.147 606.33 316.856 606.401 317.75 606.255L318.643 604.84C317.825 604.217 317.29 603.742 316.629 602.934C313.073 598.592 308.866 595.744 304.608 592.25C301.172 589.432 296.545 587.746 293.897 584.167L293.566 583.703C287.885 583.652 282.597 584.689 277 585.435C274.283 585.797 271.342 585.843 268.685 586.347C263.513 587.328 257.751 586.267 252.604 587.423C250.946 587.795 249.273 587.777 247.593 588.009L204.141 595.799C202.071 595.198 201.716 595.963 199.758 596.267L199 596.378C198.236 596.671 197.426 597.385 196.5 597.378L195.75 597.255L195.375 597.875L194 597.755L193.375 598.375L192 598.255L191.375 598.875L190.25 598.755C199.504 594.534 208.376 591.864 218.059 588.912L217.657 588.246L235.498 583.934L237 583.698C238.283 583.349 239.267 583.399 240.5 583.147C241.778 582.887 243.638 582.9 244.756 582.45C245.639 582.095 246.346 582.319 247.25 582.167C248.34 581.983 250.308 581.846 251.257 581.455C252.145 581.088 252.84 581.333 253.75 581.179C254.817 580.999 256.839 580.852 257.757 580.462C259.239 579.832 261.635 579.975 263.25 579.702C272.514 578.134 282.037 577.512 291.245 575.75C294.485 575.13 297.973 575.397 301.245 574.75C303.171 574.369 305.992 574.743 308.012 574.708C308.912 574.693 309.383 574.245 310.219 574.222C313.567 574.131 316.928 574.281 320.276 574.193C321.079 574.172 321.563 573.74 322.409 573.721C327.28 573.613 332.215 573.616 337.086 573.717C337.933 573.735 338.447 574.146 339.262 574.167C343.416 574.274 347.708 573.852 351.75 574.611C355.51 575.316 359.84 574.426 363.625 575.399C365.374 575.848 367.282 575.782 369.082 575.979C373.014 576.408 377.001 577.241 380.887 577.975C382.412 578.264 384.305 578.323 385.75 578.828C387.034 579.276 387.874 579.344 389.25 579.381C388.638 578.914 388.912 579.015 388.172 578.867L385 578.25L383.5 578C382.044 577.629 380.679 577.536 379.25 577L378.823 575.44C378.169 574.97 377.572 574.548 377.022 573.956C373.266 569.908 367.568 569.516 362.526 568.272C360.691 567.819 358.927 567.068 357.078 566.622C354.667 566.041 352.184 565.977 349.752 565.541C347.853 565.201 345.426 564.232 344.365 562.529C342.853 560.102 342.044 553.918 342.935 551.222L343.167 550.717L341.226 549.283L344.234 548.806C349.288 549.236 354.376 550.291 359.386 551.118C379.817 554.494 400.02 560.273 419.69 566.697C427.25 569.166 434.499 572.322 442.175 574.461C438.685 571.294 435.314 568.326 431.171 566.02C415.219 557.139 396.892 551.645 379.15 547.699C372.978 546.326 366.697 545.485 360.54 544.113C359.259 543.202 358.538 542.593 356.922 542.857C355.94 543.017 355.09 542.235 353.902 542.089L354.401 540.801C352.897 538.055 352.267 536.487 352.146 533.378C352.113 532.538 352.117 531.731 351.968 530.901C351.646 529.107 351.935 527.719 352.3 525.941C352.747 525.435 353.061 524.767 353.642 524.424C354.52 523.906 356.579 524.438 357.504 524.617C360.51 525.198 365.471 526.326 368.426 525.924L368.837 525.835C373.928 526.235 379.117 527.933 384.06 529.168C404.021 534.155 423.206 541.551 443.058 546.756C439.201 543.834 435.252 540.713 431.052 538.307C424.576 534.596 417.368 531.838 410.367 529.304C398.851 525.136 386.946 521.685 374.95 519.199C368.185 517.796 361.319 516.977 354.565 515.594L352.5 514.255C351.2 514.442 350.578 514.622 349.3 514.147C349.839 512.142 349.476 511.51 349.288 509.573C349.001 506.616 349.263 503.382 349.282 500.4C349.284 500.012 349.146 498.231 349.3 497.941C349.592 497.393 350.102 496.993 350.504 496.519C353.481 495.694 357.436 497.189 360.5 497.596C362.119 497.81 363.56 498.42 365.218 498.217L366.183 498.081C369.249 497.97 373.653 499.546 376.668 500.282C398.986 505.731 420.232 513.901 442.332 519.95C436.045 513.974 429.431 510.581 421.631 506.951C406.126 499.735 390.645 495.839 374 492.378C360.372 489.544 346.897 487.248 333.027 486.004C334.053 483.544 333.76 481.029 335.053 478.543L338.442 471.162C339.692 468.645 341.564 468.275 344.054 467.414C350.036 467.887 356.172 469.101 362.078 470.188C382.223 473.894 401.734 479.951 421.153 486.398C427.906 488.639 434.523 491.17 441.338 493.256C439.129 491.022 436.816 488.357 434.261 486.527C430.196 483.615 425.287 481.562 420.753 479.509C408.704 474.052 395.35 469.76 382.458 466.833C374.384 465 366.207 463.858 358.129 462.133C357.336 461.593 356.711 461.103 355.771 460.854L355.25 460.755L355.325 459.68C352.033 455.691 350.373 452.414 351.26 447.108C351.586 445.161 352.703 444.515 354.141 443.422C355.246 443.346 356.253 443.281 357.354 443.477L360.296 443.956L360.997 443.321C365.82 443.579 370.822 445.036 375.558 446.065C389.46 449.086 402.964 453.304 416.47 457.717C425.51 460.671 434.146 463.867 443.459 466.001C438.475 462.674 434.095 458.697 428.813 455.801C421.753 451.93 413.975 449.424 406.337 446.96C395.799 443.56 385.101 440.287 374.333 437.705C369.528 436.553 364.617 435.905 359.832 434.761L359.135 434.591C357.931 433.807 357.06 433.147 355.547 433.296L355 433.377C354.279 432.294 353.088 431.096 352.837 429.811C352.532 428.253 352.157 426.726 351.747 425.189L351.045 422.413C350.444 419.386 350.505 417.501 352.215 414.97C353.329 414.914 354.335 414.734 355.426 414.531L355.459 414.506C361.019 415.123 366.526 416.44 371.989 417.621C383.716 420.155 395.489 423.389 406.875 427.171C413.796 429.469 420.564 432.218 427.546 434.34C432.862 435.956 438.244 436.904 443.609 438.27C439.542 435.539 435.651 432.53 431.348 430.168C418.992 423.388 405.561 418.692 392.058 414.833C375.558 410.118 359.322 406.757 342.233 405.019C339.572 403.323 337.799 403.889 334.745 403.894C334.705 400.388 335.131 397.029 335.196 393.603C335.239 391.351 334.679 387.151 335.629 385.272C338.291 385.986 341.997 386.208 344.796 386.456L345.487 385.83C353.477 386.298 361.881 388.471 369.679 390.249C380.314 392.675 390.921 394.937 401.343 398.208C414.877 402.457 428.075 407.705 441.589 412.033C434.361 404.113 426.598 400.661 416.872 396.494C393.757 386.591 369.48 382.19 344.876 377.796C345.036 377.513 344.916 377.145 344.899 376.82L343.25 376.755C342.192 376.526 342.266 376.215 341 376.293C340.159 376.344 339.575 376.369 338.75 376.255C337.333 370.236 342.48 365.032 344.274 359.469L344.402 359.059C347.711 359.708 350.906 360.361 354.281 360.09L355.064 360.023C359.268 360.152 364.103 361.553 368.263 362.353C383.713 365.326 398.924 369.681 413.824 374.715C423.067 377.838 432.08 381.518 441.517 384.053C431.128 374.067 419.038 369.302 405.674 364.58C389.243 358.773 373.038 354.724 355.71 352.659C354.66 350.272 353.255 348.283 351.874 346.096C349.771 342.764 346.54 336.887 347.409 332.98L348.857 332.694C350.235 332.151 351.139 331.602 352.641 331.258C367.86 333.709 382.712 336.98 397.445 341.568C411.387 345.91 424.974 351.341 438.83 355.97C423.561 343.151 405.723 336.62 386.627 331.54C359.343 324.282 331.72 321.247 303.554 321.547C301.789 321.175 299.805 321.321 298.002 321.306C298.403 320.812 304.504 320.936 305.75 320.755L305.465 318.251C306.516 316.525 306.373 314.367 306.283 312.401C306.078 307.927 302.215 302.588 300.418 298.431C298.586 294.197 297.371 289.957 295.274 285.774C294.645 284.519 294.227 283.24 293.112 282.316C292.211 281.569 292.38 281.414 292.135 280.303C289.801 278.847 278.219 278.937 275.361 279.631C271.139 280.656 266.73 280.052 262.391 280.035C254.889 280.005 247.365 280.002 239.866 280.118C237.189 280.159 234.329 279.614 231.74 280.431L229.408 281.118L229.089 283.749L227.987 291.292Z"/>
	<path fill="#FFBE0B" transform="scale(0.5 0.5)" d="M511.997 396.181C512.918 394.316 513.03 392.258 513.491 390.25C514.456 386.053 515.589 381.822 516.771 377.682C522.595 357.274 535.039 337.377 551.619 324.04C577.102 303.544 609.948 293.995 641.512 287.742C662.762 283.533 684.424 280.711 706.07 279.642C721.271 278.891 736.571 279.204 751.784 279.322C765.825 279.431 780.525 278.674 794.464 280.195L794.886 319.103C796.839 319.811 799.221 319.808 801.278 320.344C807.688 322.014 814.175 324.777 819.741 328.369C820.433 331.639 820.224 335.106 820.243 338.439C820.271 343.322 820.399 348.22 819.985 353.089C821.615 353.977 827.823 353.376 830 353.477C841.891 354.03 853.806 354.628 865.674 355.537L866.069 355.726C867.466 356.238 869.475 356.092 870.977 356.198C876.89 356.614 881.372 356.81 885.25 361.76L885.62 362.208C887.738 364.963 886.465 390.501 886.431 395.321C886.265 418.819 886.556 442.311 886.53 465.809C886.493 499.025 886.209 532.235 886.38 565.453C886.458 580.53 886.484 595.609 886.636 610.685C886.685 615.517 886.751 620.348 886.789 625.179C886.811 627.903 887.034 630.821 886.505 633.497C886.026 635.917 884.498 637.502 882.418 638.723C878.885 640.796 873.728 640.089 869.77 639.91L832.849 629.985C823.126 627.621 813.236 623.734 803.389 622.278L802.773 623.014L802.145 622.776L789.441 619.755L787.769 619.357C786.348 618.966 784.949 618.925 783.538 618.462C782.656 618.173 782.031 618.058 781.105 617.995C779.293 617.872 777.757 617.108 775.864 616.989C774.871 616.926 775.775 616.977 774.502 616.54L772.941 616.255L772 616.063L771.162 616.035C769.372 615.94 771.326 616.118 769.5 615.531C767.527 614.898 765.566 615.329 763.5 614.505C762.836 614.24 761.033 614.175 760.25 614.039L759.038 614.109C757.959 614.185 757.447 614.137 756.5 613.543C754.072 614.065 753.581 614.916 751.948 616.596C751.731 617.678 751.793 617.997 751.975 619.053C752.314 621.015 752.274 622.946 752.805 624.866L752.985 625.585C753.818 628.695 755.73 631.407 756.344 634.606C756.535 635.601 756.81 635.828 757.435 636.571C757.876 637.094 758.132 637.633 758.45 638.234C759.916 641.008 764.536 644.763 764.33 647.883C764.187 650.058 766.697 653.427 768.074 654.987C769.467 656.566 772.003 658.248 772.005 660.442L771.815 661.771L773.25 663.755C774.515 663.755 774.38 663.761 775.5 664.255L776.748 664.42L786.36 666.516C787.207 666.758 787.905 666.771 788.748 666.92L790 667.255L790.593 667.317C791.943 667.495 793.367 668.121 794.748 668.42L800.834 669.904L802.215 670.335C803.068 670.619 803.875 670.735 804.748 670.92L821.889 675.42C824.042 675.99 826.417 676.556 828.264 677.787L830.1 678.8C814.696 675.634 799.673 670.411 784.224 667.223C767.064 663.681 749.798 660.583 732.366 658.709C683.394 653.445 630.643 656.315 583.179 669.922C567.165 674.513 551.449 679.82 536.354 686.925C532.065 688.944 527.719 690.927 523.519 693.123C520.69 694.602 516.496 697.99 513.421 698.314L512.061 698.456C511.26 695.446 510.13 692.76 508.842 689.93C509.61 689.054 510.529 688.15 510.847 687C511.299 685.364 510.906 682.739 510.949 681C511.13 673.562 511.215 666.127 511.379 658.689C512.025 629.357 511.792 599.844 511.774 570.434C511.748 528.554 511.743 486.675 511.741 444.796C511.741 434.055 511.743 423.315 511.745 412.575C511.745 407.216 511.261 401.46 511.997 396.181Z"/>
	<path fill="#FB5607" transform="scale(0.5 0.5)" d="M810.281 591.321C818.305 595.917 826.766 600.715 833.99 606.317L843.758 615.369L843.184 615.732L839.712 612.788C838.386 611.808 837.077 610.436 835.585 609.763C834.431 609.243 833.081 607.601 832 606.75L831.253 606.084C829.435 604.485 831.678 606.358 829.625 605.038C828.552 604.348 827.482 603.153 826.384 602.366C823.54 600.326 820.513 598.447 817.561 596.564L817.125 596.875L817.758 597.382C819.57 598.865 820.847 601.138 822.824 602.324C824.581 603.378 825.684 605.142 827.5 606.25C828.79 607.037 830.137 608.076 831.332 609C833.273 610.502 834.91 613.073 836 615.25L835.581 615.576C834.117 613.882 832.896 612.204 831.049 610.911C828.796 609.333 826.42 607.459 824.25 605.745C822.927 604.701 821.812 603.42 820.185 602.867L819.69 603.42L819.356 602.709C818.202 600.293 817.062 598.871 814.972 597.134L814.306 596.575C812.64 595.205 810.867 594.196 808.98 593.175L810.281 591.321Z"/>
	<path fill="#FFEE49" transform="scale(0.5 0.5)" d="M795.778 588.8C797.775 589.323 803.082 591.71 804.806 591.495L804.994 591.964C806.859 596.367 811.839 597.152 811.75 602.336C811.101 603.494 810.746 604.353 809.407 604.795C807.132 605.546 804.571 605.004 802.282 604.585C802.165 604.292 799.989 603.107 799.606 602.855C797.869 601.714 796.153 600.326 794.75 598.794C792.585 596.431 790.953 592.932 789.978 589.902C791.554 588.83 793.918 588.948 795.778 588.8Z"/>
	<defs>
		<linearGradient id="gradient_4" gradientUnits="userSpaceOnUse" x1="715.75" y1="571.25" x2="715.38898" y2="590.5">
			<stop offset="0" stop-color="#FA6600"/>
			<stop offset="1" stop-color="#F8B300"/>
		</linearGradient>
	</defs>
	<path fill="url(#gradient_4)" transform="scale(0.5 0.5)" d="M795.778 588.8C790.353 588.015 785.332 586.676 780 585.559C771.641 583.809 763.196 582.324 754.75 581.054C725.557 576.664 695.955 576.1 666.5 577.035C654.693 577.41 642.963 577.585 631.284 579.565C629.684 579.837 626.981 580.382 625.622 579.5C627.429 577.975 632.33 577.494 634.795 576.939C663.55 570.456 695.45 568.47 724.815 570.992C735.916 571.945 747.027 573.327 758.042 574.981C775.707 577.633 794.885 581.824 810.281 591.321L808.98 593.175L804.806 591.495C803.082 591.71 797.775 589.323 795.778 588.8Z"/>
	<defs>
		<linearGradient id="gradient_5" gradientUnits="userSpaceOnUse" x1="800.25" y1="341.25" x2="793.573" y2="303.91">
			<stop offset="0" stop-color="#FF1000"/>
			<stop offset="1" stop-color="#FF5A00"/>
		</linearGradient>
	</defs>
	<path fill="url(#gradient_5)" transform="scale(0.5 0.5)" d="M699.152 322.715L700.095 322.688C722.391 322.122 744.385 324.178 766.25 328.453C777.072 330.569 787.265 332.974 797.062 338.203C799.95 339.745 803.02 341.319 805.402 343.588C795.502 341.288 785.829 338.115 775.936 335.745C745.433 328.439 713.308 324.582 682.113 329.171C660.428 332.25 638.721 337.134 617.815 343.66C606.133 347.306 594.959 352.595 582.957 355.012C589.542 351.044 596.038 346.995 603.022 343.75C632.378 330.11 667.017 324.132 699.152 322.715Z"/>
	<path fill="#FB5607" transform="scale(0.5 0.5)" d="M694.08 350.717C715.673 349.852 737.481 351.135 758.75 354.948C770.494 357.054 781.792 359.717 792.896 364.175C797.326 365.953 802.451 367.892 806.229 370.795C795.268 368.601 784.507 365.357 773.567 362.997C744.308 356.682 713.186 353.273 683.383 356.613C661.388 359.452 638.827 364.764 617.589 371.137C605.375 374.803 593.688 379.341 581.236 382.286C584.977 378.621 591.577 375.908 596.308 373.689C626.591 359.484 660.757 352.201 694.08 350.717Z"/>
	<defs>
		<linearGradient id="gradient_6" gradientUnits="userSpaceOnUse" x1="796.75" y1="450.25" x2="793.63397" y2="421.936">
			<stop offset="0" stop-color="#F72100"/>
			<stop offset="1" stop-color="#FF5C00"/>
		</linearGradient>
	</defs>
	<path fill="url(#gradient_6)" transform="scale(0.5 0.5)" d="M696.812 432.725C714.917 431.989 732.832 433.029 750.723 435.853C770.522 438.979 788.884 443.803 806.103 454.32C795.964 451.358 785.952 448.019 775.652 445.63C766.408 443.486 756.87 442.215 747.476 440.924C726.499 438.041 705.508 436.098 684.38 438.713C672.237 440.009 659.898 442.665 648 445.392C639.427 447.357 630.896 449.32 622.5 451.971C608.909 456.262 595.747 461.476 581.934 465.113C615.818 443.226 656.823 433.982 696.812 432.725Z"/>
	<defs>
		<linearGradient id="gradient_7" gradientUnits="userSpaceOnUse" x1="798.75" y1="478.25" x2="794.52502" y2="446.46301">
			<stop offset="0" stop-color="#F51600"/>
			<stop offset="1" stop-color="#FF6500"/>
		</linearGradient>
	</defs>
	<path fill="url(#gradient_7)" transform="scale(0.5 0.5)" d="M692.48 460.214C713.769 459.25 734.403 461.033 755.366 464.688C773.058 467.773 791.876 472.185 807.238 481.864C796.576 479.349 786.069 476.145 775.386 473.635C747.245 467.021 717.517 463.043 688.618 465.813C680.043 466.534 671.624 468.216 663.181 469.801C648.55 472.548 634.368 475.703 620.17 480.246C607.864 484.183 596.015 490.105 583.154 491.806C589.905 486.239 598.253 482.589 606.273 479.243C633.663 467.818 662.848 461.629 692.48 460.214Z"/>
	<path fill="#FB5607" transform="scale(0.5 0.5)" d="M693.304 405.214C702.415 404.557 711.789 405.055 720.908 405.47C749.549 406.776 781.011 410.408 805.611 426.342C801.872 425.736 798.257 424.149 794.637 423.031C789.382 421.409 784.033 420.062 778.673 418.84C748.159 411.884 716.893 408.655 685.621 411.385C678.729 411.877 671.699 413.418 664.905 414.686C649.389 417.582 633.822 421.262 618.75 425.98C606.495 429.816 595.119 434.41 582.453 436.926C602.233 423.622 623.555 416.99 646.658 411.964C662.102 408.605 677.514 406.175 693.304 405.214Z"/>
	<path fill="#FB5607" transform="scale(0.5 0.5)" d="M689.67 487.711C694.952 487.155 700.603 487.421 705.928 487.419C720.258 487.413 733.781 488.697 747.959 490.734C768.43 493.676 789.159 498.219 806.861 509.39C796.25 507.23 785.946 503.644 775.396 501.19C747.547 494.713 719.754 492.346 691.225 493.025C667.046 494.796 641.822 500.479 618.711 507.696C606.956 511.368 595.782 516.152 583.766 519.009L583.817 518.724C592.179 512.77 601.613 507.425 611.188 503.71C620.082 500.26 629.576 497.971 638.833 495.709C655.789 491.565 672.223 488.82 689.67 487.711Z"/>
	<path fill="#FB5607" transform="scale(0.5 0.5)" d="M684.474 543.211C691.312 542.809 698.276 543.03 705.127 543.049C723.121 543.097 740.263 544.493 758 547.473C775.093 550.344 791.826 554.576 806.922 563.322C795.058 561.743 783.302 557.854 771.521 555.483C746.584 550.464 722.027 548.24 696.625 548.35C682.1 548.489 667.708 551.102 653.5 553.909C640.386 556.499 627.128 559.397 614.313 563.228C609.28 564.732 604.266 566.504 599.38 568.433C594.622 570.312 589.676 572.49 584.521 572.815L584.25 572.084C589.416 567.399 596.648 564.26 603.063 561.602C618.366 555.262 633.922 551.354 650.133 548.215C661.541 546.006 672.881 544.135 684.474 543.211Z"/>
	<path fill="#FB5607" transform="scale(0.5 0.5)" d="M697.035 515.225C709.752 514.922 722.344 515.652 735 516.772C760.168 518.999 784.426 523.62 806.597 536.218C801.204 536.022 794.852 533.507 789.614 532.076C783.226 530.33 776.735 528.8 770.252 527.45C741.798 521.524 712.374 519.811 683.397 521.541C661.806 524.162 640.104 528.792 619.25 535.013C606.993 538.67 595.17 543.269 582.751 546.401L582.919 546.066C583.659 545.201 585.233 544.347 586.178 543.667C589.899 540.985 593.602 538.797 597.743 536.84C627.922 522.575 663.924 516.534 697.035 515.225Z"/>
	<path fill="#FB5607" transform="scale(0.5 0.5)" d="M699.074 377.216C716.156 376.383 732.956 378.027 749.822 380.586C769.486 383.571 789.621 387.189 806.172 398.89C794.235 395.738 782.371 392.179 770.301 389.572C741.987 383.457 711.276 380.439 682.467 384.428C660.961 387.113 639.251 392.527 618.59 398.968C606.621 402.699 594.915 407.511 582.633 410.066C586.233 406.935 590.649 404.589 594.83 402.316C611.474 393.266 628.691 388.706 647.086 384.715C664.35 380.969 681.417 378.183 699.074 377.216Z"/>
	<path fill="#5C1AC9" transform="scale(0.5 0.5)" d="M513.421 698.314L516.734 689.297C530.175 658.414 554.606 636.591 585.605 624.337C642.15 601.984 706.713 604.343 765.749 614.094C774.784 615.586 783.818 617.447 792.729 619.545C796.21 620.365 800.109 620.853 803.389 622.278L802.773 623.014L802.145 622.776L789.441 619.755L787.769 619.357C786.348 618.966 784.949 618.925 783.538 618.462C782.656 618.173 782.031 618.058 781.105 617.995C779.293 617.872 777.757 617.108 775.864 616.989C774.871 616.926 775.775 616.977 774.502 616.54L772.941 616.255L772 616.063L771.162 616.035C769.372 615.94 771.326 616.118 769.5 615.531C767.527 614.898 765.566 615.329 763.5 614.505C762.836 614.24 761.033 614.175 760.25 614.039L759.038 614.109C757.959 614.185 757.447 614.137 756.5 613.543C754.072 614.065 753.581 614.916 751.948 616.596C751.731 617.678 751.793 617.997 751.975 619.053C752.314 621.015 752.274 622.946 752.805 624.866L752.985 625.585C753.818 628.695 755.73 631.407 756.344 634.606C756.535 635.601 756.81 635.828 757.435 636.571C757.876 637.094 758.132 637.633 758.45 638.234C759.916 641.008 764.536 644.763 764.33 647.883C764.187 650.058 766.697 653.427 768.074 654.987C769.467 656.566 772.003 658.248 772.005 660.442L771.815 661.771L773.25 663.755C774.515 663.755 774.38 663.761 775.5 664.255L776.748 664.42L786.36 666.516C787.207 666.758 787.905 666.771 788.748 666.92L790 667.255L790.593 667.317C791.943 667.495 793.367 668.121 794.748 668.42L800.834 669.904L802.215 670.335C803.068 670.619 803.875 670.735 804.748 670.92L821.889 675.42C824.042 675.99 826.417 676.556 828.264 677.787L830.1 678.8C814.696 675.634 799.673 670.411 784.224 667.223C767.064 663.681 749.798 660.583 732.366 658.709C683.394 653.445 630.643 656.315 583.179 669.922C567.165 674.513 551.449 679.82 536.354 686.925C532.065 688.944 527.719 690.927 523.519 693.123C520.69 694.602 516.496 697.99 513.421 698.314Z"/>
</svg>
