<?xml version="1.0" encoding="utf-8" ?>
<svg xmlns="http://www.w3.org/2000/svg" xmlns:xlink="http://www.w3.org/1999/xlink" width="512" height="512">
	<path fill="#3A86FF" transform="scale(0.5 0.5)" d="M173.02 840.129L172.895 840.04C109.252 774.353 62.7653 691.827 44.3497 602C39.867 580.134 36.6062 557.394 36.0292 535.043C32.766 408.652 79.1226 280.15 166.705 188.25C186.938 167.02 207.947 145.877 231.195 127.91C252.822 111.196 276.971 97.0214 301.414 84.8647C310.663 80.2646 319.897 75.4435 329.376 71.3351C364.716 56.0181 403.75 44.5738 441.742 38.4302C465.021 34.6656 488.422 33.3115 511.969 32.7702L511.999 103.005L511.524 103.505C490.039 104.558 468.646 105.687 447.444 109.619C393.813 119.563 343.995 141.082 298.16 170.295C270.203 188.113 244.439 208.589 222.107 233.21C211.34 245.08 201.077 257.164 191.715 270.188C178.229 288.95 166.684 308.861 156.156 329.401C147.999 345.317 140.214 361.504 133.97 378.281C119.911 416.056 112.171 456.319 109.859 496.5C109.137 509.045 108.746 521.736 109.357 534.294C111.44 577.099 119.546 619.864 135.945 659.599C145.972 683.894 159.772 707.721 174.253 729.603C189.502 752.646 206.843 774.992 226.508 794.421C224.581 797.098 220.693 799.432 218.154 801.749C207.723 811.272 197.212 820.609 186.397 829.693C183.615 832.03 180.818 834.338 177.906 836.513C176.323 837.696 174.424 838.771 173.02 840.129Z"/>
	<path fill="#8338EC" transform="scale(0.5 0.5)" d="M511.969 32.7702C529.698 32.6161 547.442 32.8649 565.083 34.8306C579.256 36.4099 593.149 39.1532 607.082 42.1347C671.195 55.8539 731.843 83.3658 784.506 122.388C800.375 134.147 815.545 146.555 829.642 160.417L845.991 177.555C868.938 198.404 887.901 222.058 905.221 247.714C925.659 277.99 942.622 309.573 955.753 343.669C958.428 350.616 961.086 357.598 963.4 364.675C964.37 367.641 965.648 370.784 966.194 373.848C968.492 379.18 969.854 385.403 971.342 391.025C975.35 406.17 978.652 421.409 981.162 436.874C986.271 468.356 988.974 499.366 988.248 531.278C987.96 543.971 987.43 556.91 985.695 569.5C980.312 608.552 969.288 646.568 954.727 683.14C933.285 736.996 900.134 785.319 861.837 828.485C857.604 833.256 853.228 837.906 848.838 842.532C847.761 843.666 846.147 845.948 844.877 846.64C836.171 855.777 826.817 863.972 817.286 872.222C787.609 897.91 755.146 919.799 720.495 938.209C688.259 955.336 654.032 969.347 618.5 977.98C586.881 985.663 555.007 988.729 522.564 989.526L516.484 989.649C505.166 990.02 493.862 989.408 482.569 988.791C464.833 987.822 447.049 986.097 429.569 982.864C359.053 969.822 291.255 937.079 233.931 894.456C220.983 884.828 208.649 874.336 196.518 863.708L173.02 840.129C174.424 838.771 176.323 837.696 177.906 836.513C180.818 834.338 183.615 832.03 186.397 829.693C197.212 820.609 207.723 811.272 218.154 801.749C220.693 799.432 224.581 797.098 226.508 794.421C206.843 774.992 189.502 752.646 174.253 729.603C159.772 707.721 145.972 683.894 135.945 659.599C119.546 619.864 111.44 577.099 109.357 534.294C108.746 521.736 109.137 509.045 109.859 496.5C112.171 456.319 119.911 416.056 133.97 378.281C140.214 361.504 147.999 345.317 156.156 329.401C166.684 308.861 178.229 288.95 191.715 270.188C201.077 257.164 211.34 245.08 222.107 233.21C244.439 208.589 270.203 188.113 298.16 170.295C343.995 141.082 393.813 119.563 447.444 109.619C468.646 105.687 490.039 104.558 511.524 103.505L511.999 103.005L511.969 32.7702Z"/>
	<path fill="#3536E0" transform="scale(0.5 0.5)" d="M876.36 344.486C878.953 347.975 880.416 352.923 882.154 356.922C886.362 366.604 890.756 376.352 894.334 386.291C899.146 399.654 902.825 413.764 905.439 427.722C906 430.715 907.222 434.193 907.082 437.213L907.042 437.299C907.271 442.7 908.352 448.001 908.996 453.37C909.932 461.17 910.52 468.92 911.153 476.74C911.444 480.339 912.485 485.414 911.667 488.833C911.575 487.23 911.507 486.211 910.755 484.75L910.885 484.188C911.098 482.886 910.953 481.557 910.875 480.248C910.326 481.691 910.432 483.211 910.415 484.733C909.373 474.286 908.489 463.943 906.82 453.556C904.096 436.601 899.994 419.365 895.191 402.887C892.65 394.171 888.27 385.979 885.917 377.282L885.797 376.821C888.007 379.104 888.961 382.642 890.144 385.582C896.803 402.126 900.712 419.319 904.376 436.703L907.242 450.502C907.544 451.905 907.68 453.267 907.808 454.694C907.916 453.533 907.83 452.409 907.755 451.25L907.255 450.5C907.334 447.556 906.434 444.79 906.293 441.891L906.255 441C905.521 439.899 905.755 439.041 905.755 437.75C905.044 436.684 905.255 435.994 905.255 434.75L904.755 434.25L904.755 432.5L904.42 431.667C904.199 430.727 904.295 429.812 904.016 428.833C903.753 427.915 903.458 427.081 903.332 426.129L902.255 420.5C901.841 419.264 901.972 420.106 901.832 419.115L901.255 415.75L900.755 415.25L900.755 414L900.42 413.167C900.134 412.123 900.132 411.08 899.755 410L899.377 409C899.23 408.189 899.301 407.567 899.029 406.75C898.705 405.778 898.313 404.868 898.121 403.854C897.779 402.054 897.174 400.455 896.775 398.698L896.585 397.833L895.755 395.5L893.255 388C892.762 386.323 891.885 384.795 891.42 383.167C890.802 381.005 889.617 379.038 889.154 376.833L888.758 375C888.301 373.936 887.901 372.784 887.399 371.733C886.926 370.744 887.129 371.275 886.784 370.263C884.598 363.844 881.421 357.431 878.703 351.195C877.969 349.51 876.054 346.276 876.36 344.486Z"/>
	<path fill="#3536E0" transform="scale(0.5 0.5)" d="M845.991 177.555C868.938 198.404 887.901 222.058 905.221 247.714C925.659 277.99 942.622 309.573 955.753 343.669C958.428 350.616 961.086 357.598 963.4 364.675C964.37 367.641 965.648 370.784 966.194 373.848L965.379 373.707L964.503 371.997L964.378 371C964.087 369.957 963.422 369.309 963.381 368.093C963.31 366.009 961.837 364.09 961.378 362C961.166 361.037 961.393 361.504 961.037 360.779C960.614 359.915 959.946 358.944 959.755 358C959.335 355.927 958.145 354.392 957.755 352.5C957.538 351.45 957.54 350.714 957.047 349.734L956.585 348.833L953.767 341.737C953.561 340.995 953.43 340.307 953.083 339.608C952.259 337.949 951.859 336.18 951.07 334.593C950.253 332.948 949.854 331.181 949.049 329.561C947.776 326.999 946.959 324.177 945.753 321.625L940.585 311.333L939.255 308.5L938.42 307.167C937.663 305.004 938.824 307.313 937.925 305.602L935.434 300.684C935.045 300.016 934.724 299.544 934.565 298.766C934.405 297.982 934.178 297.913 933.626 297.333L933.5 296.5C932.967 295.873 932.58 295.347 932.216 294.602L928.626 287.333C927.448 285.458 924.964 282.302 924.545 280.245L924.5 279.75C921.542 276.672 920.055 271.772 917.378 268.5C916.661 267.625 916.478 266.819 915.851 265.921C914.922 264.59 913.444 262.643 912.82 261.243C912.417 260.339 912.652 260.681 912.107 259.953L906.255 251.25C905.265 249.952 904.547 248.608 903.628 247.274L897.5 238.332C894.105 233.585 890.77 228.794 887.253 224.125C886.262 222.81 884.955 221.687 884.003 220.375C882.932 218.901 881.588 217.759 880.562 216.306C878.498 213.386 875.983 210.953 873.875 208.125C872.858 206.761 871.516 205.618 870.589 204.272C866.484 198.313 860.646 193.319 855.75 188C854.004 187.821 852.234 187.547 850.496 187.895C847.432 188.51 845.064 187.856 842.087 189.266L841.097 189.731L839.633 190.156C838.63 190.68 838.301 191.19 837.127 191.525C833.996 192.418 832.882 194.658 830.331 196.287C829.108 197.068 828.248 197.588 827.452 198.837L826.837 199.772C825.108 201.915 822.414 204.103 819.652 204.428C818.597 204.553 817.341 206.165 816.567 206.898C812.729 210.532 809 214.278 805.311 218.063C803.769 219.645 801.775 222.424 799.782 223.352L799.137 223.63L798.393 223.378C803.876 218.518 808.928 213.145 814.136 207.993C819.657 202.532 825.334 197.247 830.863 191.796C835.774 186.953 840.56 181.818 845.991 177.555Z"/>
	<path fill="#3B2FE0" transform="scale(0.5 0.5)" d="M798.393 223.378L799.137 223.63C798.218 224.803 797.32 225.378 797.41 226.915C800.1 229.78 802.813 232.631 805.106 235.831C810.477 243.326 817.338 249.994 823.034 257.277C834.036 271.341 844.793 285.644 854.151 300.877C858.433 307.847 862.029 315.226 865.91 322.415C868.403 327.032 870.616 331.678 872.843 336.427C874.076 339.056 875.756 341.628 876.36 344.486C876.054 346.276 877.969 349.51 878.703 351.195C881.421 357.431 884.598 363.844 886.784 370.263C887.129 371.275 886.926 370.744 887.399 371.733C887.901 372.784 888.301 373.936 888.758 375L889.154 376.833C889.617 379.038 890.802 381.005 891.42 383.167C891.885 384.795 892.762 386.323 893.255 388L895.755 395.5L896.585 397.833L896.775 398.698C897.174 400.455 897.779 402.054 898.121 403.854C898.313 404.868 898.705 405.778 899.029 406.75C899.301 407.567 899.23 408.189 899.377 409L899.755 410C900.132 411.08 900.134 412.123 900.42 413.167L900.755 414L900.755 415.25L901.255 415.75L901.832 419.115C901.972 420.106 901.841 419.264 902.255 420.5L903.332 426.129C903.458 427.081 903.753 427.915 904.016 428.833C904.295 429.812 904.199 430.727 904.42 431.667L904.755 432.5L904.755 434.25L905.255 434.75C905.255 435.994 905.044 436.684 905.755 437.75C905.755 439.041 905.521 439.899 906.255 441L906.293 441.891C906.434 444.79 907.334 447.556 907.255 450.5L907.755 451.25C907.83 452.409 907.916 453.533 907.808 454.694C907.68 453.267 907.544 451.905 907.242 450.502L904.376 436.703C900.712 419.319 896.803 402.126 890.144 385.582C888.961 382.642 888.007 379.104 885.797 376.821C879.864 361.461 873.515 346.541 865.846 331.961C862.989 326.529 860.133 320.868 856.755 315.75C856.222 314.942 855.748 314.246 855.316 313.374L844.753 295.748C842.598 291.893 839.937 288.387 837.42 284.748C828.714 272.165 819.146 260.76 809.755 248.75C806.469 244.548 802.776 240.547 799.349 236.445C798.372 235.275 796.8 234.1 796.003 232.875C795.454 232.033 793.961 230.739 793.647 229.997C793.419 229.456 793.615 228.802 793.415 228.25C793.212 227.686 792.168 226.689 791.757 226.175L792.557 225.736L794.25 226.369C795.861 225.925 797.161 224.477 798.393 223.378Z"/>
	<path fill="#3536E0" transform="scale(0.5 0.5)" d="M226.508 794.421L228.573 794.481C232.535 797.803 236.192 801.364 239.838 805.024C242.172 807.366 244.848 809.765 246.536 812.63L246.557 812.996C239.272 823.128 228.528 831.625 219.547 840.273C211.657 847.87 204.239 855.944 196.518 863.708L173.02 840.129C174.424 838.771 176.323 837.696 177.906 836.513C180.818 834.338 183.615 832.03 186.397 829.693C197.212 820.609 207.723 811.272 218.154 801.749C220.693 799.432 224.581 797.098 226.508 794.421Z"/>
	<path fill="#FB5607" transform="scale(0.5 0.5)" d="M511.887 147.557C544.348 147.143 576.524 152.553 607.656 161.5C613.988 163.32 620.348 165.192 626.579 167.332C630.251 168.594 634.739 171.095 638.457 171.66C645.803 174.639 652.942 178.202 660.109 181.587C678.943 190.481 697.612 200.522 714.636 212.573C731.041 224.187 745.819 237.417 760.001 251.623C768.076 259.71 776.177 267.723 783.567 276.453C806.685 303.758 826.339 336.665 840.338 369.539L845.69 383.45C850.717 400.284 857.127 416.36 861.343 433.51C871.145 473.385 870.767 515.004 867.859 555.689C867.24 564.346 866.016 572.975 865.38 581.652C863.112 597.055 858.808 612.236 853.849 626.972C845.651 651.335 835.108 675.359 821.519 697.239C816.11 705.947 809.958 714.164 804.002 722.5C781.346 754.211 755.528 781.831 724.14 805.188C707.149 817.832 689.86 828.794 671 838.443C662.885 842.595 654.506 846.811 645.853 849.716C637.827 852.355 630.285 856.151 622.236 858.755C610.016 862.71 597.552 865.686 585.003 868.368C573.717 870.78 562.437 872.943 550.923 873.962C539.599 874.964 528.206 874.974 516.85 874.929C482.439 874.595 447.63 870.648 414.531 860.877C385.862 852.413 358.248 839.303 332.569 824.11C323.007 818.453 313.125 813.048 304.094 806.556C294.326 799.533 284.801 791.331 275.853 783.283C272.163 779.963 268.559 775.466 264.504 772.697L263.869 772.275L263.094 770.918L262.951 770.792C218.886 727.997 185.103 673.634 167.567 614.71C163.835 602.17 161.252 589.432 158.885 576.578C156.033 561.099 153.866 545.524 153.11 529.788C152.178 510.41 153.636 490.741 155.932 471.5C164.836 396.888 197.485 325.4 248.189 269.838C266.887 249.348 287.536 230.44 310.224 214.421C331.587 199.337 354.9 187.113 378.94 176.921C404.554 166.063 431.091 157.586 458.536 152.688C474.779 149.789 491.031 148.582 507.492 147.84L511.887 147.557Z"/>
	<path fill="#FF006E" transform="scale(0.5 0.5)" d="M638.457 171.66C645.803 174.639 652.942 178.202 660.109 181.587C678.943 190.481 697.612 200.522 714.636 212.573C731.041 224.187 745.819 237.417 760.001 251.623C768.076 259.71 776.177 267.723 783.567 276.453C806.685 303.758 826.339 336.665 840.338 369.539L845.69 383.45C839.211 385.004 830.691 384.059 824.006 384.058C811.005 384.057 798.005 384.052 785.004 384.05C755.221 384.047 725.447 384.333 695.663 384.258C687.957 384.239 680.19 384.6 672.5 384.444C670.189 384.397 667.903 384.076 665.706 383.338L665 383.093C660.925 381.737 657.052 379.718 653.497 377.307C644.692 371.334 638.877 363.057 636.82 352.554C635.16 344.082 635.755 334.812 635.905 326.196C636.191 309.742 637.19 293.301 637.495 276.849C638.146 241.744 637.105 206.78 638.457 171.66Z"/>
	<path fill="#FF006E" transform="scale(0.5 0.5)" d="M865.38 581.652C863.112 597.055 858.808 612.236 853.849 626.972C845.651 651.335 835.108 675.359 821.519 697.239C816.11 705.947 809.958 714.164 804.002 722.5C781.346 754.211 755.528 781.831 724.14 805.188C707.149 817.832 689.86 828.794 671 838.443C662.885 842.595 654.506 846.811 645.853 849.716C645.271 848.333 645.024 847.174 645.019 845.684C644.991 837.692 645.513 829.696 645.523 821.698C645.577 777.64 645.561 733.578 645.508 689.52C645.488 672.717 645.434 655.914 645.424 639.111C645.418 629.016 644.7 618.115 646.336 608.143C647.389 601.722 650.178 595.843 654.811 591.241C658.991 587.088 665.708 583.352 671.54 582.373C678.338 581.232 685.396 581.485 692.268 581.477C704.456 581.464 716.64 581.802 728.826 581.792C774.342 581.754 819.867 581.675 865.38 581.652Z"/>
	<path fill="#FFBE0B" transform="scale(0.5 0.5)" d="M263.094 770.918L262.951 770.792C218.886 727.997 185.103 673.634 167.567 614.71C163.835 602.17 161.252 589.432 158.885 576.578C156.033 561.099 153.866 545.524 153.11 529.788C152.178 510.41 153.636 490.741 155.932 471.5C164.836 396.888 197.485 325.4 248.189 269.838C266.887 249.348 287.536 230.44 310.224 214.421C331.587 199.337 354.9 187.113 378.94 176.921C404.554 166.063 431.091 157.586 458.536 152.688C474.779 149.789 491.031 148.582 507.492 147.84L510.75 148.38C511.252 151.059 511.019 153.923 511.016 156.644C511.01 161.488 510.996 166.333 510.982 171.177C510.925 190.652 510.646 210.116 510.517 229.585C510.354 254.14 510.499 278.709 510.599 303.264C510.665 319.583 511.137 336.247 509.913 352.526C523.082 353.883 535.89 358.91 544.516 369.427C548.089 373.784 550.9 379.106 552.289 384.576C555.574 397.515 554.523 412.333 554.507 425.619C554.491 440.104 554.47 454.595 554.318 469.078C575.173 466.897 596.932 468.456 617.896 468.449C625.606 468.447 633.315 468.412 641.024 468.398C645.078 468.391 649.49 468.05 653.5 468.67C660.407 469.739 667.964 473.045 673.421 477.401C682.3 484.489 689.05 497.358 690.163 508.641C691.407 521.258 686.237 536.267 678.172 546.021C671.413 554.195 660.79 559.547 650.231 560.412L554.473 560.092C555.19 574.569 555.146 589.041 555.209 603.531C555.253 613.663 556.058 624.545 554.188 634.534L554.018 635.5C551.907 647.087 544.722 658.137 534.994 664.741C529.195 668.677 522.854 670.325 516.242 672.357C512.79 675.342 508.861 676.937 504.87 679.028C496.51 683.408 488.059 687.49 479.5 691.465C446.866 706.621 413.746 720.352 380.414 733.872C361.253 741.645 342.317 749.929 322.739 756.642C306.582 762.183 290.117 766.698 273.302 769.687C270.272 770.226 266.564 771.294 263.533 770.992L263.094 770.918Z"/>
	<path fill="#3A86FF" transform="scale(0.5 0.5)" d="M509.913 352.526C523.082 353.883 535.89 358.91 544.516 369.427C548.089 373.784 550.9 379.106 552.289 384.576C555.574 397.515 554.523 412.333 554.507 425.619C554.491 440.104 554.47 454.595 554.318 469.078C575.173 466.897 596.932 468.456 617.896 468.449C625.606 468.447 633.315 468.412 641.024 468.398C645.078 468.391 649.49 468.05 653.5 468.67C660.407 469.739 667.964 473.045 673.421 477.401C682.3 484.489 689.05 497.358 690.163 508.641C691.407 521.258 686.237 536.267 678.172 546.021C671.413 554.195 660.79 559.547 650.231 560.412L554.473 560.092C555.19 574.569 555.146 589.041 555.209 603.531C555.253 613.663 556.058 624.545 554.188 634.534L554.018 635.5C551.907 647.087 544.722 658.137 534.994 664.741C529.195 668.677 522.854 670.325 516.242 672.357C507.564 672.932 497.55 669.746 490.259 665.115C480.252 658.76 473.539 647.871 470.859 636.5C469.741 631.757 469.769 626.637 469.644 621.779C469.404 612.492 469.645 603.209 469.813 593.924C470.012 582.965 470 572.004 470.001 561.043L378.405 560.934C366.033 561.008 356.793 557.958 347.919 549.079C337.909 539.063 333.397 525.478 333.542 511.454C333.663 499.691 338.685 488.626 347.046 480.45C352.999 474.629 360.597 470.62 368.75 468.877C372.294 468.12 376.056 468.368 379.665 468.332C386.297 468.264 392.929 468.237 399.562 468.202C422.879 468.079 446.216 467.786 469.532 468.043C468.652 450.219 468.742 432.308 468.977 414.469C469.1 405.191 468.59 394.903 470.419 385.819C471.62 379.861 474.795 372.794 478.577 368.049C486.04 358.684 498.322 353.769 509.913 352.526Z"/>
</svg>
