<?xml version="1.0" encoding="utf-8" ?>
<svg xmlns="http://www.w3.org/2000/svg" xmlns:xlink="http://www.w3.org/1999/xlink" width="512" height="512">
	<path fill="#FF006E" transform="scale(0.5 0.5)" d="M397.086 160.377C398.594 131.893 404.947 106.792 426.874 86.9675C439.628 75.4372 456.589 66.9295 473.719 64.7887C485.503 63.316 497.826 63.9424 509.713 63.9309C521.705 63.9193 533.921 63.4263 545.876 64.09C567.21 65.2742 589.741 78.7929 603.562 94.4847C615.632 108.189 623.422 126.908 626.139 144.869C626.933 150.122 626.982 155.493 627.532 160.775L619.754 160.933L397.086 160.377Z"/>
	<path fill="#8338EC" transform="scale(0.5 0.5)" d="M397.086 160.377L619.754 160.933L627.532 160.775C668.959 159.429 710.581 160.265 752.031 160.229C765.491 160.217 778.952 160.189 792.412 160.203C802.337 160.213 812.775 159.71 822.56 161.509C835.53 163.893 848.398 169.351 858.14 178.401C869.907 189.334 879.312 205.805 879.782 222.138C879.994 229.5 879.952 236.889 879.996 244.255C880.02 248.287 880.547 253.138 879.717 257.087C879.097 260.038 877.19 262.977 875.146 265.142C870.653 269.901 865.602 271.925 859.126 271.979L824.074 272.063L727.984 271.58L513.644 271.606L514.641 335.75L513.659 336.58C448.73 336.45 383.796 336.403 318.867 336.61C302.599 336.662 286.332 336.809 270.065 336.874C265.687 336.892 261.309 336.901 256.932 336.898C255.176 336.897 252.829 336.604 251.126 336.91C246.585 336.217 241.294 336.66 236.675 336.605C226.595 336.486 216.475 336.089 206.413 336.843L200.815 271.626C196.186 272.355 190.742 271.888 186.024 271.938C178.77 272.014 171.499 272.352 164.25 272.337C158.366 272.326 154.136 270.581 149.975 266.25C148.061 264.258 146.464 262.076 145.647 259.414C144.266 254.914 144.54 249.397 144.52 244.709C144.491 237.872 144.499 231.034 144.507 224.197L144.477 223.592C143.841 208.861 152.188 192.907 162.064 182.374C173.709 169.954 191.694 161.098 208.782 160.447C213.943 159.499 220.272 160.134 225.551 160.136C237.03 160.14 248.509 160.178 259.989 160.201C289.619 160.261 319.25 160.117 348.881 160.169C364.924 160.197 381.057 160.696 397.086 160.377Z"/>
	<path fill="#3A86FF" transform="scale(0.5 0.5)" d="M244.18 223.921L512.217 223.895C511.991 235.368 512.345 246.77 512.552 258.234C512.609 261.399 511.823 267.886 513.329 270.5L512.8 270.817C512.144 271.215 512.39 271.035 511.931 271.416C488.553 271.46 465.184 271.092 441.809 271.065C393.54 271.01 345.27 271.191 297 271.178C276.718 271.172 256.439 271.458 236.155 271.413C228.781 271.397 221.406 271.371 214.032 271.362C209.727 271.356 205.088 271.132 200.815 271.626C196.186 272.355 190.742 271.888 186.024 271.938C178.77 272.014 171.499 272.352 164.25 272.337C158.366 272.326 154.136 270.581 149.975 266.25C148.061 264.258 146.464 262.076 145.647 259.414C144.266 254.914 144.54 249.397 144.52 244.709C144.491 237.872 144.499 231.034 144.507 224.197L244.18 223.921Z"/>
	<path fill="#FF006E" transform="scale(0.5 0.5)" d="M200.815 271.626C205.088 271.132 209.727 271.356 214.032 271.362C221.406 271.371 228.781 271.397 236.155 271.413C256.439 271.458 276.718 271.172 297 271.178C345.27 271.191 393.54 271.01 441.809 271.065C465.184 271.092 488.553 271.46 511.931 271.416L513.644 271.606L514.641 335.75L513.659 336.58C448.73 336.45 383.796 336.403 318.867 336.61C302.599 336.662 286.332 336.809 270.065 336.874C265.687 336.892 261.309 336.901 256.932 336.898C255.176 336.897 252.829 336.604 251.126 336.91C246.585 336.217 241.294 336.66 236.675 336.605C226.595 336.486 216.475 336.089 206.413 336.843L200.815 271.626Z"/>
	<path fill="#FB5607" transform="scale(0.5 0.5)" d="M513.644 271.606L727.984 271.58L824.074 272.063C823.608 285.255 821.791 298.391 820.436 311.517C817.42 340.736 813.755 369.895 810.624 399.107C800.98 489.08 791.058 579.034 780.688 668.928C776.673 703.733 773.48 738.665 769.667 773.5C767.689 791.563 764.946 809.539 763.018 827.61C760.993 846.58 758.924 865.56 756.631 884.498C755.553 893.403 755.101 902.668 753.173 911.428C750.488 923.628 742.716 935.569 733.677 944.006C725.56 951.581 715.761 956.879 705 959.548L704.076 959.793C698.526 961.227 692.025 960.851 686.315 960.863C678.164 960.88 670.013 960.861 661.862 960.86C637.351 960.857 612.85 961.128 588.338 960.76C587.401 959.844 581.742 960.347 579.958 960.343C574.205 960.329 568.451 960.31 562.697 960.302C560.84 960.299 557.308 960.795 555.75 960L558.797 959.87L566 959.878C567.517 959.755 568.975 959.747 570.5 959.755L571.188 959.261C573.519 957.741 574.088 955.461 575.515 953.188C578.95 947.719 581.994 941.99 586.234 937.057C588.769 934.108 590.939 930.298 592.658 926.805L593.037 926.021C594.921 922.192 596.262 917.829 596.967 913.617C597.464 910.652 598.46 907.013 598.211 904.007C598.102 902.685 598.505 901.567 598.389 900.245C597.942 895.127 598.211 889.537 597.137 884.475C595.485 876.68 598.93 868.362 596.531 860.631C595.685 857.905 594.779 855.362 594.719 852.473L594.717 851.943C589.522 847.182 575.321 848.689 568.414 848.688C566.569 848.688 563.63 849.066 561.929 848.351L561.305 848.065L561.066 847.937L561.133 400.017L560.85 398.121C560.484 397.868 560.178 397.487 559.75 397.362C558.866 397.104 556.788 397.389 555.828 397.429C550.815 397.639 545.836 398.348 540.836 398.714C531.382 399.405 521.94 399.578 512.503 400.592C512.718 390.465 511.045 341.931 513.659 336.58L514.641 335.75L513.644 271.606Z"/>
	<path fill="#7667FF" transform="scale(0.5 0.5)" d="M669.739 399.957C676.92 399.913 724.499 398.84 727.136 401.892C728.706 403.708 728.132 407.649 727.796 409.893L722.581 459.696C722.523 463.564 722.298 467.144 721.477 470.931L710.532 472.523L710.161 471.004C708.373 466.809 707.53 461.917 704.038 458.707C698.852 453.941 690.238 453.544 683.568 453.911C677.685 454.234 670.781 455.013 666.667 459.618C666.453 453.007 667.952 446.745 668.796 440.24C670.016 430.83 670.959 421.178 671.051 411.697C671.089 407.793 671.452 403.556 669.739 399.957Z"/>
	<path fill="#3703B4" transform="scale(0.5 0.5)" d="M710.161 471.004C711.585 469.495 712.976 468.081 714.75 466.982C716.609 465.83 720.404 464.437 721.685 462.75C722.082 462.228 722.373 460.405 722.581 459.696C722.523 463.564 722.298 467.144 721.477 470.931L710.532 472.523L710.161 471.004Z"/>
	<path fill="#3A86FF" transform="scale(0.5 0.5)" d="M561.133 400.017C564.118 398.969 568.842 399.915 572.09 399.951C582.592 400.065 593.095 400.111 603.598 400.165C625.646 400.279 647.692 400.104 669.739 399.957C671.452 403.556 671.089 407.793 671.051 411.697C670.959 421.178 670.016 430.83 668.796 440.24C667.952 446.745 666.453 453.007 666.667 459.618C670.781 455.013 677.685 454.234 683.568 453.911C690.238 453.544 698.852 453.941 704.038 458.707C707.53 461.917 708.373 466.809 710.161 471.004L710.532 472.523L721.477 470.931L679.927 848.194L561.305 848.065L561.066 847.937L561.133 400.017Z"/>
	<path fill="#8338EC" transform="scale(0.5 0.5)" d="M666.667 459.618C670.781 455.013 677.685 454.234 683.568 453.911C690.238 453.544 698.852 453.941 704.038 458.707C707.53 461.917 708.373 466.809 710.161 471.004L710.532 472.523C709.163 475.632 709.139 480.889 708.727 484.29C707.495 494.451 706.246 504.58 705.114 514.75C701.824 544.323 697.125 573.666 693.452 603.195C692.492 610.91 691.79 618.756 691.121 626.5C690.74 630.911 690.79 635.687 689.738 639.998C689.106 642.589 687.53 644.547 685.513 646.25C679.291 651.503 669.635 651.836 661.906 650.803C656.751 650.114 649.63 648.059 646.43 643.588C645.58 642.4 645.313 641.313 645.323 639.864C645.346 636.375 646.252 632.715 646.689 629.231C647.899 619.573 649.26 609.942 650.18 600.25C651.281 588.639 651.842 576.978 653.075 565.374C655.791 539.821 659.729 514.424 663.104 488.959C664.397 479.195 665.311 469.392 666.667 459.618Z"/>
	<path fill="#FFBE0B" transform="scale(0.5 0.5)" d="M206.413 336.843C216.475 336.089 226.595 336.486 236.675 336.605C241.294 336.66 246.585 336.217 251.126 336.91C252.829 336.604 255.176 336.897 256.932 336.898C261.309 336.901 265.687 336.892 270.065 336.874C286.332 336.809 302.599 336.662 318.867 336.61C383.796 336.403 448.73 336.45 513.659 336.58C511.045 341.931 512.718 390.465 512.503 400.592C521.94 399.578 531.382 399.405 540.836 398.714C545.836 398.348 550.815 397.639 555.828 397.429C556.788 397.389 558.866 397.104 559.75 397.362C560.178 397.487 560.484 397.868 560.85 398.121L561.133 400.017L561.066 847.937L561.305 848.065L561.929 848.351C563.63 849.066 566.569 848.688 568.414 848.688C575.321 848.689 589.522 847.182 594.717 851.943L594.719 852.473C594.779 855.362 595.685 857.905 596.531 860.631C598.93 868.362 595.485 876.68 597.137 884.475C598.211 889.537 597.942 895.127 598.389 900.245C598.505 901.567 598.102 902.685 598.211 904.007C598.46 907.013 597.464 910.652 596.967 913.617C596.262 917.829 594.921 922.192 593.037 926.021L592.658 926.805C590.939 930.298 588.769 934.108 586.234 937.057C581.994 941.99 578.95 947.719 575.515 953.188C574.088 955.461 573.519 957.741 571.188 959.261L570.5 959.755C568.975 959.747 567.517 959.755 566 959.878L558.797 959.87L555.75 960C557.308 960.795 560.84 960.299 562.697 960.302C568.451 960.31 574.205 960.329 579.958 960.343C581.742 960.347 587.401 959.844 588.338 960.76L511.977 960.693C466.915 960.058 421.784 960.446 376.718 960.503C365.395 960.517 354.072 960.518 342.75 960.56C335.909 960.586 328.433 961.285 321.702 959.971C311.205 957.922 301.285 952.958 293.25 945.9C284.086 937.85 276.786 927.634 273.46 915.81C272.145 911.132 271.672 906.097 270.988 901.294C269.588 891.449 268.585 881.588 267.348 871.727C263.182 838.537 259.408 805.35 255.563 772.126C252.419 744.964 248.65 717.88 245.52 690.719C243.075 669.51 241.279 648.224 238.7 627.034C236.25 606.905 233.705 586.78 231.406 566.634C230.423 558.025 229.11 549.405 228.478 540.763L206.413 336.843Z"/>
	<path fill="#3A86FF" transform="scale(0.5 0.5)" d="M291.688 400.25C295.221 399.224 301.087 400.008 304.837 400.015C316.588 400.039 328.338 400.08 340.089 400.123C381.243 400.27 422.487 400.493 463.635 399.732L462.75 847.448C459.017 848.705 452.417 847.891 448.262 847.915C435.07 847.993 421.876 847.957 408.684 847.982C395.378 848.007 382.069 848.006 368.763 848.139C359.318 848.233 349.839 848.568 340.398 848.174C339.781 837.968 338.41 827.879 337.203 817.735C336.303 810.164 335.647 802.534 334.487 795C333.894 791.14 332.329 787.621 331.609 783.838C330.892 780.063 330.641 775.99 330.25 772.156C327.232 742.576 324.695 712.945 321.435 683.391C319.306 664.098 316.55 644.878 314.351 625.592C311.179 597.77 308.507 569.909 305.543 542.066C302.871 516.972 299.896 491.917 297.45 466.798C296.036 452.281 294.633 437.77 293.258 423.25C292.775 418.15 292.148 413.069 291.743 407.961C291.539 405.389 291.161 402.796 291.688 400.25Z"/>
</svg>
